%TF.GenerationSoftware,KiCad,Pcbnew,5.1.8-db9833491~88~ubuntu20.04.1*%
%TF.CreationDate,2020-12-21T09:27:26-06:00*%
%TF.ProjectId,main,6d61696e-2e6b-4696-9361-645f70636258,rev?*%
%TF.SameCoordinates,Original*%
%TF.FileFunction,Soldermask,Top*%
%TF.FilePolarity,Negative*%
%FSLAX46Y46*%
G04 Gerber Fmt 4.6, Leading zero omitted, Abs format (unit mm)*
G04 Created by KiCad (PCBNEW 5.1.8-db9833491~88~ubuntu20.04.1) date 2020-12-21 09:27:26*
%MOMM*%
%LPD*%
G01*
G04 APERTURE LIST*
%ADD10R,1.700000X1.000000*%
%ADD11C,1.650000*%
%ADD12R,1.650000X1.650000*%
%ADD13R,2.400000X3.500000*%
%ADD14C,5.664200*%
%ADD15C,2.202180*%
%ADD16R,3.098800X3.098800*%
%ADD17R,0.914400X0.254000*%
%ADD18R,0.254000X0.914400*%
%ADD19R,1.060000X0.650000*%
%ADD20R,0.550000X1.600000*%
%ADD21R,1.600000X0.550000*%
%ADD22O,1.700000X1.700000*%
%ADD23R,1.700000X1.700000*%
G04 APERTURE END LIST*
D10*
%TO.C,SW1*%
X35916000Y-36698000D03*
X29616000Y-36698000D03*
X35916000Y-32898000D03*
X29616000Y-32898000D03*
%TD*%
%TO.C,R11*%
G36*
G01*
X75046000Y-29092999D02*
X75046000Y-30343001D01*
G75*
G02*
X74796001Y-30593000I-249999J0D01*
G01*
X74170999Y-30593000D01*
G75*
G02*
X73921000Y-30343001I0J249999D01*
G01*
X73921000Y-29092999D01*
G75*
G02*
X74170999Y-28843000I249999J0D01*
G01*
X74796001Y-28843000D01*
G75*
G02*
X75046000Y-29092999I0J-249999D01*
G01*
G37*
G36*
G01*
X77971000Y-29092999D02*
X77971000Y-30343001D01*
G75*
G02*
X77721001Y-30593000I-249999J0D01*
G01*
X77095999Y-30593000D01*
G75*
G02*
X76846000Y-30343001I0J249999D01*
G01*
X76846000Y-29092999D01*
G75*
G02*
X77095999Y-28843000I249999J0D01*
G01*
X77721001Y-28843000D01*
G75*
G02*
X77971000Y-29092999I0J-249999D01*
G01*
G37*
%TD*%
%TO.C,R10*%
G36*
G01*
X74792000Y-22996999D02*
X74792000Y-24247001D01*
G75*
G02*
X74542001Y-24497000I-249999J0D01*
G01*
X73916999Y-24497000D01*
G75*
G02*
X73667000Y-24247001I0J249999D01*
G01*
X73667000Y-22996999D01*
G75*
G02*
X73916999Y-22747000I249999J0D01*
G01*
X74542001Y-22747000D01*
G75*
G02*
X74792000Y-22996999I0J-249999D01*
G01*
G37*
G36*
G01*
X77717000Y-22996999D02*
X77717000Y-24247001D01*
G75*
G02*
X77467001Y-24497000I-249999J0D01*
G01*
X76841999Y-24497000D01*
G75*
G02*
X76592000Y-24247001I0J249999D01*
G01*
X76592000Y-22996999D01*
G75*
G02*
X76841999Y-22747000I249999J0D01*
G01*
X77467001Y-22747000D01*
G75*
G02*
X77717000Y-22996999I0J-249999D01*
G01*
G37*
%TD*%
%TO.C,C13*%
G36*
G01*
X73890000Y-37068000D02*
X73890000Y-35068000D01*
G75*
G02*
X74140000Y-34818000I250000J0D01*
G01*
X77140000Y-34818000D01*
G75*
G02*
X77390000Y-35068000I0J-250000D01*
G01*
X77390000Y-37068000D01*
G75*
G02*
X77140000Y-37318000I-250000J0D01*
G01*
X74140000Y-37318000D01*
G75*
G02*
X73890000Y-37068000I0J250000D01*
G01*
G37*
G36*
G01*
X67390000Y-37068000D02*
X67390000Y-35068000D01*
G75*
G02*
X67640000Y-34818000I250000J0D01*
G01*
X70640000Y-34818000D01*
G75*
G02*
X70890000Y-35068000I0J-250000D01*
G01*
X70890000Y-37068000D01*
G75*
G02*
X70640000Y-37318000I-250000J0D01*
G01*
X67640000Y-37318000D01*
G75*
G02*
X67390000Y-37068000I0J250000D01*
G01*
G37*
%TD*%
%TO.C,C9*%
G36*
G01*
X64062000Y-21166000D02*
X64062000Y-21506000D01*
G75*
G02*
X63922000Y-21646000I-140000J0D01*
G01*
X63642000Y-21646000D01*
G75*
G02*
X63502000Y-21506000I0J140000D01*
G01*
X63502000Y-21166000D01*
G75*
G02*
X63642000Y-21026000I140000J0D01*
G01*
X63922000Y-21026000D01*
G75*
G02*
X64062000Y-21166000I0J-140000D01*
G01*
G37*
G36*
G01*
X65022000Y-21166000D02*
X65022000Y-21506000D01*
G75*
G02*
X64882000Y-21646000I-140000J0D01*
G01*
X64602000Y-21646000D01*
G75*
G02*
X64462000Y-21506000I0J140000D01*
G01*
X64462000Y-21166000D01*
G75*
G02*
X64602000Y-21026000I140000J0D01*
G01*
X64882000Y-21026000D01*
G75*
G02*
X65022000Y-21166000I0J-140000D01*
G01*
G37*
%TD*%
%TO.C,C7*%
G36*
G01*
X35527000Y-21394000D02*
X34577000Y-21394000D01*
G75*
G02*
X34327000Y-21144000I0J250000D01*
G01*
X34327000Y-20644000D01*
G75*
G02*
X34577000Y-20394000I250000J0D01*
G01*
X35527000Y-20394000D01*
G75*
G02*
X35777000Y-20644000I0J-250000D01*
G01*
X35777000Y-21144000D01*
G75*
G02*
X35527000Y-21394000I-250000J0D01*
G01*
G37*
G36*
G01*
X35527000Y-23294000D02*
X34577000Y-23294000D01*
G75*
G02*
X34327000Y-23044000I0J250000D01*
G01*
X34327000Y-22544000D01*
G75*
G02*
X34577000Y-22294000I250000J0D01*
G01*
X35527000Y-22294000D01*
G75*
G02*
X35777000Y-22544000I0J-250000D01*
G01*
X35777000Y-23044000D01*
G75*
G02*
X35527000Y-23294000I-250000J0D01*
G01*
G37*
%TD*%
D11*
%TO.C,J4*%
X111876000Y-23316000D03*
X111876000Y-25856000D03*
X106796000Y-25856000D03*
X106796000Y-28396000D03*
D12*
X106796000Y-30936000D03*
X111876000Y-30936000D03*
D11*
X106796000Y-23316000D03*
X111876000Y-28396000D03*
%TD*%
%TO.C,D4*%
G36*
G01*
X29268000Y-16815750D02*
X29268000Y-17728250D01*
G75*
G02*
X29024250Y-17972000I-243750J0D01*
G01*
X28536750Y-17972000D01*
G75*
G02*
X28293000Y-17728250I0J243750D01*
G01*
X28293000Y-16815750D01*
G75*
G02*
X28536750Y-16572000I243750J0D01*
G01*
X29024250Y-16572000D01*
G75*
G02*
X29268000Y-16815750I0J-243750D01*
G01*
G37*
G36*
G01*
X31143000Y-16815750D02*
X31143000Y-17728250D01*
G75*
G02*
X30899250Y-17972000I-243750J0D01*
G01*
X30411750Y-17972000D01*
G75*
G02*
X30168000Y-17728250I0J243750D01*
G01*
X30168000Y-16815750D01*
G75*
G02*
X30411750Y-16572000I243750J0D01*
G01*
X30899250Y-16572000D01*
G75*
G02*
X31143000Y-16815750I0J-243750D01*
G01*
G37*
%TD*%
%TO.C,D3*%
G36*
G01*
X41453750Y-18738000D02*
X42366250Y-18738000D01*
G75*
G02*
X42610000Y-18981750I0J-243750D01*
G01*
X42610000Y-19469250D01*
G75*
G02*
X42366250Y-19713000I-243750J0D01*
G01*
X41453750Y-19713000D01*
G75*
G02*
X41210000Y-19469250I0J243750D01*
G01*
X41210000Y-18981750D01*
G75*
G02*
X41453750Y-18738000I243750J0D01*
G01*
G37*
G36*
G01*
X41453750Y-16863000D02*
X42366250Y-16863000D01*
G75*
G02*
X42610000Y-17106750I0J-243750D01*
G01*
X42610000Y-17594250D01*
G75*
G02*
X42366250Y-17838000I-243750J0D01*
G01*
X41453750Y-17838000D01*
G75*
G02*
X41210000Y-17594250I0J243750D01*
G01*
X41210000Y-17106750D01*
G75*
G02*
X41453750Y-16863000I243750J0D01*
G01*
G37*
%TD*%
%TO.C,D1*%
G36*
G01*
X39827000Y-36008999D02*
X39827000Y-38159001D01*
G75*
G02*
X39577001Y-38409000I-249999J0D01*
G01*
X38726999Y-38409000D01*
G75*
G02*
X38477000Y-38159001I0J249999D01*
G01*
X38477000Y-36008999D01*
G75*
G02*
X38726999Y-35759000I249999J0D01*
G01*
X39577001Y-35759000D01*
G75*
G02*
X39827000Y-36008999I0J-249999D01*
G01*
G37*
G36*
G01*
X44327000Y-36008999D02*
X44327000Y-38159001D01*
G75*
G02*
X44077001Y-38409000I-249999J0D01*
G01*
X43226999Y-38409000D01*
G75*
G02*
X42977000Y-38159001I0J249999D01*
G01*
X42977000Y-36008999D01*
G75*
G02*
X43226999Y-35759000I249999J0D01*
G01*
X44077001Y-35759000D01*
G75*
G02*
X44327000Y-36008999I0J-249999D01*
G01*
G37*
%TD*%
D13*
%TO.C,Y1*%
X53086000Y-21904000D03*
X53086000Y-16704000D03*
%TD*%
D14*
%TO.C,J5*%
X23114000Y-27686000D03*
%TD*%
%TO.C,J1*%
X23114000Y-34798000D03*
%TD*%
D15*
%TO.C,S1*%
X100482400Y-35313620D03*
X81440020Y-36830000D03*
G36*
G01*
X85025230Y-28188920D02*
X85025230Y-29687520D01*
G75*
G02*
X84923630Y-29789120I-101600J0D01*
G01*
X80425290Y-29789120D01*
G75*
G02*
X80323690Y-29687520I0J101600D01*
G01*
X80323690Y-28188920D01*
G75*
G02*
X80425290Y-28087320I101600J0D01*
G01*
X84923630Y-28087320D01*
G75*
G02*
X85025230Y-28188920I0J-101600D01*
G01*
G37*
G36*
G01*
X85025230Y-24190960D02*
X85025230Y-25689560D01*
G75*
G02*
X84923630Y-25791160I-101600J0D01*
G01*
X80425290Y-25791160D01*
G75*
G02*
X80323690Y-25689560I0J101600D01*
G01*
X80323690Y-24190960D01*
G75*
G02*
X80425290Y-24089360I101600J0D01*
G01*
X84923630Y-24089360D01*
G75*
G02*
X85025230Y-24190960I0J-101600D01*
G01*
G37*
G36*
G01*
X85025230Y-26192480D02*
X85025230Y-27691080D01*
G75*
G02*
X84923630Y-27792680I-101600J0D01*
G01*
X80425290Y-27792680D01*
G75*
G02*
X80323690Y-27691080I0J101600D01*
G01*
X80323690Y-26192480D01*
G75*
G02*
X80425290Y-26090880I101600J0D01*
G01*
X84923630Y-26090880D01*
G75*
G02*
X85025230Y-26192480I0J-101600D01*
G01*
G37*
G36*
G01*
X85025230Y-30190440D02*
X85025230Y-31689040D01*
G75*
G02*
X84923630Y-31790640I-101600J0D01*
G01*
X80425290Y-31790640D01*
G75*
G02*
X80323690Y-31689040I0J101600D01*
G01*
X80323690Y-30190440D01*
G75*
G02*
X80425290Y-30088840I101600J0D01*
G01*
X84923630Y-30088840D01*
G75*
G02*
X85025230Y-30190440I0J-101600D01*
G01*
G37*
%TD*%
%TO.C,R1*%
G36*
G01*
X40977000Y-34015000D02*
X40977000Y-34565000D01*
G75*
G02*
X40777000Y-34765000I-200000J0D01*
G01*
X40377000Y-34765000D01*
G75*
G02*
X40177000Y-34565000I0J200000D01*
G01*
X40177000Y-34015000D01*
G75*
G02*
X40377000Y-33815000I200000J0D01*
G01*
X40777000Y-33815000D01*
G75*
G02*
X40977000Y-34015000I0J-200000D01*
G01*
G37*
G36*
G01*
X42627000Y-34015000D02*
X42627000Y-34565000D01*
G75*
G02*
X42427000Y-34765000I-200000J0D01*
G01*
X42027000Y-34765000D01*
G75*
G02*
X41827000Y-34565000I0J200000D01*
G01*
X41827000Y-34015000D01*
G75*
G02*
X42027000Y-33815000I200000J0D01*
G01*
X42427000Y-33815000D01*
G75*
G02*
X42627000Y-34015000I0J-200000D01*
G01*
G37*
%TD*%
%TO.C,R12*%
G36*
G01*
X32849000Y-16997000D02*
X32849000Y-17547000D01*
G75*
G02*
X32649000Y-17747000I-200000J0D01*
G01*
X32249000Y-17747000D01*
G75*
G02*
X32049000Y-17547000I0J200000D01*
G01*
X32049000Y-16997000D01*
G75*
G02*
X32249000Y-16797000I200000J0D01*
G01*
X32649000Y-16797000D01*
G75*
G02*
X32849000Y-16997000I0J-200000D01*
G01*
G37*
G36*
G01*
X34499000Y-16997000D02*
X34499000Y-17547000D01*
G75*
G02*
X34299000Y-17747000I-200000J0D01*
G01*
X33899000Y-17747000D01*
G75*
G02*
X33699000Y-17547000I0J200000D01*
G01*
X33699000Y-16997000D01*
G75*
G02*
X33899000Y-16797000I200000J0D01*
G01*
X34299000Y-16797000D01*
G75*
G02*
X34499000Y-16997000I0J-200000D01*
G01*
G37*
%TD*%
%TO.C,D2*%
G36*
G01*
X29114000Y-28699750D02*
X29114000Y-29212250D01*
G75*
G02*
X28895250Y-29431000I-218750J0D01*
G01*
X28457750Y-29431000D01*
G75*
G02*
X28239000Y-29212250I0J218750D01*
G01*
X28239000Y-28699750D01*
G75*
G02*
X28457750Y-28481000I218750J0D01*
G01*
X28895250Y-28481000D01*
G75*
G02*
X29114000Y-28699750I0J-218750D01*
G01*
G37*
G36*
G01*
X30689000Y-28699750D02*
X30689000Y-29212250D01*
G75*
G02*
X30470250Y-29431000I-218750J0D01*
G01*
X30032750Y-29431000D01*
G75*
G02*
X29814000Y-29212250I0J218750D01*
G01*
X29814000Y-28699750D01*
G75*
G02*
X30032750Y-28481000I218750J0D01*
G01*
X30470250Y-28481000D01*
G75*
G02*
X30689000Y-28699750I0J-218750D01*
G01*
G37*
%TD*%
D16*
%TO.C,U3*%
X65024000Y-25654000D03*
D17*
X67373500Y-24154000D03*
X67373500Y-24653999D03*
X67373500Y-25154001D03*
X67373500Y-25654000D03*
X67373500Y-26153999D03*
X67373500Y-26654001D03*
X67373500Y-27154000D03*
D18*
X66524000Y-28003500D03*
X66024001Y-28003500D03*
X65523999Y-28003500D03*
X65024000Y-28003500D03*
X64524001Y-28003500D03*
X64023999Y-28003500D03*
X63524000Y-28003500D03*
D17*
X62674500Y-27154000D03*
X62674500Y-26654001D03*
X62674500Y-26153999D03*
X62674500Y-25654000D03*
X62674500Y-25154001D03*
X62674500Y-24653999D03*
X62674500Y-24154000D03*
D18*
X63524000Y-23304500D03*
X64023999Y-23304500D03*
X64524001Y-23304500D03*
X65024000Y-23304500D03*
X65523999Y-23304500D03*
X66024001Y-23304500D03*
X66524000Y-23304500D03*
%TD*%
D19*
%TO.C,U2*%
X28532000Y-21656000D03*
X28532000Y-23556000D03*
X26332000Y-23556000D03*
X26332000Y-22606000D03*
X26332000Y-21656000D03*
%TD*%
D20*
%TO.C,U1*%
X44456000Y-29650000D03*
X43656000Y-29650000D03*
X42856000Y-29650000D03*
X42056000Y-29650000D03*
X41256000Y-29650000D03*
X40456000Y-29650000D03*
X39656000Y-29650000D03*
X38856000Y-29650000D03*
D21*
X37406000Y-28200000D03*
X37406000Y-27400000D03*
X37406000Y-26600000D03*
X37406000Y-25800000D03*
X37406000Y-25000000D03*
X37406000Y-24200000D03*
X37406000Y-23400000D03*
X37406000Y-22600000D03*
D20*
X38856000Y-21150000D03*
X39656000Y-21150000D03*
X40456000Y-21150000D03*
X41256000Y-21150000D03*
X42056000Y-21150000D03*
X42856000Y-21150000D03*
X43656000Y-21150000D03*
X44456000Y-21150000D03*
D21*
X45906000Y-22600000D03*
X45906000Y-23400000D03*
X45906000Y-24200000D03*
X45906000Y-25000000D03*
X45906000Y-25800000D03*
X45906000Y-26600000D03*
X45906000Y-27400000D03*
X45906000Y-28200000D03*
%TD*%
%TO.C,R9*%
G36*
G01*
X86023000Y-16785000D02*
X86023000Y-16235000D01*
G75*
G02*
X86223000Y-16035000I200000J0D01*
G01*
X86623000Y-16035000D01*
G75*
G02*
X86823000Y-16235000I0J-200000D01*
G01*
X86823000Y-16785000D01*
G75*
G02*
X86623000Y-16985000I-200000J0D01*
G01*
X86223000Y-16985000D01*
G75*
G02*
X86023000Y-16785000I0J200000D01*
G01*
G37*
G36*
G01*
X84373000Y-16785000D02*
X84373000Y-16235000D01*
G75*
G02*
X84573000Y-16035000I200000J0D01*
G01*
X84973000Y-16035000D01*
G75*
G02*
X85173000Y-16235000I0J-200000D01*
G01*
X85173000Y-16785000D01*
G75*
G02*
X84973000Y-16985000I-200000J0D01*
G01*
X84573000Y-16985000D01*
G75*
G02*
X84373000Y-16785000I0J200000D01*
G01*
G37*
%TD*%
%TO.C,R8*%
G36*
G01*
X59519000Y-27919000D02*
X59519000Y-28469000D01*
G75*
G02*
X59319000Y-28669000I-200000J0D01*
G01*
X58919000Y-28669000D01*
G75*
G02*
X58719000Y-28469000I0J200000D01*
G01*
X58719000Y-27919000D01*
G75*
G02*
X58919000Y-27719000I200000J0D01*
G01*
X59319000Y-27719000D01*
G75*
G02*
X59519000Y-27919000I0J-200000D01*
G01*
G37*
G36*
G01*
X61169000Y-27919000D02*
X61169000Y-28469000D01*
G75*
G02*
X60969000Y-28669000I-200000J0D01*
G01*
X60569000Y-28669000D01*
G75*
G02*
X60369000Y-28469000I0J200000D01*
G01*
X60369000Y-27919000D01*
G75*
G02*
X60569000Y-27719000I200000J0D01*
G01*
X60969000Y-27719000D01*
G75*
G02*
X61169000Y-27919000I0J-200000D01*
G01*
G37*
%TD*%
%TO.C,R7*%
G36*
G01*
X60369000Y-27199000D02*
X60369000Y-26649000D01*
G75*
G02*
X60569000Y-26449000I200000J0D01*
G01*
X60969000Y-26449000D01*
G75*
G02*
X61169000Y-26649000I0J-200000D01*
G01*
X61169000Y-27199000D01*
G75*
G02*
X60969000Y-27399000I-200000J0D01*
G01*
X60569000Y-27399000D01*
G75*
G02*
X60369000Y-27199000I0J200000D01*
G01*
G37*
G36*
G01*
X58719000Y-27199000D02*
X58719000Y-26649000D01*
G75*
G02*
X58919000Y-26449000I200000J0D01*
G01*
X59319000Y-26449000D01*
G75*
G02*
X59519000Y-26649000I0J-200000D01*
G01*
X59519000Y-27199000D01*
G75*
G02*
X59319000Y-27399000I-200000J0D01*
G01*
X58919000Y-27399000D01*
G75*
G02*
X58719000Y-27199000I0J200000D01*
G01*
G37*
%TD*%
%TO.C,R6*%
G36*
G01*
X49676000Y-27919000D02*
X49676000Y-28469000D01*
G75*
G02*
X49476000Y-28669000I-200000J0D01*
G01*
X49076000Y-28669000D01*
G75*
G02*
X48876000Y-28469000I0J200000D01*
G01*
X48876000Y-27919000D01*
G75*
G02*
X49076000Y-27719000I200000J0D01*
G01*
X49476000Y-27719000D01*
G75*
G02*
X49676000Y-27919000I0J-200000D01*
G01*
G37*
G36*
G01*
X51326000Y-27919000D02*
X51326000Y-28469000D01*
G75*
G02*
X51126000Y-28669000I-200000J0D01*
G01*
X50726000Y-28669000D01*
G75*
G02*
X50526000Y-28469000I0J200000D01*
G01*
X50526000Y-27919000D01*
G75*
G02*
X50726000Y-27719000I200000J0D01*
G01*
X51126000Y-27719000D01*
G75*
G02*
X51326000Y-27919000I0J-200000D01*
G01*
G37*
%TD*%
%TO.C,R5*%
G36*
G01*
X48789000Y-19133000D02*
X48239000Y-19133000D01*
G75*
G02*
X48039000Y-18933000I0J200000D01*
G01*
X48039000Y-18533000D01*
G75*
G02*
X48239000Y-18333000I200000J0D01*
G01*
X48789000Y-18333000D01*
G75*
G02*
X48989000Y-18533000I0J-200000D01*
G01*
X48989000Y-18933000D01*
G75*
G02*
X48789000Y-19133000I-200000J0D01*
G01*
G37*
G36*
G01*
X48789000Y-20783000D02*
X48239000Y-20783000D01*
G75*
G02*
X48039000Y-20583000I0J200000D01*
G01*
X48039000Y-20183000D01*
G75*
G02*
X48239000Y-19983000I200000J0D01*
G01*
X48789000Y-19983000D01*
G75*
G02*
X48989000Y-20183000I0J-200000D01*
G01*
X48989000Y-20583000D01*
G75*
G02*
X48789000Y-20783000I-200000J0D01*
G01*
G37*
%TD*%
%TO.C,R3*%
G36*
G01*
X44217000Y-17863000D02*
X43667000Y-17863000D01*
G75*
G02*
X43467000Y-17663000I0J200000D01*
G01*
X43467000Y-17263000D01*
G75*
G02*
X43667000Y-17063000I200000J0D01*
G01*
X44217000Y-17063000D01*
G75*
G02*
X44417000Y-17263000I0J-200000D01*
G01*
X44417000Y-17663000D01*
G75*
G02*
X44217000Y-17863000I-200000J0D01*
G01*
G37*
G36*
G01*
X44217000Y-19513000D02*
X43667000Y-19513000D01*
G75*
G02*
X43467000Y-19313000I0J200000D01*
G01*
X43467000Y-18913000D01*
G75*
G02*
X43667000Y-18713000I200000J0D01*
G01*
X44217000Y-18713000D01*
G75*
G02*
X44417000Y-18913000I0J-200000D01*
G01*
X44417000Y-19313000D01*
G75*
G02*
X44217000Y-19513000I-200000J0D01*
G01*
G37*
%TD*%
%TO.C,R2*%
G36*
G01*
X29889000Y-27453000D02*
X29889000Y-26903000D01*
G75*
G02*
X30089000Y-26703000I200000J0D01*
G01*
X30489000Y-26703000D01*
G75*
G02*
X30689000Y-26903000I0J-200000D01*
G01*
X30689000Y-27453000D01*
G75*
G02*
X30489000Y-27653000I-200000J0D01*
G01*
X30089000Y-27653000D01*
G75*
G02*
X29889000Y-27453000I0J200000D01*
G01*
G37*
G36*
G01*
X28239000Y-27453000D02*
X28239000Y-26903000D01*
G75*
G02*
X28439000Y-26703000I200000J0D01*
G01*
X28839000Y-26703000D01*
G75*
G02*
X29039000Y-26903000I0J-200000D01*
G01*
X29039000Y-27453000D01*
G75*
G02*
X28839000Y-27653000I-200000J0D01*
G01*
X28439000Y-27653000D01*
G75*
G02*
X28239000Y-27453000I0J200000D01*
G01*
G37*
%TD*%
D22*
%TO.C,J3*%
X80772000Y-16510000D03*
D23*
X80772000Y-19050000D03*
%TD*%
D22*
%TO.C,J2*%
X49022000Y-37338000D03*
X49022000Y-34798000D03*
X51562000Y-37338000D03*
X51562000Y-34798000D03*
X54102000Y-37338000D03*
D23*
X54102000Y-34798000D03*
%TD*%
%TO.C,C15*%
G36*
G01*
X65969000Y-30738000D02*
X65969000Y-31238000D01*
G75*
G02*
X65744000Y-31463000I-225000J0D01*
G01*
X65294000Y-31463000D01*
G75*
G02*
X65069000Y-31238000I0J225000D01*
G01*
X65069000Y-30738000D01*
G75*
G02*
X65294000Y-30513000I225000J0D01*
G01*
X65744000Y-30513000D01*
G75*
G02*
X65969000Y-30738000I0J-225000D01*
G01*
G37*
G36*
G01*
X67519000Y-30738000D02*
X67519000Y-31238000D01*
G75*
G02*
X67294000Y-31463000I-225000J0D01*
G01*
X66844000Y-31463000D01*
G75*
G02*
X66619000Y-31238000I0J225000D01*
G01*
X66619000Y-30738000D01*
G75*
G02*
X66844000Y-30513000I225000J0D01*
G01*
X67294000Y-30513000D01*
G75*
G02*
X67519000Y-30738000I0J-225000D01*
G01*
G37*
%TD*%
%TO.C,C14*%
G36*
G01*
X67381000Y-19300000D02*
X67381000Y-18800000D01*
G75*
G02*
X67606000Y-18575000I225000J0D01*
G01*
X68056000Y-18575000D01*
G75*
G02*
X68281000Y-18800000I0J-225000D01*
G01*
X68281000Y-19300000D01*
G75*
G02*
X68056000Y-19525000I-225000J0D01*
G01*
X67606000Y-19525000D01*
G75*
G02*
X67381000Y-19300000I0J225000D01*
G01*
G37*
G36*
G01*
X65831000Y-19300000D02*
X65831000Y-18800000D01*
G75*
G02*
X66056000Y-18575000I225000J0D01*
G01*
X66506000Y-18575000D01*
G75*
G02*
X66731000Y-18800000I0J-225000D01*
G01*
X66731000Y-19300000D01*
G75*
G02*
X66506000Y-19525000I-225000J0D01*
G01*
X66056000Y-19525000D01*
G75*
G02*
X65831000Y-19300000I0J225000D01*
G01*
G37*
%TD*%
%TO.C,C12*%
G36*
G01*
X60710000Y-21407000D02*
X61210000Y-21407000D01*
G75*
G02*
X61435000Y-21632000I0J-225000D01*
G01*
X61435000Y-22082000D01*
G75*
G02*
X61210000Y-22307000I-225000J0D01*
G01*
X60710000Y-22307000D01*
G75*
G02*
X60485000Y-22082000I0J225000D01*
G01*
X60485000Y-21632000D01*
G75*
G02*
X60710000Y-21407000I225000J0D01*
G01*
G37*
G36*
G01*
X60710000Y-19857000D02*
X61210000Y-19857000D01*
G75*
G02*
X61435000Y-20082000I0J-225000D01*
G01*
X61435000Y-20532000D01*
G75*
G02*
X61210000Y-20757000I-225000J0D01*
G01*
X60710000Y-20757000D01*
G75*
G02*
X60485000Y-20532000I0J225000D01*
G01*
X60485000Y-20082000D01*
G75*
G02*
X60710000Y-19857000I225000J0D01*
G01*
G37*
%TD*%
%TO.C,C11*%
G36*
G01*
X59432000Y-20757000D02*
X58932000Y-20757000D01*
G75*
G02*
X58707000Y-20532000I0J225000D01*
G01*
X58707000Y-20082000D01*
G75*
G02*
X58932000Y-19857000I225000J0D01*
G01*
X59432000Y-19857000D01*
G75*
G02*
X59657000Y-20082000I0J-225000D01*
G01*
X59657000Y-20532000D01*
G75*
G02*
X59432000Y-20757000I-225000J0D01*
G01*
G37*
G36*
G01*
X59432000Y-22307000D02*
X58932000Y-22307000D01*
G75*
G02*
X58707000Y-22082000I0J225000D01*
G01*
X58707000Y-21632000D01*
G75*
G02*
X58932000Y-21407000I225000J0D01*
G01*
X59432000Y-21407000D01*
G75*
G02*
X59657000Y-21632000I0J-225000D01*
G01*
X59657000Y-22082000D01*
G75*
G02*
X59432000Y-22307000I-225000J0D01*
G01*
G37*
%TD*%
%TO.C,C10*%
G36*
G01*
X60381000Y-30230000D02*
X60381000Y-30730000D01*
G75*
G02*
X60156000Y-30955000I-225000J0D01*
G01*
X59706000Y-30955000D01*
G75*
G02*
X59481000Y-30730000I0J225000D01*
G01*
X59481000Y-30230000D01*
G75*
G02*
X59706000Y-30005000I225000J0D01*
G01*
X60156000Y-30005000D01*
G75*
G02*
X60381000Y-30230000I0J-225000D01*
G01*
G37*
G36*
G01*
X61931000Y-30230000D02*
X61931000Y-30730000D01*
G75*
G02*
X61706000Y-30955000I-225000J0D01*
G01*
X61256000Y-30955000D01*
G75*
G02*
X61031000Y-30730000I0J225000D01*
G01*
X61031000Y-30230000D01*
G75*
G02*
X61256000Y-30005000I225000J0D01*
G01*
X61706000Y-30005000D01*
G75*
G02*
X61931000Y-30230000I0J-225000D01*
G01*
G37*
%TD*%
%TO.C,C8*%
G36*
G01*
X63504000Y-32075000D02*
X64004000Y-32075000D01*
G75*
G02*
X64229000Y-32300000I0J-225000D01*
G01*
X64229000Y-32750000D01*
G75*
G02*
X64004000Y-32975000I-225000J0D01*
G01*
X63504000Y-32975000D01*
G75*
G02*
X63279000Y-32750000I0J225000D01*
G01*
X63279000Y-32300000D01*
G75*
G02*
X63504000Y-32075000I225000J0D01*
G01*
G37*
G36*
G01*
X63504000Y-30525000D02*
X64004000Y-30525000D01*
G75*
G02*
X64229000Y-30750000I0J-225000D01*
G01*
X64229000Y-31200000D01*
G75*
G02*
X64004000Y-31425000I-225000J0D01*
G01*
X63504000Y-31425000D01*
G75*
G02*
X63279000Y-31200000I0J225000D01*
G01*
X63279000Y-30750000D01*
G75*
G02*
X63504000Y-30525000I225000J0D01*
G01*
G37*
%TD*%
%TO.C,C6*%
G36*
G01*
X23439000Y-22856000D02*
X23439000Y-22356000D01*
G75*
G02*
X23664000Y-22131000I225000J0D01*
G01*
X24114000Y-22131000D01*
G75*
G02*
X24339000Y-22356000I0J-225000D01*
G01*
X24339000Y-22856000D01*
G75*
G02*
X24114000Y-23081000I-225000J0D01*
G01*
X23664000Y-23081000D01*
G75*
G02*
X23439000Y-22856000I0J225000D01*
G01*
G37*
G36*
G01*
X21889000Y-22856000D02*
X21889000Y-22356000D01*
G75*
G02*
X22114000Y-22131000I225000J0D01*
G01*
X22564000Y-22131000D01*
G75*
G02*
X22789000Y-22356000I0J-225000D01*
G01*
X22789000Y-22856000D01*
G75*
G02*
X22564000Y-23081000I-225000J0D01*
G01*
X22114000Y-23081000D01*
G75*
G02*
X21889000Y-22856000I0J225000D01*
G01*
G37*
%TD*%
%TO.C,C5*%
G36*
G01*
X50542000Y-17455000D02*
X50042000Y-17455000D01*
G75*
G02*
X49817000Y-17230000I0J225000D01*
G01*
X49817000Y-16780000D01*
G75*
G02*
X50042000Y-16555000I225000J0D01*
G01*
X50542000Y-16555000D01*
G75*
G02*
X50767000Y-16780000I0J-225000D01*
G01*
X50767000Y-17230000D01*
G75*
G02*
X50542000Y-17455000I-225000J0D01*
G01*
G37*
G36*
G01*
X50542000Y-19005000D02*
X50042000Y-19005000D01*
G75*
G02*
X49817000Y-18780000I0J225000D01*
G01*
X49817000Y-18330000D01*
G75*
G02*
X50042000Y-18105000I225000J0D01*
G01*
X50542000Y-18105000D01*
G75*
G02*
X50767000Y-18330000I0J-225000D01*
G01*
X50767000Y-18780000D01*
G75*
G02*
X50542000Y-19005000I-225000J0D01*
G01*
G37*
%TD*%
%TO.C,C4*%
G36*
G01*
X50042000Y-21661000D02*
X50542000Y-21661000D01*
G75*
G02*
X50767000Y-21886000I0J-225000D01*
G01*
X50767000Y-22336000D01*
G75*
G02*
X50542000Y-22561000I-225000J0D01*
G01*
X50042000Y-22561000D01*
G75*
G02*
X49817000Y-22336000I0J225000D01*
G01*
X49817000Y-21886000D01*
G75*
G02*
X50042000Y-21661000I225000J0D01*
G01*
G37*
G36*
G01*
X50042000Y-20111000D02*
X50542000Y-20111000D01*
G75*
G02*
X50767000Y-20336000I0J-225000D01*
G01*
X50767000Y-20786000D01*
G75*
G02*
X50542000Y-21011000I-225000J0D01*
G01*
X50042000Y-21011000D01*
G75*
G02*
X49817000Y-20786000I0J225000D01*
G01*
X49817000Y-20336000D01*
G75*
G02*
X50042000Y-20111000I225000J0D01*
G01*
G37*
%TD*%
%TO.C,C3*%
G36*
G01*
X29789000Y-25650000D02*
X29789000Y-25150000D01*
G75*
G02*
X30014000Y-24925000I225000J0D01*
G01*
X30464000Y-24925000D01*
G75*
G02*
X30689000Y-25150000I0J-225000D01*
G01*
X30689000Y-25650000D01*
G75*
G02*
X30464000Y-25875000I-225000J0D01*
G01*
X30014000Y-25875000D01*
G75*
G02*
X29789000Y-25650000I0J225000D01*
G01*
G37*
G36*
G01*
X28239000Y-25650000D02*
X28239000Y-25150000D01*
G75*
G02*
X28464000Y-24925000I225000J0D01*
G01*
X28914000Y-24925000D01*
G75*
G02*
X29139000Y-25150000I0J-225000D01*
G01*
X29139000Y-25650000D01*
G75*
G02*
X28914000Y-25875000I-225000J0D01*
G01*
X28464000Y-25875000D01*
G75*
G02*
X28239000Y-25650000I0J225000D01*
G01*
G37*
%TD*%
%TO.C,C2*%
G36*
G01*
X35056000Y-26233000D02*
X35556000Y-26233000D01*
G75*
G02*
X35781000Y-26458000I0J-225000D01*
G01*
X35781000Y-26908000D01*
G75*
G02*
X35556000Y-27133000I-225000J0D01*
G01*
X35056000Y-27133000D01*
G75*
G02*
X34831000Y-26908000I0J225000D01*
G01*
X34831000Y-26458000D01*
G75*
G02*
X35056000Y-26233000I225000J0D01*
G01*
G37*
G36*
G01*
X35056000Y-24683000D02*
X35556000Y-24683000D01*
G75*
G02*
X35781000Y-24908000I0J-225000D01*
G01*
X35781000Y-25358000D01*
G75*
G02*
X35556000Y-25583000I-225000J0D01*
G01*
X35056000Y-25583000D01*
G75*
G02*
X34831000Y-25358000I0J225000D01*
G01*
X34831000Y-24908000D01*
G75*
G02*
X35056000Y-24683000I225000J0D01*
G01*
G37*
%TD*%
%TO.C,C1*%
G36*
G01*
X48839000Y-25904000D02*
X48839000Y-25404000D01*
G75*
G02*
X49064000Y-25179000I225000J0D01*
G01*
X49514000Y-25179000D01*
G75*
G02*
X49739000Y-25404000I0J-225000D01*
G01*
X49739000Y-25904000D01*
G75*
G02*
X49514000Y-26129000I-225000J0D01*
G01*
X49064000Y-26129000D01*
G75*
G02*
X48839000Y-25904000I0J225000D01*
G01*
G37*
G36*
G01*
X47289000Y-25904000D02*
X47289000Y-25404000D01*
G75*
G02*
X47514000Y-25179000I225000J0D01*
G01*
X47964000Y-25179000D01*
G75*
G02*
X48189000Y-25404000I0J-225000D01*
G01*
X48189000Y-25904000D01*
G75*
G02*
X47964000Y-26129000I-225000J0D01*
G01*
X47514000Y-26129000D01*
G75*
G02*
X47289000Y-25904000I0J225000D01*
G01*
G37*
%TD*%
M02*
