%TF.GenerationSoftware,KiCad,Pcbnew,5.1.8-db9833491~88~ubuntu20.04.1*%
%TF.CreationDate,2020-12-21T09:27:26-06:00*%
%TF.ProjectId,main,6d61696e-2e6b-4696-9361-645f70636258,rev?*%
%TF.SameCoordinates,Original*%
%TF.FileFunction,Copper,L2,Bot*%
%TF.FilePolarity,Positive*%
%FSLAX46Y46*%
G04 Gerber Fmt 4.6, Leading zero omitted, Abs format (unit mm)*
G04 Created by KiCad (PCBNEW 5.1.8-db9833491~88~ubuntu20.04.1) date 2020-12-21 09:27:26*
%MOMM*%
%LPD*%
G01*
G04 APERTURE LIST*
%TA.AperFunction,ComponentPad*%
%ADD10C,1.650000*%
%TD*%
%TA.AperFunction,ComponentPad*%
%ADD11R,1.650000X1.650000*%
%TD*%
%TA.AperFunction,ComponentPad*%
%ADD12C,5.461000*%
%TD*%
%TA.AperFunction,ComponentPad*%
%ADD13O,1.700000X1.700000*%
%TD*%
%TA.AperFunction,ComponentPad*%
%ADD14R,1.700000X1.700000*%
%TD*%
%TA.AperFunction,ViaPad*%
%ADD15C,0.800000*%
%TD*%
%TA.AperFunction,ViaPad*%
%ADD16C,1.371600*%
%TD*%
%TA.AperFunction,ViaPad*%
%ADD17C,1.778000*%
%TD*%
%TA.AperFunction,Conductor*%
%ADD18C,0.762000*%
%TD*%
%TA.AperFunction,Conductor*%
%ADD19C,2.540000*%
%TD*%
%TA.AperFunction,Conductor*%
%ADD20C,0.250000*%
%TD*%
%TA.AperFunction,Conductor*%
%ADD21C,0.254000*%
%TD*%
%TA.AperFunction,Conductor*%
%ADD22C,0.100000*%
%TD*%
G04 APERTURE END LIST*
D10*
%TO.P,J4,4_B*%
%TO.N,/B1*%
X111876000Y-23316000D03*
%TO.P,J4,3_B*%
%TO.N,/B2*%
X111876000Y-25856000D03*
%TO.P,J4,3_A*%
X106796000Y-25856000D03*
%TO.P,J4,2_A*%
%TO.N,/A2*%
X106796000Y-28396000D03*
D11*
%TO.P,J4,1_A*%
%TO.N,/A1*%
X106796000Y-30936000D03*
%TO.P,J4,1_B*%
X111876000Y-30936000D03*
D10*
%TO.P,J4,4_A*%
%TO.N,/B1*%
X106796000Y-23316000D03*
%TO.P,J4,2_B*%
%TO.N,/A2*%
X111876000Y-28396000D03*
%TD*%
D12*
%TO.P,J5,1*%
%TO.N,GND*%
X23114000Y-27686000D03*
%TD*%
%TO.P,J1,1*%
%TO.N,+15V*%
X23114000Y-34798000D03*
%TD*%
D13*
%TO.P,J3,2*%
%TO.N,Net-(J3-Pad2)*%
X80772000Y-16510000D03*
D14*
%TO.P,J3,1*%
%TO.N,+5V*%
X80772000Y-19050000D03*
%TD*%
D13*
%TO.P,J2,6*%
%TO.N,GND*%
X49022000Y-37338000D03*
%TO.P,J2,5*%
%TO.N,/RESET*%
X49022000Y-34798000D03*
%TO.P,J2,4*%
%TO.N,/MOSI*%
X51562000Y-37338000D03*
%TO.P,J2,3*%
%TO.N,/SCK*%
X51562000Y-34798000D03*
%TO.P,J2,2*%
%TO.N,+5V*%
X54102000Y-37338000D03*
D14*
%TO.P,J2,1*%
%TO.N,/MISO*%
X54102000Y-34798000D03*
%TD*%
D15*
%TO.N,GND*%
X64262000Y-26162000D03*
X65786000Y-26162000D03*
X65786000Y-24892000D03*
X64262000Y-24892000D03*
X25146000Y-22606000D03*
X25146000Y-22606000D03*
X31750000Y-25908000D03*
X33786653Y-25903347D03*
X49276000Y-23876000D03*
X49276000Y-22606000D03*
X48768000Y-17018000D03*
X45212000Y-19050000D03*
X34036000Y-15748000D03*
X65532000Y-32512000D03*
X78486000Y-36068000D03*
X82550000Y-32766000D03*
X77978000Y-32258000D03*
X77470000Y-21844000D03*
X67818000Y-17526000D03*
X86360000Y-14986000D03*
X33274000Y-20828000D03*
X58674000Y-30660001D03*
X32898000Y-32898000D03*
D16*
X57404000Y-20320000D03*
D17*
%TO.N,+15V*%
X69088000Y-39878000D03*
X69088000Y-23368000D03*
X69596000Y-27686000D03*
D15*
X65278000Y-19558000D03*
X68326000Y-30988000D03*
%TO.N,Net-(C8-Pad1)*%
X54215000Y-31483000D03*
X57404000Y-31750000D03*
%TO.N,/RESET*%
X38862000Y-34290000D03*
X43688000Y-32004000D03*
%TO.N,/SCK*%
X41656000Y-25654000D03*
%TO.N,/MISO*%
X41656000Y-24130000D03*
%TO.N,Net-(R10-Pad2)*%
X72702672Y-23309328D03*
X70958000Y-24457000D03*
%TO.N,Net-(R11-Pad2)*%
X72898000Y-29972000D03*
X71374000Y-27940000D03*
%TO.N,/MS2*%
X50292000Y-30988000D03*
X52578000Y-28702000D03*
X55118000Y-26416000D03*
X55626000Y-24892000D03*
%TO.N,/MS1*%
X50292000Y-31750000D03*
X53340000Y-29267685D03*
X55880000Y-26727685D03*
X58321843Y-24285843D03*
%TO.N,/MOSI*%
X41148000Y-22860000D03*
%TO.N,/INDEX*%
X55118000Y-29718000D03*
X42856000Y-24454000D03*
%TO.N,/DIR*%
X65523999Y-29201999D03*
X43688000Y-23876000D03*
%TO.N,/STEP*%
X44450000Y-23114000D03*
X63495347Y-29210001D03*
%TO.N,/B1*%
X88848000Y-23316000D03*
D16*
X115570000Y-35052000D03*
D15*
X70866000Y-25400000D03*
%TO.N,/A1*%
X88900000Y-30988000D03*
D16*
X105664000Y-35052000D03*
D15*
X71388014Y-26655986D03*
%TO.N,/A2*%
X75184000Y-26162000D03*
X88900000Y-28448000D03*
D16*
X108966000Y-35052000D03*
D15*
%TO.N,/B2*%
X74168000Y-26162000D03*
X88900000Y-25908000D03*
D16*
X112268000Y-35052000D03*
D15*
%TO.N,Net-(S1-PadY)*%
X41331770Y-31279000D03*
X44962653Y-34285347D03*
%TO.N,Net-(S1-PadX)*%
X40386000Y-32004000D03*
X43688000Y-34036000D03*
%TD*%
D18*
%TO.N,GND*%
X23114000Y-24638000D02*
X25146000Y-22606000D01*
X23114000Y-27686000D02*
X23114000Y-24638000D01*
X27178000Y-22606000D02*
X34036000Y-15748000D01*
X25146000Y-22606000D02*
X27178000Y-22606000D01*
X41910000Y-15748000D02*
X45212000Y-19050000D01*
X34036000Y-15748000D02*
X41910000Y-15748000D01*
X46736000Y-19050000D02*
X48768000Y-17018000D01*
X45212000Y-19050000D02*
X46736000Y-19050000D01*
X67310000Y-17018000D02*
X67818000Y-17526000D01*
X48768000Y-17018000D02*
X67310000Y-17018000D01*
X73152000Y-17526000D02*
X77470000Y-21844000D01*
X67818000Y-17526000D02*
X73152000Y-17526000D01*
X80178118Y-14986000D02*
X86360000Y-14986000D01*
X77470000Y-17694118D02*
X80178118Y-14986000D01*
X77470000Y-21844000D02*
X77470000Y-17694118D01*
X29972000Y-27686000D02*
X31750000Y-25908000D01*
X23114000Y-27686000D02*
X29972000Y-27686000D01*
X33782000Y-25908000D02*
X33786653Y-25903347D01*
X31750000Y-25908000D02*
X33782000Y-25908000D01*
X23114000Y-29896978D02*
X23114000Y-27686000D01*
X30555022Y-37338000D02*
X23114000Y-29896978D01*
X49022000Y-37338000D02*
X30555022Y-37338000D01*
X66505000Y-26881000D02*
X65786000Y-26162000D01*
X66505000Y-31539000D02*
X66505000Y-26881000D01*
X65532000Y-32512000D02*
X66505000Y-31539000D01*
X64296999Y-23402999D02*
X65786000Y-24892000D01*
X64296999Y-19087119D02*
X64296999Y-23402999D01*
X65858118Y-17526000D02*
X64296999Y-19087119D01*
X67818000Y-17526000D02*
X65858118Y-17526000D01*
X89881001Y-31458881D02*
X89081882Y-32258000D01*
X89881001Y-22897119D02*
X89881001Y-31458881D01*
X88827882Y-21844000D02*
X89881001Y-22897119D01*
X77470000Y-21844000D02*
X88827882Y-21844000D01*
X77978000Y-35560000D02*
X78486000Y-36068000D01*
X77978000Y-32258000D02*
X77978000Y-35560000D01*
X82550000Y-32512000D02*
X82296000Y-32258000D01*
X82550000Y-32766000D02*
X82550000Y-32512000D01*
X82296000Y-32258000D02*
X77978000Y-32258000D01*
X89081882Y-32258000D02*
X82296000Y-32258000D01*
X34036000Y-20066000D02*
X33274000Y-20828000D01*
X34036000Y-15748000D02*
X34036000Y-20066000D01*
X49276000Y-21590000D02*
X46736000Y-19050000D01*
X49276000Y-22606000D02*
X49276000Y-21590000D01*
X49276000Y-23876000D02*
X49276000Y-22606000D01*
X60525999Y-32512000D02*
X58674000Y-30660001D01*
X65532000Y-32512000D02*
X60525999Y-32512000D01*
X32898000Y-34995022D02*
X30555022Y-37338000D01*
X32898000Y-32898000D02*
X32898000Y-34995022D01*
D19*
%TO.N,+15V*%
X23114000Y-38659510D02*
X24332490Y-39878000D01*
X23114000Y-34798000D02*
X23114000Y-38659510D01*
X24332490Y-39878000D02*
X32258000Y-39878000D01*
X32258000Y-39878000D02*
X61214000Y-39878000D01*
X61214000Y-39878000D02*
X69088000Y-39878000D01*
X69088000Y-39878000D02*
X69088000Y-39878000D01*
X69088000Y-39878000D02*
X69088000Y-39878000D01*
X69088000Y-39878000D02*
X69088000Y-39878000D01*
X69088000Y-27686000D02*
X69088000Y-23368000D01*
D18*
X69088000Y-23368000D02*
X65278000Y-19558000D01*
X65278000Y-19558000D02*
X65278000Y-19558000D01*
D19*
X69088000Y-31242000D02*
X69088000Y-27686000D01*
X69088000Y-39878000D02*
X69088000Y-31242000D01*
D20*
%TO.N,Net-(C8-Pad1)*%
X54482000Y-31750000D02*
X54215000Y-31483000D01*
X57404000Y-31750000D02*
X54482000Y-31750000D01*
%TO.N,/RESET*%
X46228000Y-32004000D02*
X49022000Y-34798000D01*
X43688000Y-32004000D02*
X46228000Y-32004000D01*
X40219999Y-35647999D02*
X38862000Y-34290000D01*
X48172001Y-35647999D02*
X40219999Y-35647999D01*
X49022000Y-34798000D02*
X48172001Y-35647999D01*
%TO.N,/SCK*%
X51562000Y-34798000D02*
X51397412Y-34798000D01*
X51397412Y-34798000D02*
X42253412Y-25654000D01*
X42253412Y-25654000D02*
X41656000Y-25654000D01*
X41656000Y-25654000D02*
X41656000Y-25654000D01*
%TO.N,/MISO*%
X50951997Y-33622999D02*
X41656000Y-24327002D01*
X52926999Y-33622999D02*
X50951997Y-33622999D01*
X54102000Y-34798000D02*
X52926999Y-33622999D01*
X41656000Y-24327002D02*
X41656000Y-24130000D01*
%TO.N,Net-(R10-Pad2)*%
X72644000Y-23368000D02*
X72702672Y-23309328D01*
X72105672Y-23309328D02*
X70958000Y-24457000D01*
X72702672Y-23309328D02*
X72105672Y-23309328D01*
%TO.N,Net-(R11-Pad2)*%
X72898000Y-29972000D02*
X71374000Y-28448000D01*
X71374000Y-28448000D02*
X71374000Y-27940000D01*
%TO.N,/MS2*%
X50292000Y-30988000D02*
X52578000Y-28702000D01*
X52578000Y-28702000D02*
X52578000Y-28702000D01*
X55118000Y-26416000D02*
X55118000Y-25400000D01*
X55118000Y-25400000D02*
X55626000Y-24892000D01*
X55626000Y-24892000D02*
X55626000Y-24892000D01*
%TO.N,/MS1*%
X50857685Y-31750000D02*
X53340000Y-29267685D01*
X50292000Y-31750000D02*
X50857685Y-31750000D01*
X53340000Y-29267685D02*
X53340000Y-29267685D01*
X55880000Y-26727685D02*
X58321843Y-24285843D01*
X58321843Y-24285843D02*
X58420000Y-24187685D01*
%TO.N,/MOSI*%
X50386999Y-36162999D02*
X50386999Y-34423997D01*
X51562000Y-37338000D02*
X50386999Y-36162999D01*
X50386999Y-34423997D02*
X42887002Y-26924000D01*
X42887002Y-26924000D02*
X41402000Y-26924000D01*
X41402000Y-26924000D02*
X40640000Y-26162000D01*
X40640000Y-26162000D02*
X40640000Y-23368000D01*
X40640000Y-23368000D02*
X41148000Y-22860000D01*
X41148000Y-22860000D02*
X41148000Y-22860000D01*
%TO.N,/INDEX*%
X42856000Y-24454000D02*
X45854686Y-27452686D01*
X52852686Y-27452686D02*
X55118000Y-29718000D01*
X45854686Y-27452686D02*
X52852686Y-27452686D01*
%TO.N,/DIR*%
X46736000Y-26924000D02*
X43688000Y-23876000D01*
X56408003Y-29935001D02*
X53397002Y-26924000D01*
X53397002Y-26924000D02*
X46736000Y-26924000D01*
X64790997Y-29935001D02*
X56408003Y-29935001D01*
X65523999Y-29201999D02*
X64790997Y-29935001D01*
%TO.N,/STEP*%
X44450000Y-23114000D02*
X46482000Y-23114000D01*
X46482000Y-23114000D02*
X48006000Y-24638000D01*
X52266998Y-24638000D02*
X56896000Y-29267002D01*
X48006000Y-24638000D02*
X52266998Y-24638000D01*
X63438346Y-29267002D02*
X63495347Y-29210001D01*
X56896000Y-29267002D02*
X63438346Y-29267002D01*
D18*
%TO.N,/B1*%
X106796000Y-23316000D02*
X111962000Y-23316000D01*
X71428881Y-25438001D02*
X70939010Y-25438001D01*
X71466882Y-25400000D02*
X71428881Y-25438001D01*
X72136000Y-25400000D02*
X71466882Y-25400000D01*
X74220000Y-23316000D02*
X72136000Y-25400000D01*
X88848000Y-23316000D02*
X74220000Y-23316000D01*
%TO.N,/A1*%
X106796000Y-30936000D02*
X111876000Y-30936000D01*
X88848000Y-30936000D02*
X88900000Y-30988000D01*
X71953699Y-26655986D02*
X76233713Y-30936000D01*
X76233713Y-30936000D02*
X76252000Y-30936000D01*
X71388014Y-26655986D02*
X71953699Y-26655986D01*
X76252000Y-30936000D02*
X88848000Y-30936000D01*
%TO.N,/A2*%
X77470000Y-28448000D02*
X77522000Y-28396000D01*
X75184000Y-26162000D02*
X77470000Y-28448000D01*
X106796000Y-28396000D02*
X111876000Y-28396000D01*
X77470000Y-28448000D02*
X88900000Y-28448000D01*
%TO.N,/B2*%
X74168000Y-25596315D02*
X74618315Y-25146000D01*
X74168000Y-26162000D02*
X74168000Y-25596315D01*
X74618315Y-25146000D02*
X78486000Y-25146000D01*
X78486000Y-25146000D02*
X79248000Y-25908000D01*
X79248000Y-25908000D02*
X79300000Y-25856000D01*
X106796000Y-25856000D02*
X111876000Y-25856000D01*
X79248000Y-25908000D02*
X88900000Y-25908000D01*
D20*
%TO.N,Net-(S1-PadY)*%
X41331770Y-31279000D02*
X41693000Y-31279000D01*
X41693000Y-31279000D02*
X43724999Y-33310999D01*
X43988305Y-33310999D02*
X44962653Y-34285347D01*
X43724999Y-33310999D02*
X43988305Y-33310999D01*
%TO.N,Net-(S1-PadX)*%
X41656000Y-32004000D02*
X43688000Y-34036000D01*
X40386000Y-32004000D02*
X41656000Y-32004000D01*
%TD*%
D21*
%TO.N,GND*%
X118974000Y-16783381D02*
X118974001Y-39096618D01*
X116820620Y-41250000D01*
X70419082Y-41250000D01*
X70441556Y-41231556D01*
X70679613Y-40941482D01*
X70856506Y-40610539D01*
X70965436Y-40251445D01*
X71002217Y-39878000D01*
X70993000Y-39784418D01*
X70993000Y-36669017D01*
X79805530Y-36669017D01*
X79805530Y-36990983D01*
X79868342Y-37306763D01*
X79991553Y-37604222D01*
X80170428Y-37871927D01*
X80398093Y-38099592D01*
X80665798Y-38278467D01*
X80963257Y-38401678D01*
X81279037Y-38464490D01*
X81601003Y-38464490D01*
X81916783Y-38401678D01*
X82214242Y-38278467D01*
X82481947Y-38099592D01*
X82709612Y-37871927D01*
X82888487Y-37604222D01*
X83011698Y-37306763D01*
X83074510Y-36990983D01*
X83074510Y-36669017D01*
X83011698Y-36353237D01*
X82888487Y-36055778D01*
X82709612Y-35788073D01*
X82481947Y-35560408D01*
X82214242Y-35381533D01*
X81916783Y-35258322D01*
X81601003Y-35195510D01*
X81279037Y-35195510D01*
X80963257Y-35258322D01*
X80665798Y-35381533D01*
X80398093Y-35560408D01*
X80170428Y-35788073D01*
X79991553Y-36055778D01*
X79868342Y-36353237D01*
X79805530Y-36669017D01*
X70993000Y-36669017D01*
X70993000Y-35152637D01*
X98847910Y-35152637D01*
X98847910Y-35474603D01*
X98910722Y-35790383D01*
X99033933Y-36087842D01*
X99212808Y-36355547D01*
X99440473Y-36583212D01*
X99708178Y-36762087D01*
X100005637Y-36885298D01*
X100321417Y-36948110D01*
X100643383Y-36948110D01*
X100959163Y-36885298D01*
X101256622Y-36762087D01*
X101524327Y-36583212D01*
X101751992Y-36355547D01*
X101930867Y-36087842D01*
X102054078Y-35790383D01*
X102116890Y-35474603D01*
X102116890Y-35152637D01*
X102070997Y-34921913D01*
X104343200Y-34921913D01*
X104343200Y-35182087D01*
X104393957Y-35437263D01*
X104493522Y-35677634D01*
X104638067Y-35893961D01*
X104822039Y-36077933D01*
X105038366Y-36222478D01*
X105278737Y-36322043D01*
X105533913Y-36372800D01*
X105794087Y-36372800D01*
X106049263Y-36322043D01*
X106289634Y-36222478D01*
X106505961Y-36077933D01*
X106689933Y-35893961D01*
X106834478Y-35677634D01*
X106934043Y-35437263D01*
X106984800Y-35182087D01*
X106984800Y-34921913D01*
X107645200Y-34921913D01*
X107645200Y-35182087D01*
X107695957Y-35437263D01*
X107795522Y-35677634D01*
X107940067Y-35893961D01*
X108124039Y-36077933D01*
X108340366Y-36222478D01*
X108580737Y-36322043D01*
X108835913Y-36372800D01*
X109096087Y-36372800D01*
X109351263Y-36322043D01*
X109591634Y-36222478D01*
X109807961Y-36077933D01*
X109991933Y-35893961D01*
X110136478Y-35677634D01*
X110236043Y-35437263D01*
X110286800Y-35182087D01*
X110286800Y-34921913D01*
X110947200Y-34921913D01*
X110947200Y-35182087D01*
X110997957Y-35437263D01*
X111097522Y-35677634D01*
X111242067Y-35893961D01*
X111426039Y-36077933D01*
X111642366Y-36222478D01*
X111882737Y-36322043D01*
X112137913Y-36372800D01*
X112398087Y-36372800D01*
X112653263Y-36322043D01*
X112893634Y-36222478D01*
X113109961Y-36077933D01*
X113293933Y-35893961D01*
X113438478Y-35677634D01*
X113538043Y-35437263D01*
X113588800Y-35182087D01*
X113588800Y-34921913D01*
X114249200Y-34921913D01*
X114249200Y-35182087D01*
X114299957Y-35437263D01*
X114399522Y-35677634D01*
X114544067Y-35893961D01*
X114728039Y-36077933D01*
X114944366Y-36222478D01*
X115184737Y-36322043D01*
X115439913Y-36372800D01*
X115700087Y-36372800D01*
X115955263Y-36322043D01*
X116195634Y-36222478D01*
X116411961Y-36077933D01*
X116595933Y-35893961D01*
X116740478Y-35677634D01*
X116840043Y-35437263D01*
X116890800Y-35182087D01*
X116890800Y-34921913D01*
X116840043Y-34666737D01*
X116740478Y-34426366D01*
X116595933Y-34210039D01*
X116411961Y-34026067D01*
X116195634Y-33881522D01*
X115955263Y-33781957D01*
X115700087Y-33731200D01*
X115439913Y-33731200D01*
X115184737Y-33781957D01*
X114944366Y-33881522D01*
X114728039Y-34026067D01*
X114544067Y-34210039D01*
X114399522Y-34426366D01*
X114299957Y-34666737D01*
X114249200Y-34921913D01*
X113588800Y-34921913D01*
X113538043Y-34666737D01*
X113438478Y-34426366D01*
X113293933Y-34210039D01*
X113109961Y-34026067D01*
X112893634Y-33881522D01*
X112653263Y-33781957D01*
X112398087Y-33731200D01*
X112137913Y-33731200D01*
X111882737Y-33781957D01*
X111642366Y-33881522D01*
X111426039Y-34026067D01*
X111242067Y-34210039D01*
X111097522Y-34426366D01*
X110997957Y-34666737D01*
X110947200Y-34921913D01*
X110286800Y-34921913D01*
X110236043Y-34666737D01*
X110136478Y-34426366D01*
X109991933Y-34210039D01*
X109807961Y-34026067D01*
X109591634Y-33881522D01*
X109351263Y-33781957D01*
X109096087Y-33731200D01*
X108835913Y-33731200D01*
X108580737Y-33781957D01*
X108340366Y-33881522D01*
X108124039Y-34026067D01*
X107940067Y-34210039D01*
X107795522Y-34426366D01*
X107695957Y-34666737D01*
X107645200Y-34921913D01*
X106984800Y-34921913D01*
X106934043Y-34666737D01*
X106834478Y-34426366D01*
X106689933Y-34210039D01*
X106505961Y-34026067D01*
X106289634Y-33881522D01*
X106049263Y-33781957D01*
X105794087Y-33731200D01*
X105533913Y-33731200D01*
X105278737Y-33781957D01*
X105038366Y-33881522D01*
X104822039Y-34026067D01*
X104638067Y-34210039D01*
X104493522Y-34426366D01*
X104393957Y-34666737D01*
X104343200Y-34921913D01*
X102070997Y-34921913D01*
X102054078Y-34836857D01*
X101930867Y-34539398D01*
X101751992Y-34271693D01*
X101524327Y-34044028D01*
X101256622Y-33865153D01*
X100959163Y-33741942D01*
X100643383Y-33679130D01*
X100321417Y-33679130D01*
X100005637Y-33741942D01*
X99708178Y-33865153D01*
X99440473Y-34044028D01*
X99212808Y-34271693D01*
X99033933Y-34539398D01*
X98910722Y-34836857D01*
X98847910Y-35152637D01*
X70993000Y-35152637D01*
X70993000Y-29141801D01*
X71863000Y-30011802D01*
X71863000Y-30073939D01*
X71902774Y-30273898D01*
X71980795Y-30462256D01*
X72094063Y-30631774D01*
X72238226Y-30775937D01*
X72407744Y-30889205D01*
X72596102Y-30967226D01*
X72796061Y-31007000D01*
X72999939Y-31007000D01*
X73199898Y-30967226D01*
X73388256Y-30889205D01*
X73557774Y-30775937D01*
X73701937Y-30631774D01*
X73815205Y-30462256D01*
X73893226Y-30273898D01*
X73933000Y-30073939D01*
X73933000Y-30072128D01*
X75480005Y-31619133D01*
X75511817Y-31657896D01*
X75666523Y-31784860D01*
X75797775Y-31855015D01*
X75843026Y-31879202D01*
X76034542Y-31937298D01*
X76233713Y-31956915D01*
X76283615Y-31952000D01*
X88522716Y-31952000D01*
X88598102Y-31983226D01*
X88798061Y-32023000D01*
X89001939Y-32023000D01*
X89201898Y-31983226D01*
X89390256Y-31905205D01*
X89559774Y-31791937D01*
X89703937Y-31647774D01*
X89817205Y-31478256D01*
X89895226Y-31289898D01*
X89935000Y-31089939D01*
X89935000Y-30886061D01*
X89895226Y-30686102D01*
X89817205Y-30497744D01*
X89703937Y-30328226D01*
X89559774Y-30184063D01*
X89450428Y-30111000D01*
X105332928Y-30111000D01*
X105332928Y-31761000D01*
X105345188Y-31885482D01*
X105381498Y-32005180D01*
X105440463Y-32115494D01*
X105519815Y-32212185D01*
X105616506Y-32291537D01*
X105726820Y-32350502D01*
X105846518Y-32386812D01*
X105971000Y-32399072D01*
X107621000Y-32399072D01*
X107745482Y-32386812D01*
X107865180Y-32350502D01*
X107975494Y-32291537D01*
X108072185Y-32212185D01*
X108151537Y-32115494D01*
X108210502Y-32005180D01*
X108226634Y-31952000D01*
X110445366Y-31952000D01*
X110461498Y-32005180D01*
X110520463Y-32115494D01*
X110599815Y-32212185D01*
X110696506Y-32291537D01*
X110806820Y-32350502D01*
X110926518Y-32386812D01*
X111051000Y-32399072D01*
X112701000Y-32399072D01*
X112825482Y-32386812D01*
X112945180Y-32350502D01*
X113055494Y-32291537D01*
X113152185Y-32212185D01*
X113231537Y-32115494D01*
X113290502Y-32005180D01*
X113326812Y-31885482D01*
X113339072Y-31761000D01*
X113339072Y-30111000D01*
X113326812Y-29986518D01*
X113290502Y-29866820D01*
X113231537Y-29756506D01*
X113152185Y-29659815D01*
X113055494Y-29580463D01*
X112945180Y-29521498D01*
X112845494Y-29491258D01*
X113010056Y-29326696D01*
X113169835Y-29087569D01*
X113279893Y-28821866D01*
X113336000Y-28539797D01*
X113336000Y-28252203D01*
X113279893Y-27970134D01*
X113169835Y-27704431D01*
X113010056Y-27465304D01*
X112806696Y-27261944D01*
X112603241Y-27126000D01*
X112806696Y-26990056D01*
X113010056Y-26786696D01*
X113169835Y-26547569D01*
X113279893Y-26281866D01*
X113336000Y-25999797D01*
X113336000Y-25712203D01*
X113279893Y-25430134D01*
X113169835Y-25164431D01*
X113010056Y-24925304D01*
X112806696Y-24721944D01*
X112603241Y-24586000D01*
X112806696Y-24450056D01*
X113010056Y-24246696D01*
X113169835Y-24007569D01*
X113279893Y-23741866D01*
X113336000Y-23459797D01*
X113336000Y-23172203D01*
X113279893Y-22890134D01*
X113169835Y-22624431D01*
X113010056Y-22385304D01*
X112806696Y-22181944D01*
X112567569Y-22022165D01*
X112301866Y-21912107D01*
X112019797Y-21856000D01*
X111732203Y-21856000D01*
X111450134Y-21912107D01*
X111184431Y-22022165D01*
X110945304Y-22181944D01*
X110827248Y-22300000D01*
X107844752Y-22300000D01*
X107726696Y-22181944D01*
X107487569Y-22022165D01*
X107221866Y-21912107D01*
X106939797Y-21856000D01*
X106652203Y-21856000D01*
X106370134Y-21912107D01*
X106104431Y-22022165D01*
X105865304Y-22181944D01*
X105661944Y-22385304D01*
X105502165Y-22624431D01*
X105392107Y-22890134D01*
X105336000Y-23172203D01*
X105336000Y-23459797D01*
X105392107Y-23741866D01*
X105502165Y-24007569D01*
X105661944Y-24246696D01*
X105865304Y-24450056D01*
X106068759Y-24586000D01*
X105865304Y-24721944D01*
X105661944Y-24925304D01*
X105502165Y-25164431D01*
X105392107Y-25430134D01*
X105336000Y-25712203D01*
X105336000Y-25999797D01*
X105392107Y-26281866D01*
X105502165Y-26547569D01*
X105661944Y-26786696D01*
X105865304Y-26990056D01*
X106068759Y-27126000D01*
X105865304Y-27261944D01*
X105661944Y-27465304D01*
X105502165Y-27704431D01*
X105392107Y-27970134D01*
X105336000Y-28252203D01*
X105336000Y-28539797D01*
X105392107Y-28821866D01*
X105502165Y-29087569D01*
X105661944Y-29326696D01*
X105826506Y-29491258D01*
X105726820Y-29521498D01*
X105616506Y-29580463D01*
X105519815Y-29659815D01*
X105440463Y-29756506D01*
X105381498Y-29866820D01*
X105345188Y-29986518D01*
X105332928Y-30111000D01*
X89450428Y-30111000D01*
X89417258Y-30088837D01*
X89415190Y-30087140D01*
X89412831Y-30085879D01*
X89390256Y-30070795D01*
X89365170Y-30060404D01*
X89238687Y-29992798D01*
X89047171Y-29934702D01*
X88897902Y-29920000D01*
X88848000Y-29915085D01*
X88798098Y-29920000D01*
X76654554Y-29920000D01*
X73898155Y-27163602D01*
X74066061Y-27197000D01*
X74269939Y-27197000D01*
X74469898Y-27157226D01*
X74658256Y-27079205D01*
X74661918Y-27076758D01*
X76716292Y-29131133D01*
X76748104Y-29169896D01*
X76902810Y-29296860D01*
X77079313Y-29391202D01*
X77270829Y-29449298D01*
X77420098Y-29464000D01*
X77470000Y-29468915D01*
X77519902Y-29464000D01*
X88702541Y-29464000D01*
X88798061Y-29483000D01*
X89001939Y-29483000D01*
X89201898Y-29443226D01*
X89390256Y-29365205D01*
X89559774Y-29251937D01*
X89703937Y-29107774D01*
X89817205Y-28938256D01*
X89895226Y-28749898D01*
X89935000Y-28549939D01*
X89935000Y-28346061D01*
X89895226Y-28146102D01*
X89817205Y-27957744D01*
X89703937Y-27788226D01*
X89559774Y-27644063D01*
X89390256Y-27530795D01*
X89201898Y-27452774D01*
X89001939Y-27413000D01*
X88798061Y-27413000D01*
X88702541Y-27432000D01*
X77890841Y-27432000D01*
X76620840Y-26162000D01*
X78065160Y-26162000D01*
X78494292Y-26591133D01*
X78526104Y-26629896D01*
X78680810Y-26756860D01*
X78857311Y-26851201D01*
X78857313Y-26851202D01*
X79048829Y-26909298D01*
X79248000Y-26928915D01*
X79297902Y-26924000D01*
X88702541Y-26924000D01*
X88798061Y-26943000D01*
X89001939Y-26943000D01*
X89201898Y-26903226D01*
X89390256Y-26825205D01*
X89559774Y-26711937D01*
X89703937Y-26567774D01*
X89817205Y-26398256D01*
X89895226Y-26209898D01*
X89935000Y-26009939D01*
X89935000Y-25806061D01*
X89895226Y-25606102D01*
X89817205Y-25417744D01*
X89703937Y-25248226D01*
X89559774Y-25104063D01*
X89390256Y-24990795D01*
X89201898Y-24912774D01*
X89001939Y-24873000D01*
X88798061Y-24873000D01*
X88702541Y-24892000D01*
X79668841Y-24892000D01*
X79239712Y-24462872D01*
X79207896Y-24424104D01*
X79095667Y-24332000D01*
X88650541Y-24332000D01*
X88746061Y-24351000D01*
X88949939Y-24351000D01*
X89149898Y-24311226D01*
X89338256Y-24233205D01*
X89507774Y-24119937D01*
X89651937Y-23975774D01*
X89765205Y-23806256D01*
X89843226Y-23617898D01*
X89883000Y-23417939D01*
X89883000Y-23214061D01*
X89843226Y-23014102D01*
X89765205Y-22825744D01*
X89651937Y-22656226D01*
X89507774Y-22512063D01*
X89338256Y-22398795D01*
X89149898Y-22320774D01*
X88949939Y-22281000D01*
X88746061Y-22281000D01*
X88650541Y-22300000D01*
X74269901Y-22300000D01*
X74219999Y-22295085D01*
X74026921Y-22314102D01*
X74020829Y-22314702D01*
X73829313Y-22372798D01*
X73652810Y-22467140D01*
X73498104Y-22594104D01*
X73476943Y-22619888D01*
X73362446Y-22505391D01*
X73192928Y-22392123D01*
X73004570Y-22314102D01*
X72804611Y-22274328D01*
X72600733Y-22274328D01*
X72400774Y-22314102D01*
X72212416Y-22392123D01*
X72042898Y-22505391D01*
X71991381Y-22556908D01*
X71956686Y-22560325D01*
X71813425Y-22603782D01*
X71681396Y-22674354D01*
X71565671Y-22769327D01*
X71541873Y-22798325D01*
X70993000Y-23347199D01*
X70993000Y-23274418D01*
X70965436Y-22994555D01*
X70856506Y-22635461D01*
X70679613Y-22304518D01*
X70441556Y-22014444D01*
X70151482Y-21776387D01*
X69820539Y-21599494D01*
X69461445Y-21490564D01*
X69088000Y-21453783D01*
X68714556Y-21490564D01*
X68663034Y-21506193D01*
X66136046Y-18979206D01*
X66081937Y-18898226D01*
X65937774Y-18754063D01*
X65768256Y-18640795D01*
X65579898Y-18562774D01*
X65379939Y-18523000D01*
X65176061Y-18523000D01*
X64976102Y-18562774D01*
X64787744Y-18640795D01*
X64618226Y-18754063D01*
X64474063Y-18898226D01*
X64360795Y-19067744D01*
X64282774Y-19256102D01*
X64243000Y-19456061D01*
X64243000Y-19659939D01*
X64282774Y-19859898D01*
X64360795Y-20048256D01*
X64474063Y-20217774D01*
X64618226Y-20361937D01*
X64699206Y-20416046D01*
X67226194Y-22943034D01*
X67210565Y-22994555D01*
X67183001Y-23274418D01*
X67183000Y-27779581D01*
X67183001Y-27779591D01*
X67183000Y-31335581D01*
X67183001Y-31335591D01*
X67183000Y-37973000D01*
X55446327Y-37973000D01*
X55529932Y-37771158D01*
X55587000Y-37484260D01*
X55587000Y-37191740D01*
X55529932Y-36904842D01*
X55417990Y-36634589D01*
X55255475Y-36391368D01*
X55123620Y-36259513D01*
X55196180Y-36237502D01*
X55306494Y-36178537D01*
X55403185Y-36099185D01*
X55482537Y-36002494D01*
X55541502Y-35892180D01*
X55577812Y-35772482D01*
X55590072Y-35648000D01*
X55590072Y-33948000D01*
X55577812Y-33823518D01*
X55541502Y-33703820D01*
X55482537Y-33593506D01*
X55403185Y-33496815D01*
X55306494Y-33417463D01*
X55196180Y-33358498D01*
X55076482Y-33322188D01*
X54952000Y-33309928D01*
X53688729Y-33309928D01*
X53490803Y-33112002D01*
X53467000Y-33082998D01*
X53351275Y-32988025D01*
X53219246Y-32917453D01*
X53075985Y-32873996D01*
X52964332Y-32862999D01*
X52964321Y-32862999D01*
X52926999Y-32859323D01*
X52889677Y-32862999D01*
X51266799Y-32862999D01*
X50954755Y-32550956D01*
X51006724Y-32498987D01*
X51149932Y-32455546D01*
X51281961Y-32384974D01*
X51397686Y-32290001D01*
X51421489Y-32260997D01*
X53379802Y-30302685D01*
X53441939Y-30302685D01*
X53641898Y-30262911D01*
X53830256Y-30184890D01*
X53999774Y-30071622D01*
X54110949Y-29960447D01*
X54122774Y-30019898D01*
X54200795Y-30208256D01*
X54314063Y-30377774D01*
X54401012Y-30464723D01*
X54316939Y-30448000D01*
X54113061Y-30448000D01*
X53913102Y-30487774D01*
X53724744Y-30565795D01*
X53555226Y-30679063D01*
X53411063Y-30823226D01*
X53297795Y-30992744D01*
X53219774Y-31181102D01*
X53180000Y-31381061D01*
X53180000Y-31584939D01*
X53219774Y-31784898D01*
X53297795Y-31973256D01*
X53411063Y-32142774D01*
X53555226Y-32286937D01*
X53724744Y-32400205D01*
X53913102Y-32478226D01*
X54113061Y-32518000D01*
X54316939Y-32518000D01*
X54386139Y-32504235D01*
X54444667Y-32510000D01*
X54444677Y-32510000D01*
X54481999Y-32513676D01*
X54519322Y-32510000D01*
X56700289Y-32510000D01*
X56744226Y-32553937D01*
X56913744Y-32667205D01*
X57102102Y-32745226D01*
X57302061Y-32785000D01*
X57505939Y-32785000D01*
X57705898Y-32745226D01*
X57894256Y-32667205D01*
X58063774Y-32553937D01*
X58207937Y-32409774D01*
X58321205Y-32240256D01*
X58399226Y-32051898D01*
X58439000Y-31851939D01*
X58439000Y-31648061D01*
X58399226Y-31448102D01*
X58321205Y-31259744D01*
X58207937Y-31090226D01*
X58063774Y-30946063D01*
X57894256Y-30832795D01*
X57705898Y-30754774D01*
X57505939Y-30715000D01*
X57302061Y-30715000D01*
X57102102Y-30754774D01*
X56913744Y-30832795D01*
X56744226Y-30946063D01*
X56700289Y-30990000D01*
X55130372Y-30990000D01*
X55018937Y-30823226D01*
X54931988Y-30736277D01*
X55016061Y-30753000D01*
X55219939Y-30753000D01*
X55419898Y-30713226D01*
X55608256Y-30635205D01*
X55777774Y-30521937D01*
X55848488Y-30451223D01*
X55868002Y-30475002D01*
X55896995Y-30498796D01*
X55896999Y-30498800D01*
X55942083Y-30535799D01*
X55983727Y-30569975D01*
X56115756Y-30640547D01*
X56259017Y-30684004D01*
X56370670Y-30695001D01*
X56370679Y-30695001D01*
X56408002Y-30698677D01*
X56445325Y-30695001D01*
X64753675Y-30695001D01*
X64790997Y-30698677D01*
X64828319Y-30695001D01*
X64828330Y-30695001D01*
X64939983Y-30684004D01*
X65083244Y-30640547D01*
X65215273Y-30569975D01*
X65330998Y-30475002D01*
X65354800Y-30445999D01*
X65563800Y-30236999D01*
X65625938Y-30236999D01*
X65825897Y-30197225D01*
X66014255Y-30119204D01*
X66183773Y-30005936D01*
X66327936Y-29861773D01*
X66441204Y-29692255D01*
X66519225Y-29503897D01*
X66558999Y-29303938D01*
X66558999Y-29100060D01*
X66519225Y-28900101D01*
X66441204Y-28711743D01*
X66327936Y-28542225D01*
X66183773Y-28398062D01*
X66014255Y-28284794D01*
X65825897Y-28206773D01*
X65625938Y-28166999D01*
X65422060Y-28166999D01*
X65222101Y-28206773D01*
X65033743Y-28284794D01*
X64864225Y-28398062D01*
X64720062Y-28542225D01*
X64606794Y-28711743D01*
X64528773Y-28900101D01*
X64508877Y-29000125D01*
X64490573Y-28908103D01*
X64412552Y-28719745D01*
X64299284Y-28550227D01*
X64155121Y-28406064D01*
X63985603Y-28292796D01*
X63797245Y-28214775D01*
X63597286Y-28175001D01*
X63393408Y-28175001D01*
X63193449Y-28214775D01*
X63005091Y-28292796D01*
X62835573Y-28406064D01*
X62734635Y-28507002D01*
X57210803Y-28507002D01*
X56355007Y-27651206D01*
X56370256Y-27644890D01*
X56539774Y-27531622D01*
X56683937Y-27387459D01*
X56797205Y-27217941D01*
X56875226Y-27029583D01*
X56915000Y-26829624D01*
X56915000Y-26767486D01*
X58361645Y-25320843D01*
X58423782Y-25320843D01*
X58623741Y-25281069D01*
X58812099Y-25203048D01*
X58981617Y-25089780D01*
X59125780Y-24945617D01*
X59239048Y-24776099D01*
X59317069Y-24587741D01*
X59356843Y-24387782D01*
X59356843Y-24183904D01*
X59317069Y-23983945D01*
X59239048Y-23795587D01*
X59125780Y-23626069D01*
X58981617Y-23481906D01*
X58812099Y-23368638D01*
X58623741Y-23290617D01*
X58423782Y-23250843D01*
X58219904Y-23250843D01*
X58019945Y-23290617D01*
X57831587Y-23368638D01*
X57662069Y-23481906D01*
X57517906Y-23626069D01*
X57404638Y-23795587D01*
X57326617Y-23983945D01*
X57286843Y-24183904D01*
X57286843Y-24246041D01*
X56661000Y-24871884D01*
X56661000Y-24790061D01*
X56621226Y-24590102D01*
X56543205Y-24401744D01*
X56429937Y-24232226D01*
X56285774Y-24088063D01*
X56116256Y-23974795D01*
X55927898Y-23896774D01*
X55727939Y-23857000D01*
X55524061Y-23857000D01*
X55324102Y-23896774D01*
X55135744Y-23974795D01*
X54966226Y-24088063D01*
X54822063Y-24232226D01*
X54708795Y-24401744D01*
X54630774Y-24590102D01*
X54591000Y-24790061D01*
X54591000Y-24849330D01*
X54578000Y-24859999D01*
X54554202Y-24888997D01*
X54554201Y-24888998D01*
X54483026Y-24975724D01*
X54412454Y-25107754D01*
X54394551Y-25166774D01*
X54368998Y-25251014D01*
X54358091Y-25361753D01*
X54354324Y-25400000D01*
X54358001Y-25437332D01*
X54358001Y-25654201D01*
X52830802Y-24127003D01*
X52806999Y-24097999D01*
X52691274Y-24003026D01*
X52559245Y-23932454D01*
X52415984Y-23888997D01*
X52304331Y-23878000D01*
X52304320Y-23878000D01*
X52266998Y-23874324D01*
X52229676Y-23878000D01*
X48320803Y-23878000D01*
X47045803Y-22603002D01*
X47022001Y-22573999D01*
X46906276Y-22479026D01*
X46774247Y-22408454D01*
X46630986Y-22364997D01*
X46519333Y-22354000D01*
X46519322Y-22354000D01*
X46482000Y-22350324D01*
X46444678Y-22354000D01*
X45153711Y-22354000D01*
X45109774Y-22310063D01*
X44940256Y-22196795D01*
X44751898Y-22118774D01*
X44551939Y-22079000D01*
X44348061Y-22079000D01*
X44148102Y-22118774D01*
X43959744Y-22196795D01*
X43790226Y-22310063D01*
X43646063Y-22454226D01*
X43532795Y-22623744D01*
X43454774Y-22812102D01*
X43443381Y-22869381D01*
X43386102Y-22880774D01*
X43197744Y-22958795D01*
X43028226Y-23072063D01*
X42884063Y-23216226D01*
X42770795Y-23385744D01*
X42757020Y-23419000D01*
X42754061Y-23419000D01*
X42554102Y-23458774D01*
X42474356Y-23491806D01*
X42459937Y-23470226D01*
X42315774Y-23326063D01*
X42146256Y-23212795D01*
X42125675Y-23204270D01*
X42143226Y-23161898D01*
X42183000Y-22961939D01*
X42183000Y-22758061D01*
X42143226Y-22558102D01*
X42065205Y-22369744D01*
X41951937Y-22200226D01*
X41807774Y-22056063D01*
X41638256Y-21942795D01*
X41449898Y-21864774D01*
X41249939Y-21825000D01*
X41046061Y-21825000D01*
X40846102Y-21864774D01*
X40657744Y-21942795D01*
X40488226Y-22056063D01*
X40344063Y-22200226D01*
X40230795Y-22369744D01*
X40152774Y-22558102D01*
X40113000Y-22758061D01*
X40113000Y-22817330D01*
X40100000Y-22827999D01*
X40076202Y-22856997D01*
X40076201Y-22856998D01*
X40005026Y-22943724D01*
X39934454Y-23075754D01*
X39918910Y-23126998D01*
X39890998Y-23219014D01*
X39880001Y-23330667D01*
X39876324Y-23368000D01*
X39880001Y-23405332D01*
X39880000Y-26124677D01*
X39876324Y-26162000D01*
X39880000Y-26199322D01*
X39880000Y-26199332D01*
X39890997Y-26310985D01*
X39925821Y-26425787D01*
X39934454Y-26454246D01*
X40005026Y-26586276D01*
X40042348Y-26631753D01*
X40099999Y-26702001D01*
X40129002Y-26725803D01*
X40838201Y-27435002D01*
X40861999Y-27464001D01*
X40977724Y-27558974D01*
X41109753Y-27629546D01*
X41253014Y-27673003D01*
X41364667Y-27684000D01*
X41364675Y-27684000D01*
X41402000Y-27687676D01*
X41439325Y-27684000D01*
X42572201Y-27684000D01*
X46132200Y-31244000D01*
X44391711Y-31244000D01*
X44347774Y-31200063D01*
X44178256Y-31086795D01*
X43989898Y-31008774D01*
X43789939Y-30969000D01*
X43586061Y-30969000D01*
X43386102Y-31008774D01*
X43197744Y-31086795D01*
X43028226Y-31200063D01*
X42884063Y-31344226D01*
X42863621Y-31374820D01*
X42256804Y-30768003D01*
X42233001Y-30738999D01*
X42194775Y-30707628D01*
X42135707Y-30619226D01*
X41991544Y-30475063D01*
X41822026Y-30361795D01*
X41633668Y-30283774D01*
X41433709Y-30244000D01*
X41229831Y-30244000D01*
X41029872Y-30283774D01*
X40841514Y-30361795D01*
X40671996Y-30475063D01*
X40527833Y-30619226D01*
X40414565Y-30788744D01*
X40339900Y-30969000D01*
X40284061Y-30969000D01*
X40084102Y-31008774D01*
X39895744Y-31086795D01*
X39726226Y-31200063D01*
X39582063Y-31344226D01*
X39468795Y-31513744D01*
X39390774Y-31702102D01*
X39351000Y-31902061D01*
X39351000Y-32105939D01*
X39390774Y-32305898D01*
X39468795Y-32494256D01*
X39582063Y-32663774D01*
X39726226Y-32807937D01*
X39895744Y-32921205D01*
X40084102Y-32999226D01*
X40284061Y-33039000D01*
X40487939Y-33039000D01*
X40687898Y-32999226D01*
X40876256Y-32921205D01*
X41045774Y-32807937D01*
X41089711Y-32764000D01*
X41341199Y-32764000D01*
X42653000Y-34075802D01*
X42653000Y-34137939D01*
X42692774Y-34337898D01*
X42770795Y-34526256D01*
X42884063Y-34695774D01*
X43028226Y-34839937D01*
X43100156Y-34887999D01*
X40534801Y-34887999D01*
X39897000Y-34250199D01*
X39897000Y-34188061D01*
X39857226Y-33988102D01*
X39779205Y-33799744D01*
X39665937Y-33630226D01*
X39521774Y-33486063D01*
X39352256Y-33372795D01*
X39163898Y-33294774D01*
X38963939Y-33255000D01*
X38760061Y-33255000D01*
X38560102Y-33294774D01*
X38371744Y-33372795D01*
X38202226Y-33486063D01*
X38058063Y-33630226D01*
X37944795Y-33799744D01*
X37866774Y-33988102D01*
X37827000Y-34188061D01*
X37827000Y-34391939D01*
X37866774Y-34591898D01*
X37944795Y-34780256D01*
X38058063Y-34949774D01*
X38202226Y-35093937D01*
X38371744Y-35207205D01*
X38560102Y-35285226D01*
X38760061Y-35325000D01*
X38822199Y-35325000D01*
X39656200Y-36159002D01*
X39679998Y-36188000D01*
X39708996Y-36211798D01*
X39795723Y-36282973D01*
X39927752Y-36353545D01*
X40071013Y-36397002D01*
X40219999Y-36411676D01*
X40257332Y-36407999D01*
X47870671Y-36407999D01*
X47826822Y-36456645D01*
X47677843Y-36706748D01*
X47580519Y-36981109D01*
X47701186Y-37211000D01*
X48895000Y-37211000D01*
X48895000Y-37191000D01*
X49149000Y-37191000D01*
X49149000Y-37211000D01*
X49169000Y-37211000D01*
X49169000Y-37465000D01*
X49149000Y-37465000D01*
X49149000Y-37485000D01*
X48895000Y-37485000D01*
X48895000Y-37465000D01*
X47701186Y-37465000D01*
X47580519Y-37694891D01*
X47677843Y-37969252D01*
X47680076Y-37973000D01*
X25121566Y-37973000D01*
X25019000Y-37870435D01*
X25019000Y-37572772D01*
X25259381Y-37412154D01*
X25728154Y-36943381D01*
X26096467Y-36392162D01*
X26350166Y-35779680D01*
X26479500Y-35129473D01*
X26479500Y-34466527D01*
X26350166Y-33816320D01*
X26096467Y-33203838D01*
X25728154Y-32652619D01*
X25259381Y-32183846D01*
X24708162Y-31815533D01*
X24095680Y-31561834D01*
X23445473Y-31432500D01*
X22782527Y-31432500D01*
X22132320Y-31561834D01*
X21519838Y-31815533D01*
X20968619Y-32183846D01*
X20499846Y-32652619D01*
X20131533Y-33203838D01*
X19877834Y-33816320D01*
X19748500Y-34466527D01*
X19748500Y-35129473D01*
X19877834Y-35779680D01*
X20131533Y-36392162D01*
X20499846Y-36943381D01*
X20968619Y-37412154D01*
X21209001Y-37572772D01*
X21209001Y-38565921D01*
X21199783Y-38659510D01*
X21236565Y-39032955D01*
X21345495Y-39392049D01*
X21522387Y-39722992D01*
X21596884Y-39813766D01*
X21760445Y-40013066D01*
X21833140Y-40072725D01*
X22919274Y-41158860D01*
X22978934Y-41231556D01*
X23001408Y-41250000D01*
X20847381Y-41250000D01*
X18694000Y-39096620D01*
X18694000Y-30053062D01*
X20926543Y-30053062D01*
X21230385Y-30494639D01*
X21814517Y-30808147D01*
X22448586Y-31001672D01*
X23108228Y-31067778D01*
X23768091Y-31003925D01*
X24402817Y-30812565D01*
X24988016Y-30501054D01*
X24997615Y-30494639D01*
X25301457Y-30053062D01*
X23114000Y-27865605D01*
X20926543Y-30053062D01*
X18694000Y-30053062D01*
X18694000Y-27680228D01*
X19732222Y-27680228D01*
X19796075Y-28340091D01*
X19987435Y-28974817D01*
X20298946Y-29560016D01*
X20305361Y-29569615D01*
X20746938Y-29873457D01*
X22934395Y-27686000D01*
X23293605Y-27686000D01*
X25481062Y-29873457D01*
X25922639Y-29569615D01*
X26236147Y-28985483D01*
X26429672Y-28351414D01*
X26495778Y-27691772D01*
X26431925Y-27031909D01*
X26240565Y-26397183D01*
X25929054Y-25811984D01*
X25922639Y-25802385D01*
X25481062Y-25498543D01*
X23293605Y-27686000D01*
X22934395Y-27686000D01*
X20746938Y-25498543D01*
X20305361Y-25802385D01*
X19991853Y-26386517D01*
X19798328Y-27020586D01*
X19732222Y-27680228D01*
X18694000Y-27680228D01*
X18694000Y-25318938D01*
X20926543Y-25318938D01*
X23114000Y-27506395D01*
X25301457Y-25318938D01*
X24997615Y-24877361D01*
X24413483Y-24563853D01*
X23779414Y-24370328D01*
X23119772Y-24304222D01*
X22459909Y-24368075D01*
X21825183Y-24559435D01*
X21239984Y-24870946D01*
X21230385Y-24877361D01*
X20926543Y-25318938D01*
X18694000Y-25318938D01*
X18694000Y-18200000D01*
X79283928Y-18200000D01*
X79283928Y-19900000D01*
X79296188Y-20024482D01*
X79332498Y-20144180D01*
X79391463Y-20254494D01*
X79470815Y-20351185D01*
X79567506Y-20430537D01*
X79677820Y-20489502D01*
X79797518Y-20525812D01*
X79922000Y-20538072D01*
X81622000Y-20538072D01*
X81746482Y-20525812D01*
X81866180Y-20489502D01*
X81976494Y-20430537D01*
X82073185Y-20351185D01*
X82152537Y-20254494D01*
X82211502Y-20144180D01*
X82247812Y-20024482D01*
X82260072Y-19900000D01*
X82260072Y-18200000D01*
X82247812Y-18075518D01*
X82211502Y-17955820D01*
X82152537Y-17845506D01*
X82073185Y-17748815D01*
X81976494Y-17669463D01*
X81866180Y-17610498D01*
X81793620Y-17588487D01*
X81925475Y-17456632D01*
X82087990Y-17213411D01*
X82199932Y-16943158D01*
X82257000Y-16656260D01*
X82257000Y-16363740D01*
X82199932Y-16076842D01*
X82087990Y-15806589D01*
X81925475Y-15563368D01*
X81718632Y-15356525D01*
X81475411Y-15194010D01*
X81205158Y-15082068D01*
X80918260Y-15025000D01*
X80625740Y-15025000D01*
X80338842Y-15082068D01*
X80068589Y-15194010D01*
X79825368Y-15356525D01*
X79618525Y-15563368D01*
X79456010Y-15806589D01*
X79344068Y-16076842D01*
X79287000Y-16363740D01*
X79287000Y-16656260D01*
X79344068Y-16943158D01*
X79456010Y-17213411D01*
X79618525Y-17456632D01*
X79750380Y-17588487D01*
X79677820Y-17610498D01*
X79567506Y-17669463D01*
X79470815Y-17748815D01*
X79391463Y-17845506D01*
X79332498Y-17955820D01*
X79296188Y-18075518D01*
X79283928Y-18200000D01*
X18694000Y-18200000D01*
X18694000Y-16783380D01*
X20847381Y-14630000D01*
X116820620Y-14630000D01*
X118974000Y-16783381D01*
%TA.AperFunction,Conductor*%
D22*
G36*
X118974000Y-16783381D02*
G01*
X118974001Y-39096618D01*
X116820620Y-41250000D01*
X70419082Y-41250000D01*
X70441556Y-41231556D01*
X70679613Y-40941482D01*
X70856506Y-40610539D01*
X70965436Y-40251445D01*
X71002217Y-39878000D01*
X70993000Y-39784418D01*
X70993000Y-36669017D01*
X79805530Y-36669017D01*
X79805530Y-36990983D01*
X79868342Y-37306763D01*
X79991553Y-37604222D01*
X80170428Y-37871927D01*
X80398093Y-38099592D01*
X80665798Y-38278467D01*
X80963257Y-38401678D01*
X81279037Y-38464490D01*
X81601003Y-38464490D01*
X81916783Y-38401678D01*
X82214242Y-38278467D01*
X82481947Y-38099592D01*
X82709612Y-37871927D01*
X82888487Y-37604222D01*
X83011698Y-37306763D01*
X83074510Y-36990983D01*
X83074510Y-36669017D01*
X83011698Y-36353237D01*
X82888487Y-36055778D01*
X82709612Y-35788073D01*
X82481947Y-35560408D01*
X82214242Y-35381533D01*
X81916783Y-35258322D01*
X81601003Y-35195510D01*
X81279037Y-35195510D01*
X80963257Y-35258322D01*
X80665798Y-35381533D01*
X80398093Y-35560408D01*
X80170428Y-35788073D01*
X79991553Y-36055778D01*
X79868342Y-36353237D01*
X79805530Y-36669017D01*
X70993000Y-36669017D01*
X70993000Y-35152637D01*
X98847910Y-35152637D01*
X98847910Y-35474603D01*
X98910722Y-35790383D01*
X99033933Y-36087842D01*
X99212808Y-36355547D01*
X99440473Y-36583212D01*
X99708178Y-36762087D01*
X100005637Y-36885298D01*
X100321417Y-36948110D01*
X100643383Y-36948110D01*
X100959163Y-36885298D01*
X101256622Y-36762087D01*
X101524327Y-36583212D01*
X101751992Y-36355547D01*
X101930867Y-36087842D01*
X102054078Y-35790383D01*
X102116890Y-35474603D01*
X102116890Y-35152637D01*
X102070997Y-34921913D01*
X104343200Y-34921913D01*
X104343200Y-35182087D01*
X104393957Y-35437263D01*
X104493522Y-35677634D01*
X104638067Y-35893961D01*
X104822039Y-36077933D01*
X105038366Y-36222478D01*
X105278737Y-36322043D01*
X105533913Y-36372800D01*
X105794087Y-36372800D01*
X106049263Y-36322043D01*
X106289634Y-36222478D01*
X106505961Y-36077933D01*
X106689933Y-35893961D01*
X106834478Y-35677634D01*
X106934043Y-35437263D01*
X106984800Y-35182087D01*
X106984800Y-34921913D01*
X107645200Y-34921913D01*
X107645200Y-35182087D01*
X107695957Y-35437263D01*
X107795522Y-35677634D01*
X107940067Y-35893961D01*
X108124039Y-36077933D01*
X108340366Y-36222478D01*
X108580737Y-36322043D01*
X108835913Y-36372800D01*
X109096087Y-36372800D01*
X109351263Y-36322043D01*
X109591634Y-36222478D01*
X109807961Y-36077933D01*
X109991933Y-35893961D01*
X110136478Y-35677634D01*
X110236043Y-35437263D01*
X110286800Y-35182087D01*
X110286800Y-34921913D01*
X110947200Y-34921913D01*
X110947200Y-35182087D01*
X110997957Y-35437263D01*
X111097522Y-35677634D01*
X111242067Y-35893961D01*
X111426039Y-36077933D01*
X111642366Y-36222478D01*
X111882737Y-36322043D01*
X112137913Y-36372800D01*
X112398087Y-36372800D01*
X112653263Y-36322043D01*
X112893634Y-36222478D01*
X113109961Y-36077933D01*
X113293933Y-35893961D01*
X113438478Y-35677634D01*
X113538043Y-35437263D01*
X113588800Y-35182087D01*
X113588800Y-34921913D01*
X114249200Y-34921913D01*
X114249200Y-35182087D01*
X114299957Y-35437263D01*
X114399522Y-35677634D01*
X114544067Y-35893961D01*
X114728039Y-36077933D01*
X114944366Y-36222478D01*
X115184737Y-36322043D01*
X115439913Y-36372800D01*
X115700087Y-36372800D01*
X115955263Y-36322043D01*
X116195634Y-36222478D01*
X116411961Y-36077933D01*
X116595933Y-35893961D01*
X116740478Y-35677634D01*
X116840043Y-35437263D01*
X116890800Y-35182087D01*
X116890800Y-34921913D01*
X116840043Y-34666737D01*
X116740478Y-34426366D01*
X116595933Y-34210039D01*
X116411961Y-34026067D01*
X116195634Y-33881522D01*
X115955263Y-33781957D01*
X115700087Y-33731200D01*
X115439913Y-33731200D01*
X115184737Y-33781957D01*
X114944366Y-33881522D01*
X114728039Y-34026067D01*
X114544067Y-34210039D01*
X114399522Y-34426366D01*
X114299957Y-34666737D01*
X114249200Y-34921913D01*
X113588800Y-34921913D01*
X113538043Y-34666737D01*
X113438478Y-34426366D01*
X113293933Y-34210039D01*
X113109961Y-34026067D01*
X112893634Y-33881522D01*
X112653263Y-33781957D01*
X112398087Y-33731200D01*
X112137913Y-33731200D01*
X111882737Y-33781957D01*
X111642366Y-33881522D01*
X111426039Y-34026067D01*
X111242067Y-34210039D01*
X111097522Y-34426366D01*
X110997957Y-34666737D01*
X110947200Y-34921913D01*
X110286800Y-34921913D01*
X110236043Y-34666737D01*
X110136478Y-34426366D01*
X109991933Y-34210039D01*
X109807961Y-34026067D01*
X109591634Y-33881522D01*
X109351263Y-33781957D01*
X109096087Y-33731200D01*
X108835913Y-33731200D01*
X108580737Y-33781957D01*
X108340366Y-33881522D01*
X108124039Y-34026067D01*
X107940067Y-34210039D01*
X107795522Y-34426366D01*
X107695957Y-34666737D01*
X107645200Y-34921913D01*
X106984800Y-34921913D01*
X106934043Y-34666737D01*
X106834478Y-34426366D01*
X106689933Y-34210039D01*
X106505961Y-34026067D01*
X106289634Y-33881522D01*
X106049263Y-33781957D01*
X105794087Y-33731200D01*
X105533913Y-33731200D01*
X105278737Y-33781957D01*
X105038366Y-33881522D01*
X104822039Y-34026067D01*
X104638067Y-34210039D01*
X104493522Y-34426366D01*
X104393957Y-34666737D01*
X104343200Y-34921913D01*
X102070997Y-34921913D01*
X102054078Y-34836857D01*
X101930867Y-34539398D01*
X101751992Y-34271693D01*
X101524327Y-34044028D01*
X101256622Y-33865153D01*
X100959163Y-33741942D01*
X100643383Y-33679130D01*
X100321417Y-33679130D01*
X100005637Y-33741942D01*
X99708178Y-33865153D01*
X99440473Y-34044028D01*
X99212808Y-34271693D01*
X99033933Y-34539398D01*
X98910722Y-34836857D01*
X98847910Y-35152637D01*
X70993000Y-35152637D01*
X70993000Y-29141801D01*
X71863000Y-30011802D01*
X71863000Y-30073939D01*
X71902774Y-30273898D01*
X71980795Y-30462256D01*
X72094063Y-30631774D01*
X72238226Y-30775937D01*
X72407744Y-30889205D01*
X72596102Y-30967226D01*
X72796061Y-31007000D01*
X72999939Y-31007000D01*
X73199898Y-30967226D01*
X73388256Y-30889205D01*
X73557774Y-30775937D01*
X73701937Y-30631774D01*
X73815205Y-30462256D01*
X73893226Y-30273898D01*
X73933000Y-30073939D01*
X73933000Y-30072128D01*
X75480005Y-31619133D01*
X75511817Y-31657896D01*
X75666523Y-31784860D01*
X75797775Y-31855015D01*
X75843026Y-31879202D01*
X76034542Y-31937298D01*
X76233713Y-31956915D01*
X76283615Y-31952000D01*
X88522716Y-31952000D01*
X88598102Y-31983226D01*
X88798061Y-32023000D01*
X89001939Y-32023000D01*
X89201898Y-31983226D01*
X89390256Y-31905205D01*
X89559774Y-31791937D01*
X89703937Y-31647774D01*
X89817205Y-31478256D01*
X89895226Y-31289898D01*
X89935000Y-31089939D01*
X89935000Y-30886061D01*
X89895226Y-30686102D01*
X89817205Y-30497744D01*
X89703937Y-30328226D01*
X89559774Y-30184063D01*
X89450428Y-30111000D01*
X105332928Y-30111000D01*
X105332928Y-31761000D01*
X105345188Y-31885482D01*
X105381498Y-32005180D01*
X105440463Y-32115494D01*
X105519815Y-32212185D01*
X105616506Y-32291537D01*
X105726820Y-32350502D01*
X105846518Y-32386812D01*
X105971000Y-32399072D01*
X107621000Y-32399072D01*
X107745482Y-32386812D01*
X107865180Y-32350502D01*
X107975494Y-32291537D01*
X108072185Y-32212185D01*
X108151537Y-32115494D01*
X108210502Y-32005180D01*
X108226634Y-31952000D01*
X110445366Y-31952000D01*
X110461498Y-32005180D01*
X110520463Y-32115494D01*
X110599815Y-32212185D01*
X110696506Y-32291537D01*
X110806820Y-32350502D01*
X110926518Y-32386812D01*
X111051000Y-32399072D01*
X112701000Y-32399072D01*
X112825482Y-32386812D01*
X112945180Y-32350502D01*
X113055494Y-32291537D01*
X113152185Y-32212185D01*
X113231537Y-32115494D01*
X113290502Y-32005180D01*
X113326812Y-31885482D01*
X113339072Y-31761000D01*
X113339072Y-30111000D01*
X113326812Y-29986518D01*
X113290502Y-29866820D01*
X113231537Y-29756506D01*
X113152185Y-29659815D01*
X113055494Y-29580463D01*
X112945180Y-29521498D01*
X112845494Y-29491258D01*
X113010056Y-29326696D01*
X113169835Y-29087569D01*
X113279893Y-28821866D01*
X113336000Y-28539797D01*
X113336000Y-28252203D01*
X113279893Y-27970134D01*
X113169835Y-27704431D01*
X113010056Y-27465304D01*
X112806696Y-27261944D01*
X112603241Y-27126000D01*
X112806696Y-26990056D01*
X113010056Y-26786696D01*
X113169835Y-26547569D01*
X113279893Y-26281866D01*
X113336000Y-25999797D01*
X113336000Y-25712203D01*
X113279893Y-25430134D01*
X113169835Y-25164431D01*
X113010056Y-24925304D01*
X112806696Y-24721944D01*
X112603241Y-24586000D01*
X112806696Y-24450056D01*
X113010056Y-24246696D01*
X113169835Y-24007569D01*
X113279893Y-23741866D01*
X113336000Y-23459797D01*
X113336000Y-23172203D01*
X113279893Y-22890134D01*
X113169835Y-22624431D01*
X113010056Y-22385304D01*
X112806696Y-22181944D01*
X112567569Y-22022165D01*
X112301866Y-21912107D01*
X112019797Y-21856000D01*
X111732203Y-21856000D01*
X111450134Y-21912107D01*
X111184431Y-22022165D01*
X110945304Y-22181944D01*
X110827248Y-22300000D01*
X107844752Y-22300000D01*
X107726696Y-22181944D01*
X107487569Y-22022165D01*
X107221866Y-21912107D01*
X106939797Y-21856000D01*
X106652203Y-21856000D01*
X106370134Y-21912107D01*
X106104431Y-22022165D01*
X105865304Y-22181944D01*
X105661944Y-22385304D01*
X105502165Y-22624431D01*
X105392107Y-22890134D01*
X105336000Y-23172203D01*
X105336000Y-23459797D01*
X105392107Y-23741866D01*
X105502165Y-24007569D01*
X105661944Y-24246696D01*
X105865304Y-24450056D01*
X106068759Y-24586000D01*
X105865304Y-24721944D01*
X105661944Y-24925304D01*
X105502165Y-25164431D01*
X105392107Y-25430134D01*
X105336000Y-25712203D01*
X105336000Y-25999797D01*
X105392107Y-26281866D01*
X105502165Y-26547569D01*
X105661944Y-26786696D01*
X105865304Y-26990056D01*
X106068759Y-27126000D01*
X105865304Y-27261944D01*
X105661944Y-27465304D01*
X105502165Y-27704431D01*
X105392107Y-27970134D01*
X105336000Y-28252203D01*
X105336000Y-28539797D01*
X105392107Y-28821866D01*
X105502165Y-29087569D01*
X105661944Y-29326696D01*
X105826506Y-29491258D01*
X105726820Y-29521498D01*
X105616506Y-29580463D01*
X105519815Y-29659815D01*
X105440463Y-29756506D01*
X105381498Y-29866820D01*
X105345188Y-29986518D01*
X105332928Y-30111000D01*
X89450428Y-30111000D01*
X89417258Y-30088837D01*
X89415190Y-30087140D01*
X89412831Y-30085879D01*
X89390256Y-30070795D01*
X89365170Y-30060404D01*
X89238687Y-29992798D01*
X89047171Y-29934702D01*
X88897902Y-29920000D01*
X88848000Y-29915085D01*
X88798098Y-29920000D01*
X76654554Y-29920000D01*
X73898155Y-27163602D01*
X74066061Y-27197000D01*
X74269939Y-27197000D01*
X74469898Y-27157226D01*
X74658256Y-27079205D01*
X74661918Y-27076758D01*
X76716292Y-29131133D01*
X76748104Y-29169896D01*
X76902810Y-29296860D01*
X77079313Y-29391202D01*
X77270829Y-29449298D01*
X77420098Y-29464000D01*
X77470000Y-29468915D01*
X77519902Y-29464000D01*
X88702541Y-29464000D01*
X88798061Y-29483000D01*
X89001939Y-29483000D01*
X89201898Y-29443226D01*
X89390256Y-29365205D01*
X89559774Y-29251937D01*
X89703937Y-29107774D01*
X89817205Y-28938256D01*
X89895226Y-28749898D01*
X89935000Y-28549939D01*
X89935000Y-28346061D01*
X89895226Y-28146102D01*
X89817205Y-27957744D01*
X89703937Y-27788226D01*
X89559774Y-27644063D01*
X89390256Y-27530795D01*
X89201898Y-27452774D01*
X89001939Y-27413000D01*
X88798061Y-27413000D01*
X88702541Y-27432000D01*
X77890841Y-27432000D01*
X76620840Y-26162000D01*
X78065160Y-26162000D01*
X78494292Y-26591133D01*
X78526104Y-26629896D01*
X78680810Y-26756860D01*
X78857311Y-26851201D01*
X78857313Y-26851202D01*
X79048829Y-26909298D01*
X79248000Y-26928915D01*
X79297902Y-26924000D01*
X88702541Y-26924000D01*
X88798061Y-26943000D01*
X89001939Y-26943000D01*
X89201898Y-26903226D01*
X89390256Y-26825205D01*
X89559774Y-26711937D01*
X89703937Y-26567774D01*
X89817205Y-26398256D01*
X89895226Y-26209898D01*
X89935000Y-26009939D01*
X89935000Y-25806061D01*
X89895226Y-25606102D01*
X89817205Y-25417744D01*
X89703937Y-25248226D01*
X89559774Y-25104063D01*
X89390256Y-24990795D01*
X89201898Y-24912774D01*
X89001939Y-24873000D01*
X88798061Y-24873000D01*
X88702541Y-24892000D01*
X79668841Y-24892000D01*
X79239712Y-24462872D01*
X79207896Y-24424104D01*
X79095667Y-24332000D01*
X88650541Y-24332000D01*
X88746061Y-24351000D01*
X88949939Y-24351000D01*
X89149898Y-24311226D01*
X89338256Y-24233205D01*
X89507774Y-24119937D01*
X89651937Y-23975774D01*
X89765205Y-23806256D01*
X89843226Y-23617898D01*
X89883000Y-23417939D01*
X89883000Y-23214061D01*
X89843226Y-23014102D01*
X89765205Y-22825744D01*
X89651937Y-22656226D01*
X89507774Y-22512063D01*
X89338256Y-22398795D01*
X89149898Y-22320774D01*
X88949939Y-22281000D01*
X88746061Y-22281000D01*
X88650541Y-22300000D01*
X74269901Y-22300000D01*
X74219999Y-22295085D01*
X74026921Y-22314102D01*
X74020829Y-22314702D01*
X73829313Y-22372798D01*
X73652810Y-22467140D01*
X73498104Y-22594104D01*
X73476943Y-22619888D01*
X73362446Y-22505391D01*
X73192928Y-22392123D01*
X73004570Y-22314102D01*
X72804611Y-22274328D01*
X72600733Y-22274328D01*
X72400774Y-22314102D01*
X72212416Y-22392123D01*
X72042898Y-22505391D01*
X71991381Y-22556908D01*
X71956686Y-22560325D01*
X71813425Y-22603782D01*
X71681396Y-22674354D01*
X71565671Y-22769327D01*
X71541873Y-22798325D01*
X70993000Y-23347199D01*
X70993000Y-23274418D01*
X70965436Y-22994555D01*
X70856506Y-22635461D01*
X70679613Y-22304518D01*
X70441556Y-22014444D01*
X70151482Y-21776387D01*
X69820539Y-21599494D01*
X69461445Y-21490564D01*
X69088000Y-21453783D01*
X68714556Y-21490564D01*
X68663034Y-21506193D01*
X66136046Y-18979206D01*
X66081937Y-18898226D01*
X65937774Y-18754063D01*
X65768256Y-18640795D01*
X65579898Y-18562774D01*
X65379939Y-18523000D01*
X65176061Y-18523000D01*
X64976102Y-18562774D01*
X64787744Y-18640795D01*
X64618226Y-18754063D01*
X64474063Y-18898226D01*
X64360795Y-19067744D01*
X64282774Y-19256102D01*
X64243000Y-19456061D01*
X64243000Y-19659939D01*
X64282774Y-19859898D01*
X64360795Y-20048256D01*
X64474063Y-20217774D01*
X64618226Y-20361937D01*
X64699206Y-20416046D01*
X67226194Y-22943034D01*
X67210565Y-22994555D01*
X67183001Y-23274418D01*
X67183000Y-27779581D01*
X67183001Y-27779591D01*
X67183000Y-31335581D01*
X67183001Y-31335591D01*
X67183000Y-37973000D01*
X55446327Y-37973000D01*
X55529932Y-37771158D01*
X55587000Y-37484260D01*
X55587000Y-37191740D01*
X55529932Y-36904842D01*
X55417990Y-36634589D01*
X55255475Y-36391368D01*
X55123620Y-36259513D01*
X55196180Y-36237502D01*
X55306494Y-36178537D01*
X55403185Y-36099185D01*
X55482537Y-36002494D01*
X55541502Y-35892180D01*
X55577812Y-35772482D01*
X55590072Y-35648000D01*
X55590072Y-33948000D01*
X55577812Y-33823518D01*
X55541502Y-33703820D01*
X55482537Y-33593506D01*
X55403185Y-33496815D01*
X55306494Y-33417463D01*
X55196180Y-33358498D01*
X55076482Y-33322188D01*
X54952000Y-33309928D01*
X53688729Y-33309928D01*
X53490803Y-33112002D01*
X53467000Y-33082998D01*
X53351275Y-32988025D01*
X53219246Y-32917453D01*
X53075985Y-32873996D01*
X52964332Y-32862999D01*
X52964321Y-32862999D01*
X52926999Y-32859323D01*
X52889677Y-32862999D01*
X51266799Y-32862999D01*
X50954755Y-32550956D01*
X51006724Y-32498987D01*
X51149932Y-32455546D01*
X51281961Y-32384974D01*
X51397686Y-32290001D01*
X51421489Y-32260997D01*
X53379802Y-30302685D01*
X53441939Y-30302685D01*
X53641898Y-30262911D01*
X53830256Y-30184890D01*
X53999774Y-30071622D01*
X54110949Y-29960447D01*
X54122774Y-30019898D01*
X54200795Y-30208256D01*
X54314063Y-30377774D01*
X54401012Y-30464723D01*
X54316939Y-30448000D01*
X54113061Y-30448000D01*
X53913102Y-30487774D01*
X53724744Y-30565795D01*
X53555226Y-30679063D01*
X53411063Y-30823226D01*
X53297795Y-30992744D01*
X53219774Y-31181102D01*
X53180000Y-31381061D01*
X53180000Y-31584939D01*
X53219774Y-31784898D01*
X53297795Y-31973256D01*
X53411063Y-32142774D01*
X53555226Y-32286937D01*
X53724744Y-32400205D01*
X53913102Y-32478226D01*
X54113061Y-32518000D01*
X54316939Y-32518000D01*
X54386139Y-32504235D01*
X54444667Y-32510000D01*
X54444677Y-32510000D01*
X54481999Y-32513676D01*
X54519322Y-32510000D01*
X56700289Y-32510000D01*
X56744226Y-32553937D01*
X56913744Y-32667205D01*
X57102102Y-32745226D01*
X57302061Y-32785000D01*
X57505939Y-32785000D01*
X57705898Y-32745226D01*
X57894256Y-32667205D01*
X58063774Y-32553937D01*
X58207937Y-32409774D01*
X58321205Y-32240256D01*
X58399226Y-32051898D01*
X58439000Y-31851939D01*
X58439000Y-31648061D01*
X58399226Y-31448102D01*
X58321205Y-31259744D01*
X58207937Y-31090226D01*
X58063774Y-30946063D01*
X57894256Y-30832795D01*
X57705898Y-30754774D01*
X57505939Y-30715000D01*
X57302061Y-30715000D01*
X57102102Y-30754774D01*
X56913744Y-30832795D01*
X56744226Y-30946063D01*
X56700289Y-30990000D01*
X55130372Y-30990000D01*
X55018937Y-30823226D01*
X54931988Y-30736277D01*
X55016061Y-30753000D01*
X55219939Y-30753000D01*
X55419898Y-30713226D01*
X55608256Y-30635205D01*
X55777774Y-30521937D01*
X55848488Y-30451223D01*
X55868002Y-30475002D01*
X55896995Y-30498796D01*
X55896999Y-30498800D01*
X55942083Y-30535799D01*
X55983727Y-30569975D01*
X56115756Y-30640547D01*
X56259017Y-30684004D01*
X56370670Y-30695001D01*
X56370679Y-30695001D01*
X56408002Y-30698677D01*
X56445325Y-30695001D01*
X64753675Y-30695001D01*
X64790997Y-30698677D01*
X64828319Y-30695001D01*
X64828330Y-30695001D01*
X64939983Y-30684004D01*
X65083244Y-30640547D01*
X65215273Y-30569975D01*
X65330998Y-30475002D01*
X65354800Y-30445999D01*
X65563800Y-30236999D01*
X65625938Y-30236999D01*
X65825897Y-30197225D01*
X66014255Y-30119204D01*
X66183773Y-30005936D01*
X66327936Y-29861773D01*
X66441204Y-29692255D01*
X66519225Y-29503897D01*
X66558999Y-29303938D01*
X66558999Y-29100060D01*
X66519225Y-28900101D01*
X66441204Y-28711743D01*
X66327936Y-28542225D01*
X66183773Y-28398062D01*
X66014255Y-28284794D01*
X65825897Y-28206773D01*
X65625938Y-28166999D01*
X65422060Y-28166999D01*
X65222101Y-28206773D01*
X65033743Y-28284794D01*
X64864225Y-28398062D01*
X64720062Y-28542225D01*
X64606794Y-28711743D01*
X64528773Y-28900101D01*
X64508877Y-29000125D01*
X64490573Y-28908103D01*
X64412552Y-28719745D01*
X64299284Y-28550227D01*
X64155121Y-28406064D01*
X63985603Y-28292796D01*
X63797245Y-28214775D01*
X63597286Y-28175001D01*
X63393408Y-28175001D01*
X63193449Y-28214775D01*
X63005091Y-28292796D01*
X62835573Y-28406064D01*
X62734635Y-28507002D01*
X57210803Y-28507002D01*
X56355007Y-27651206D01*
X56370256Y-27644890D01*
X56539774Y-27531622D01*
X56683937Y-27387459D01*
X56797205Y-27217941D01*
X56875226Y-27029583D01*
X56915000Y-26829624D01*
X56915000Y-26767486D01*
X58361645Y-25320843D01*
X58423782Y-25320843D01*
X58623741Y-25281069D01*
X58812099Y-25203048D01*
X58981617Y-25089780D01*
X59125780Y-24945617D01*
X59239048Y-24776099D01*
X59317069Y-24587741D01*
X59356843Y-24387782D01*
X59356843Y-24183904D01*
X59317069Y-23983945D01*
X59239048Y-23795587D01*
X59125780Y-23626069D01*
X58981617Y-23481906D01*
X58812099Y-23368638D01*
X58623741Y-23290617D01*
X58423782Y-23250843D01*
X58219904Y-23250843D01*
X58019945Y-23290617D01*
X57831587Y-23368638D01*
X57662069Y-23481906D01*
X57517906Y-23626069D01*
X57404638Y-23795587D01*
X57326617Y-23983945D01*
X57286843Y-24183904D01*
X57286843Y-24246041D01*
X56661000Y-24871884D01*
X56661000Y-24790061D01*
X56621226Y-24590102D01*
X56543205Y-24401744D01*
X56429937Y-24232226D01*
X56285774Y-24088063D01*
X56116256Y-23974795D01*
X55927898Y-23896774D01*
X55727939Y-23857000D01*
X55524061Y-23857000D01*
X55324102Y-23896774D01*
X55135744Y-23974795D01*
X54966226Y-24088063D01*
X54822063Y-24232226D01*
X54708795Y-24401744D01*
X54630774Y-24590102D01*
X54591000Y-24790061D01*
X54591000Y-24849330D01*
X54578000Y-24859999D01*
X54554202Y-24888997D01*
X54554201Y-24888998D01*
X54483026Y-24975724D01*
X54412454Y-25107754D01*
X54394551Y-25166774D01*
X54368998Y-25251014D01*
X54358091Y-25361753D01*
X54354324Y-25400000D01*
X54358001Y-25437332D01*
X54358001Y-25654201D01*
X52830802Y-24127003D01*
X52806999Y-24097999D01*
X52691274Y-24003026D01*
X52559245Y-23932454D01*
X52415984Y-23888997D01*
X52304331Y-23878000D01*
X52304320Y-23878000D01*
X52266998Y-23874324D01*
X52229676Y-23878000D01*
X48320803Y-23878000D01*
X47045803Y-22603002D01*
X47022001Y-22573999D01*
X46906276Y-22479026D01*
X46774247Y-22408454D01*
X46630986Y-22364997D01*
X46519333Y-22354000D01*
X46519322Y-22354000D01*
X46482000Y-22350324D01*
X46444678Y-22354000D01*
X45153711Y-22354000D01*
X45109774Y-22310063D01*
X44940256Y-22196795D01*
X44751898Y-22118774D01*
X44551939Y-22079000D01*
X44348061Y-22079000D01*
X44148102Y-22118774D01*
X43959744Y-22196795D01*
X43790226Y-22310063D01*
X43646063Y-22454226D01*
X43532795Y-22623744D01*
X43454774Y-22812102D01*
X43443381Y-22869381D01*
X43386102Y-22880774D01*
X43197744Y-22958795D01*
X43028226Y-23072063D01*
X42884063Y-23216226D01*
X42770795Y-23385744D01*
X42757020Y-23419000D01*
X42754061Y-23419000D01*
X42554102Y-23458774D01*
X42474356Y-23491806D01*
X42459937Y-23470226D01*
X42315774Y-23326063D01*
X42146256Y-23212795D01*
X42125675Y-23204270D01*
X42143226Y-23161898D01*
X42183000Y-22961939D01*
X42183000Y-22758061D01*
X42143226Y-22558102D01*
X42065205Y-22369744D01*
X41951937Y-22200226D01*
X41807774Y-22056063D01*
X41638256Y-21942795D01*
X41449898Y-21864774D01*
X41249939Y-21825000D01*
X41046061Y-21825000D01*
X40846102Y-21864774D01*
X40657744Y-21942795D01*
X40488226Y-22056063D01*
X40344063Y-22200226D01*
X40230795Y-22369744D01*
X40152774Y-22558102D01*
X40113000Y-22758061D01*
X40113000Y-22817330D01*
X40100000Y-22827999D01*
X40076202Y-22856997D01*
X40076201Y-22856998D01*
X40005026Y-22943724D01*
X39934454Y-23075754D01*
X39918910Y-23126998D01*
X39890998Y-23219014D01*
X39880001Y-23330667D01*
X39876324Y-23368000D01*
X39880001Y-23405332D01*
X39880000Y-26124677D01*
X39876324Y-26162000D01*
X39880000Y-26199322D01*
X39880000Y-26199332D01*
X39890997Y-26310985D01*
X39925821Y-26425787D01*
X39934454Y-26454246D01*
X40005026Y-26586276D01*
X40042348Y-26631753D01*
X40099999Y-26702001D01*
X40129002Y-26725803D01*
X40838201Y-27435002D01*
X40861999Y-27464001D01*
X40977724Y-27558974D01*
X41109753Y-27629546D01*
X41253014Y-27673003D01*
X41364667Y-27684000D01*
X41364675Y-27684000D01*
X41402000Y-27687676D01*
X41439325Y-27684000D01*
X42572201Y-27684000D01*
X46132200Y-31244000D01*
X44391711Y-31244000D01*
X44347774Y-31200063D01*
X44178256Y-31086795D01*
X43989898Y-31008774D01*
X43789939Y-30969000D01*
X43586061Y-30969000D01*
X43386102Y-31008774D01*
X43197744Y-31086795D01*
X43028226Y-31200063D01*
X42884063Y-31344226D01*
X42863621Y-31374820D01*
X42256804Y-30768003D01*
X42233001Y-30738999D01*
X42194775Y-30707628D01*
X42135707Y-30619226D01*
X41991544Y-30475063D01*
X41822026Y-30361795D01*
X41633668Y-30283774D01*
X41433709Y-30244000D01*
X41229831Y-30244000D01*
X41029872Y-30283774D01*
X40841514Y-30361795D01*
X40671996Y-30475063D01*
X40527833Y-30619226D01*
X40414565Y-30788744D01*
X40339900Y-30969000D01*
X40284061Y-30969000D01*
X40084102Y-31008774D01*
X39895744Y-31086795D01*
X39726226Y-31200063D01*
X39582063Y-31344226D01*
X39468795Y-31513744D01*
X39390774Y-31702102D01*
X39351000Y-31902061D01*
X39351000Y-32105939D01*
X39390774Y-32305898D01*
X39468795Y-32494256D01*
X39582063Y-32663774D01*
X39726226Y-32807937D01*
X39895744Y-32921205D01*
X40084102Y-32999226D01*
X40284061Y-33039000D01*
X40487939Y-33039000D01*
X40687898Y-32999226D01*
X40876256Y-32921205D01*
X41045774Y-32807937D01*
X41089711Y-32764000D01*
X41341199Y-32764000D01*
X42653000Y-34075802D01*
X42653000Y-34137939D01*
X42692774Y-34337898D01*
X42770795Y-34526256D01*
X42884063Y-34695774D01*
X43028226Y-34839937D01*
X43100156Y-34887999D01*
X40534801Y-34887999D01*
X39897000Y-34250199D01*
X39897000Y-34188061D01*
X39857226Y-33988102D01*
X39779205Y-33799744D01*
X39665937Y-33630226D01*
X39521774Y-33486063D01*
X39352256Y-33372795D01*
X39163898Y-33294774D01*
X38963939Y-33255000D01*
X38760061Y-33255000D01*
X38560102Y-33294774D01*
X38371744Y-33372795D01*
X38202226Y-33486063D01*
X38058063Y-33630226D01*
X37944795Y-33799744D01*
X37866774Y-33988102D01*
X37827000Y-34188061D01*
X37827000Y-34391939D01*
X37866774Y-34591898D01*
X37944795Y-34780256D01*
X38058063Y-34949774D01*
X38202226Y-35093937D01*
X38371744Y-35207205D01*
X38560102Y-35285226D01*
X38760061Y-35325000D01*
X38822199Y-35325000D01*
X39656200Y-36159002D01*
X39679998Y-36188000D01*
X39708996Y-36211798D01*
X39795723Y-36282973D01*
X39927752Y-36353545D01*
X40071013Y-36397002D01*
X40219999Y-36411676D01*
X40257332Y-36407999D01*
X47870671Y-36407999D01*
X47826822Y-36456645D01*
X47677843Y-36706748D01*
X47580519Y-36981109D01*
X47701186Y-37211000D01*
X48895000Y-37211000D01*
X48895000Y-37191000D01*
X49149000Y-37191000D01*
X49149000Y-37211000D01*
X49169000Y-37211000D01*
X49169000Y-37465000D01*
X49149000Y-37465000D01*
X49149000Y-37485000D01*
X48895000Y-37485000D01*
X48895000Y-37465000D01*
X47701186Y-37465000D01*
X47580519Y-37694891D01*
X47677843Y-37969252D01*
X47680076Y-37973000D01*
X25121566Y-37973000D01*
X25019000Y-37870435D01*
X25019000Y-37572772D01*
X25259381Y-37412154D01*
X25728154Y-36943381D01*
X26096467Y-36392162D01*
X26350166Y-35779680D01*
X26479500Y-35129473D01*
X26479500Y-34466527D01*
X26350166Y-33816320D01*
X26096467Y-33203838D01*
X25728154Y-32652619D01*
X25259381Y-32183846D01*
X24708162Y-31815533D01*
X24095680Y-31561834D01*
X23445473Y-31432500D01*
X22782527Y-31432500D01*
X22132320Y-31561834D01*
X21519838Y-31815533D01*
X20968619Y-32183846D01*
X20499846Y-32652619D01*
X20131533Y-33203838D01*
X19877834Y-33816320D01*
X19748500Y-34466527D01*
X19748500Y-35129473D01*
X19877834Y-35779680D01*
X20131533Y-36392162D01*
X20499846Y-36943381D01*
X20968619Y-37412154D01*
X21209001Y-37572772D01*
X21209001Y-38565921D01*
X21199783Y-38659510D01*
X21236565Y-39032955D01*
X21345495Y-39392049D01*
X21522387Y-39722992D01*
X21596884Y-39813766D01*
X21760445Y-40013066D01*
X21833140Y-40072725D01*
X22919274Y-41158860D01*
X22978934Y-41231556D01*
X23001408Y-41250000D01*
X20847381Y-41250000D01*
X18694000Y-39096620D01*
X18694000Y-30053062D01*
X20926543Y-30053062D01*
X21230385Y-30494639D01*
X21814517Y-30808147D01*
X22448586Y-31001672D01*
X23108228Y-31067778D01*
X23768091Y-31003925D01*
X24402817Y-30812565D01*
X24988016Y-30501054D01*
X24997615Y-30494639D01*
X25301457Y-30053062D01*
X23114000Y-27865605D01*
X20926543Y-30053062D01*
X18694000Y-30053062D01*
X18694000Y-27680228D01*
X19732222Y-27680228D01*
X19796075Y-28340091D01*
X19987435Y-28974817D01*
X20298946Y-29560016D01*
X20305361Y-29569615D01*
X20746938Y-29873457D01*
X22934395Y-27686000D01*
X23293605Y-27686000D01*
X25481062Y-29873457D01*
X25922639Y-29569615D01*
X26236147Y-28985483D01*
X26429672Y-28351414D01*
X26495778Y-27691772D01*
X26431925Y-27031909D01*
X26240565Y-26397183D01*
X25929054Y-25811984D01*
X25922639Y-25802385D01*
X25481062Y-25498543D01*
X23293605Y-27686000D01*
X22934395Y-27686000D01*
X20746938Y-25498543D01*
X20305361Y-25802385D01*
X19991853Y-26386517D01*
X19798328Y-27020586D01*
X19732222Y-27680228D01*
X18694000Y-27680228D01*
X18694000Y-25318938D01*
X20926543Y-25318938D01*
X23114000Y-27506395D01*
X25301457Y-25318938D01*
X24997615Y-24877361D01*
X24413483Y-24563853D01*
X23779414Y-24370328D01*
X23119772Y-24304222D01*
X22459909Y-24368075D01*
X21825183Y-24559435D01*
X21239984Y-24870946D01*
X21230385Y-24877361D01*
X20926543Y-25318938D01*
X18694000Y-25318938D01*
X18694000Y-18200000D01*
X79283928Y-18200000D01*
X79283928Y-19900000D01*
X79296188Y-20024482D01*
X79332498Y-20144180D01*
X79391463Y-20254494D01*
X79470815Y-20351185D01*
X79567506Y-20430537D01*
X79677820Y-20489502D01*
X79797518Y-20525812D01*
X79922000Y-20538072D01*
X81622000Y-20538072D01*
X81746482Y-20525812D01*
X81866180Y-20489502D01*
X81976494Y-20430537D01*
X82073185Y-20351185D01*
X82152537Y-20254494D01*
X82211502Y-20144180D01*
X82247812Y-20024482D01*
X82260072Y-19900000D01*
X82260072Y-18200000D01*
X82247812Y-18075518D01*
X82211502Y-17955820D01*
X82152537Y-17845506D01*
X82073185Y-17748815D01*
X81976494Y-17669463D01*
X81866180Y-17610498D01*
X81793620Y-17588487D01*
X81925475Y-17456632D01*
X82087990Y-17213411D01*
X82199932Y-16943158D01*
X82257000Y-16656260D01*
X82257000Y-16363740D01*
X82199932Y-16076842D01*
X82087990Y-15806589D01*
X81925475Y-15563368D01*
X81718632Y-15356525D01*
X81475411Y-15194010D01*
X81205158Y-15082068D01*
X80918260Y-15025000D01*
X80625740Y-15025000D01*
X80338842Y-15082068D01*
X80068589Y-15194010D01*
X79825368Y-15356525D01*
X79618525Y-15563368D01*
X79456010Y-15806589D01*
X79344068Y-16076842D01*
X79287000Y-16363740D01*
X79287000Y-16656260D01*
X79344068Y-16943158D01*
X79456010Y-17213411D01*
X79618525Y-17456632D01*
X79750380Y-17588487D01*
X79677820Y-17610498D01*
X79567506Y-17669463D01*
X79470815Y-17748815D01*
X79391463Y-17845506D01*
X79332498Y-17955820D01*
X79296188Y-18075518D01*
X79283928Y-18200000D01*
X18694000Y-18200000D01*
X18694000Y-16783380D01*
X20847381Y-14630000D01*
X116820620Y-14630000D01*
X118974000Y-16783381D01*
G37*
%TD.AperFunction*%
%TD*%
M02*
