M48
; DRILL file {KiCad 5.1.8-db9833491~88~ubuntu20.04.1} date Mon Dec 21 08:33:50 2020
; FORMAT={-:-/ absolute / inch / decimal}
; #@! TF.CreationDate,2020-12-21T08:33:50-06:00
; #@! TF.GenerationSoftware,Kicad,Pcbnew,5.1.8-db9833491~88~ubuntu20.04.1
; #@! TF.FileFunction,Plated,1,2,PTH
FMAT,2
INCH
T1C0.0157
T2C0.0394
T3C0.0400
T4C0.0433
T5C0.0450
T6C0.1500
%
G90
G05
T1
X0.99Y-0.89
X0.99Y-0.89
X1.25Y-1.02
X1.2952Y-1.2952
X1.31Y-0.82
X1.3302Y-1.0198
X1.34Y-0.62
X1.53Y-1.35
X1.59Y-1.26
X1.62Y-0.9
X1.6272Y-1.2315
X1.64Y-0.95
X1.64Y-1.01
X1.6872Y-0.9628
X1.72Y-0.94
X1.72Y-1.26
X1.72Y-1.34
X1.75Y-0.91
X1.7702Y-1.3498
X1.78Y-0.75
X1.92Y-0.67
X1.94Y-0.89
X1.94Y-0.94
X1.98Y-1.22
X1.98Y-1.25
X2.07Y-1.13
X2.1Y-1.1523
X2.1344Y-1.2395
X2.17Y-1.04
X2.17Y-1.17
X2.19Y-0.98
X2.2Y-1.0523
X2.26Y-1.25
X2.2961Y-0.9561
X2.31Y-1.2071
X2.4998Y-1.15
X2.53Y-0.98
X2.53Y-1.03
X2.57Y-0.77
X2.5797Y-1.1497
X2.58Y-1.28
X2.59Y-0.98
X2.59Y-1.03
X2.67Y-0.69
X2.69Y-1.22
X2.79Y-1.0
X2.7936Y-0.9629
X2.81Y-1.1
X2.8106Y-1.0494
X2.8623Y-0.9177
X2.87Y-1.18
X2.92Y-1.03
X2.96Y-1.03
X3.05Y-0.86
X3.07Y-1.27
X3.09Y-1.42
X3.25Y-1.29
X3.4Y-0.59
X3.498Y-0.918
X3.5Y-1.02
X3.5Y-1.12
X3.5Y-1.22
T2
X1.93Y-1.37
X1.93Y-1.47
X2.03Y-1.37
X2.03Y-1.47
X2.13Y-1.37
X2.13Y-1.47
X3.18Y-0.65
X3.18Y-0.75
T3
X2.26Y-0.8
X4.16Y-1.38
X4.29Y-1.38
X4.42Y-1.38
X4.55Y-1.38
T4
X4.2046Y-0.918
X4.2046Y-1.018
X4.2046Y-1.118
X4.2046Y-1.218
X4.4046Y-0.918
X4.4046Y-1.018
X4.4046Y-1.118
X4.4046Y-1.218
T5
X2.72Y-0.92
X2.72Y-1.57
X2.74Y-1.09
T6
X0.91Y-1.09
X0.91Y-1.37
T0
M30
