%TF.GenerationSoftware,KiCad,Pcbnew,5.1.8-db9833491~88~ubuntu20.04.1*%
%TF.CreationDate,2020-12-21T09:27:26-06:00*%
%TF.ProjectId,main,6d61696e-2e6b-4696-9361-645f70636258,rev?*%
%TF.SameCoordinates,Original*%
%TF.FileFunction,Legend,Bot*%
%TF.FilePolarity,Positive*%
%FSLAX46Y46*%
G04 Gerber Fmt 4.6, Leading zero omitted, Abs format (unit mm)*
G04 Created by KiCad (PCBNEW 5.1.8-db9833491~88~ubuntu20.04.1) date 2020-12-21 09:27:26*
%MOMM*%
%LPD*%
G01*
G04 APERTURE LIST*
%ADD10C,0.150000*%
G04 APERTURE END LIST*
D10*
X113585714Y-30900666D02*
X114061904Y-30900666D01*
X113490476Y-31186380D02*
X113823809Y-30186380D01*
X114157142Y-31186380D01*
X115014285Y-31186380D02*
X114442857Y-31186380D01*
X114728571Y-31186380D02*
X114728571Y-30186380D01*
X114633333Y-30329238D01*
X114538095Y-30424476D01*
X114442857Y-30472095D01*
X113585714Y-28614666D02*
X114061904Y-28614666D01*
X113490476Y-28900380D02*
X113823809Y-27900380D01*
X114157142Y-28900380D01*
X114442857Y-27995619D02*
X114490476Y-27948000D01*
X114585714Y-27900380D01*
X114823809Y-27900380D01*
X114919047Y-27948000D01*
X114966666Y-27995619D01*
X115014285Y-28090857D01*
X115014285Y-28186095D01*
X114966666Y-28328952D01*
X114395238Y-28900380D01*
X115014285Y-28900380D01*
X113895238Y-25836571D02*
X114038095Y-25884190D01*
X114085714Y-25931809D01*
X114133333Y-26027047D01*
X114133333Y-26169904D01*
X114085714Y-26265142D01*
X114038095Y-26312761D01*
X113942857Y-26360380D01*
X113561904Y-26360380D01*
X113561904Y-25360380D01*
X113895238Y-25360380D01*
X113990476Y-25408000D01*
X114038095Y-25455619D01*
X114085714Y-25550857D01*
X114085714Y-25646095D01*
X114038095Y-25741333D01*
X113990476Y-25788952D01*
X113895238Y-25836571D01*
X113561904Y-25836571D01*
X114514285Y-25455619D02*
X114561904Y-25408000D01*
X114657142Y-25360380D01*
X114895238Y-25360380D01*
X114990476Y-25408000D01*
X115038095Y-25455619D01*
X115085714Y-25550857D01*
X115085714Y-25646095D01*
X115038095Y-25788952D01*
X114466666Y-26360380D01*
X115085714Y-26360380D01*
X113895238Y-23296571D02*
X114038095Y-23344190D01*
X114085714Y-23391809D01*
X114133333Y-23487047D01*
X114133333Y-23629904D01*
X114085714Y-23725142D01*
X114038095Y-23772761D01*
X113942857Y-23820380D01*
X113561904Y-23820380D01*
X113561904Y-22820380D01*
X113895238Y-22820380D01*
X113990476Y-22868000D01*
X114038095Y-22915619D01*
X114085714Y-23010857D01*
X114085714Y-23106095D01*
X114038095Y-23201333D01*
X113990476Y-23248952D01*
X113895238Y-23296571D01*
X113561904Y-23296571D01*
X115085714Y-23820380D02*
X114514285Y-23820380D01*
X114800000Y-23820380D02*
X114800000Y-22820380D01*
X114704761Y-22963238D01*
X114609523Y-23058476D01*
X114514285Y-23106095D01*
M02*
