G04 Layer_Color=32896*
%FSLAX25Y25*%
%MOIN*%
G70*
G01*
G75*
%ADD36C,0.00984*%
%ADD37C,0.00787*%
%ADD38C,0.00500*%
%ADD60C,0.00600*%
%ADD61C,0.00300*%
G36*
X371000Y175954D02*
X370000D01*
Y177454D01*
X371000D01*
Y175954D01*
D02*
G37*
G36*
X339200Y178514D02*
X338200D01*
Y180014D01*
X339200D01*
Y178514D01*
D02*
G37*
D36*
X488764Y195355D02*
G03*
X488764Y195355I-492J0D01*
G01*
D37*
X466618Y201792D02*
X472130D01*
Y160454D02*
Y201792D01*
X466618Y160454D02*
X472130D01*
X500047Y163548D02*
Y166698D01*
X505953Y163548D02*
Y166698D01*
X387213Y193001D02*
X388787D01*
X387213Y190245D02*
X388787D01*
D38*
X504501Y155899D02*
X505000Y156399D01*
X506000D01*
X506500Y155899D01*
Y153900D01*
X506000Y153400D01*
X505000D01*
X504501Y153900D01*
X503501Y153400D02*
X502501D01*
X503001D01*
Y156399D01*
X503501Y155899D01*
X501002Y153400D02*
X500002D01*
X500502D01*
Y156399D01*
X501002Y155899D01*
X390600Y194700D02*
Y197699D01*
X389101D01*
X388601Y197199D01*
Y196200D01*
X389101Y195700D01*
X390600D01*
X389600D02*
X388601Y194700D01*
X385602D02*
X387601D01*
X385602Y196699D01*
Y197199D01*
X386102Y197699D01*
X387101D01*
X387601Y197199D01*
X430500Y204701D02*
Y206700D01*
X431500Y207700D01*
X432499Y206700D01*
Y204701D01*
X433499Y207700D02*
Y204701D01*
X434999D01*
X435498Y205201D01*
Y206201D01*
X434999Y206700D01*
X433499D01*
X434499D02*
X435498Y207700D01*
X436498D02*
X437498D01*
X436998D01*
Y204701D01*
X436498Y205201D01*
X345000Y198899D02*
Y196400D01*
X344500Y195900D01*
X343500D01*
X343001Y196400D01*
Y198899D01*
X342001Y195900D02*
X341001D01*
X341501D01*
Y198899D01*
X342001Y198399D01*
D60*
X363950Y153075D02*
Y154222D01*
X345250Y192657D02*
X363950D01*
Y191510D02*
Y192657D01*
X345250Y153075D02*
X363950D01*
X345250D02*
Y154222D01*
Y191510D02*
Y192657D01*
D61*
X341250Y151166D02*
X344582Y154499D01*
X341250D02*
X344582Y151166D01*
X341250Y152832D02*
X344582D01*
X342916Y154499D02*
Y151166D01*
M02*
