G04 Layer_Color=128*
%FSLAX25Y25*%
%MOIN*%
G70*
G01*
G75*
%ADD10R,0.06693X0.04331*%
%ADD12R,0.02756X0.03543*%
%ADD29R,0.09449X0.04134*%
%ADD30R,0.35039X0.41929*%
%ADD31R,0.06600X0.01400*%
%ADD32R,0.12205X0.20394*%
G36*
X354206Y168161D02*
X348891D01*
Y172472D01*
X354206D01*
Y168161D01*
D02*
G37*
G36*
X360309D02*
X354994D01*
Y172472D01*
X360309D01*
Y168161D01*
D02*
G37*
G36*
X354206Y163063D02*
X348891D01*
Y167374D01*
X354206D01*
Y163063D01*
D02*
G37*
G36*
X360309D02*
X354994D01*
Y167374D01*
X360309D01*
Y163063D01*
D02*
G37*
G36*
X354206Y178358D02*
X348891D01*
Y182669D01*
X354206D01*
Y178358D01*
D02*
G37*
G36*
X360309D02*
X354994D01*
Y182669D01*
X360309D01*
Y178358D01*
D02*
G37*
G36*
X354206Y173259D02*
X348891D01*
Y177571D01*
X354206D01*
Y173259D01*
D02*
G37*
G36*
X360309D02*
X354994D01*
Y177571D01*
X360309D01*
Y173259D01*
D02*
G37*
D10*
X503000Y170438D02*
D03*
Y159808D02*
D03*
D12*
X390953Y191623D02*
D03*
X385047D02*
D03*
D29*
X488272Y191123D02*
D03*
Y171123D02*
D03*
D30*
X447524Y181123D02*
D03*
D31*
X343500Y156232D02*
D03*
Y158791D02*
D03*
Y161350D02*
D03*
Y163909D02*
D03*
Y166468D02*
D03*
Y169027D02*
D03*
Y171586D02*
D03*
Y174145D02*
D03*
Y176705D02*
D03*
Y179264D02*
D03*
Y181823D02*
D03*
Y184382D02*
D03*
Y186941D02*
D03*
Y189500D02*
D03*
X365700D02*
D03*
Y186941D02*
D03*
Y184382D02*
D03*
Y181823D02*
D03*
Y179264D02*
D03*
Y176705D02*
D03*
Y174145D02*
D03*
Y171586D02*
D03*
Y169027D02*
D03*
Y166468D02*
D03*
Y163909D02*
D03*
Y161350D02*
D03*
Y158791D02*
D03*
Y156232D02*
D03*
D32*
X354600Y172866D02*
D03*
M02*
