M48
;Layer_Color=9474304
;FILE_FORMAT=2:5
INCH,LZ
;TYPE=PLATED
T1F00S00C0.02000
T2F00S00C0.02500
T3F00S00C0.02756
T4F00S00C0.03543
T5F00S00C0.12500
T6F00S00C0.16500
%
T01
X03319Y01695
T02
X0333Y0139123
X03335Y0149623
X03565Y0149123
X03823Y01344
X03912Y01345
X0477Y01555
X04876Y01465
X04961Y01912
X0453Y01568
X04275Y0169123
X0423575Y0166623
X04165
X04115Y0167123
X0406Y0161623
X04195Y0170123
X0427Y0178123
X04275Y0182123
X04235Y0184123
X0421Y0187623
X0423575Y0200198
X0408Y0200123
X0405Y0195123
X03969Y01962
X03755Y0190623
X03745Y0182623
X0377Y0159123
X03345Y01625
X03155Y0161123
X0318Y0180623
X03315Y01805
X03355Y01893
X03349Y01955
X03195Y0203123
T03
X0377Y0153123
X0397
T04
X04175Y0137623
X04275
X04375
Y0147623
X04275
X04175
X04215Y0214123
X04115
X03025Y0188623
Y0178623
Y0168623
Y0158623
T05
X03006Y01296
X05833
X05832Y02128
X03008Y02129
T06
X05565Y01573
Y01838
M30
