G04 Layer_Color=8388736*
%FSLAX25Y25*%
%MOIN*%
G70*
G01*
G75*
%ADD41R,0.07493X0.05131*%
%ADD42R,0.05131X0.07493*%
%ADD43R,0.03556X0.04343*%
%ADD44R,0.04343X0.03556*%
%ADD45R,0.06312X0.05131*%
%ADD46O,0.02965X0.07296*%
%ADD47O,0.07296X0.02965*%
%ADD48C,0.06800*%
%ADD49C,0.22800*%
%ADD50C,0.06706*%
%ADD51R,0.06706X0.06706*%
%ADD52C,0.05524*%
%ADD53R,0.06706X0.06706*%
%ADD54R,0.15367X0.04737*%
%ADD55R,0.04737X0.15367*%
%ADD56C,0.03800*%
%ADD57C,0.03300*%
D41*
X340000Y149938D02*
D03*
Y139308D02*
D03*
X349500D02*
D03*
Y149938D02*
D03*
X392500Y171308D02*
D03*
Y181938D02*
D03*
D42*
X329815Y155623D02*
D03*
X319185D02*
D03*
X329815Y187623D02*
D03*
X319185D02*
D03*
X329815Y196123D02*
D03*
X319185D02*
D03*
D43*
X356047Y139123D02*
D03*
X361953D02*
D03*
X322047Y164623D02*
D03*
X327953D02*
D03*
X322047Y170123D02*
D03*
X327953D02*
D03*
X322047Y177123D02*
D03*
X327953D02*
D03*
X455953Y137623D02*
D03*
X450047D02*
D03*
D44*
X371000Y188076D02*
D03*
Y182170D02*
D03*
D45*
X397000Y134670D02*
D03*
Y140576D02*
D03*
X377000Y134670D02*
D03*
Y140576D02*
D03*
D46*
X410976Y193659D02*
D03*
X414126D02*
D03*
X417276D02*
D03*
X420425D02*
D03*
X423575D02*
D03*
X426724D02*
D03*
X429874D02*
D03*
X433024D02*
D03*
Y160588D02*
D03*
X429874D02*
D03*
X426724D02*
D03*
X423575D02*
D03*
X420425D02*
D03*
X417276D02*
D03*
X414126D02*
D03*
X410976D02*
D03*
D47*
X438535Y188147D02*
D03*
Y184997D02*
D03*
Y181848D02*
D03*
Y178698D02*
D03*
Y175548D02*
D03*
Y172399D02*
D03*
Y169249D02*
D03*
Y166100D02*
D03*
X405465D02*
D03*
Y169249D02*
D03*
Y172399D02*
D03*
Y175548D02*
D03*
Y178698D02*
D03*
Y181848D02*
D03*
Y184997D02*
D03*
Y188147D02*
D03*
D48*
X300600Y129600D02*
D03*
X583300D02*
D03*
X300800Y212900D02*
D03*
X583200Y212800D02*
D03*
D49*
X556500Y183800D02*
D03*
Y157300D02*
D03*
D50*
X411500Y214123D02*
D03*
X437500Y147623D02*
D03*
Y137623D02*
D03*
X427500Y147623D02*
D03*
Y137623D02*
D03*
X417500Y147623D02*
D03*
X302500Y178623D02*
D03*
Y168623D02*
D03*
Y158623D02*
D03*
D51*
X421500Y214123D02*
D03*
X417500Y137623D02*
D03*
D52*
X397000Y153123D02*
D03*
X377000D02*
D03*
D53*
X302500Y188623D02*
D03*
D54*
X523500Y186123D02*
D03*
Y171123D02*
D03*
Y178623D02*
D03*
D55*
X480000Y134623D02*
D03*
X472500D02*
D03*
X487500D02*
D03*
D56*
X496100Y191200D02*
D03*
X396900Y196200D02*
D03*
X391200Y134500D02*
D03*
X382300Y134400D02*
D03*
X406000Y161623D02*
D03*
X419500Y170123D02*
D03*
X416500Y166623D02*
D03*
X411500Y167123D02*
D03*
X375500Y190623D02*
D03*
X427500Y182123D02*
D03*
X423500Y184123D02*
D03*
X427000Y178123D02*
D03*
X423575Y166623D02*
D03*
X427500Y169123D02*
D03*
X377000Y159123D02*
D03*
X374500Y182623D02*
D03*
X421000Y187623D02*
D03*
X423575Y200198D02*
D03*
X408000Y200123D02*
D03*
X333000Y139123D02*
D03*
X333500Y149623D02*
D03*
X315500Y161123D02*
D03*
X477000Y155500D02*
D03*
X319500Y203123D02*
D03*
X318000Y180623D02*
D03*
X356500Y149123D02*
D03*
X405000Y195123D02*
D03*
X331500Y180500D02*
D03*
X334500Y162500D02*
D03*
X334900Y195500D02*
D03*
X335500Y189300D02*
D03*
X453000Y156800D02*
D03*
X487600Y146500D02*
D03*
D57*
X331900Y169500D02*
D03*
M02*
