G04 Layer_Color=255*
%FSLAX25Y25*%
%MOIN*%
G70*
G01*
G75*
%ADD10R,0.06693X0.04331*%
%ADD12R,0.02756X0.03543*%
%ADD19C,0.06000*%
%ADD20C,0.22000*%
%ADD21C,0.05905*%
%ADD22R,0.05905X0.05905*%
%ADD23C,0.04724*%
%ADD24R,0.05905X0.05905*%
%ADD25R,0.14567X0.03937*%
%ADD26R,0.03937X0.14567*%
%ADD29R,0.09449X0.04134*%
%ADD30R,0.35039X0.41929*%
%ADD31R,0.06600X0.01400*%
%ADD32R,0.12205X0.20394*%
D10*
X503000Y170438D02*
D03*
Y159808D02*
D03*
D12*
X390953Y191623D02*
D03*
X385047D02*
D03*
D19*
X300600Y129600D02*
D03*
X583300D02*
D03*
X300800Y212900D02*
D03*
X583200Y212800D02*
D03*
D20*
X556500Y183800D02*
D03*
Y157300D02*
D03*
D21*
X411500Y214123D02*
D03*
X437500Y147623D02*
D03*
Y137623D02*
D03*
X427500Y147623D02*
D03*
Y137623D02*
D03*
X417500Y147623D02*
D03*
X302500Y178623D02*
D03*
Y168623D02*
D03*
Y158623D02*
D03*
D22*
X421500Y214123D02*
D03*
X417500Y137623D02*
D03*
D23*
X397000Y153123D02*
D03*
X377000D02*
D03*
D24*
X302500Y188623D02*
D03*
D25*
X523500Y186123D02*
D03*
Y171123D02*
D03*
Y178623D02*
D03*
D26*
X480000Y134623D02*
D03*
X472500D02*
D03*
X487500D02*
D03*
D29*
X488272Y191123D02*
D03*
Y171123D02*
D03*
D30*
X447524Y181123D02*
D03*
D31*
X343500Y156232D02*
D03*
Y158791D02*
D03*
Y161350D02*
D03*
Y163909D02*
D03*
Y166468D02*
D03*
Y169027D02*
D03*
Y171586D02*
D03*
Y174145D02*
D03*
Y176705D02*
D03*
Y179264D02*
D03*
Y181823D02*
D03*
Y184382D02*
D03*
Y186941D02*
D03*
Y189500D02*
D03*
X365700D02*
D03*
Y186941D02*
D03*
Y184382D02*
D03*
Y181823D02*
D03*
Y179264D02*
D03*
Y176705D02*
D03*
Y174145D02*
D03*
Y171586D02*
D03*
Y169027D02*
D03*
Y166468D02*
D03*
Y163909D02*
D03*
Y161350D02*
D03*
Y158791D02*
D03*
Y156232D02*
D03*
D32*
X354600Y172866D02*
D03*
M02*
