G04 Layer_Color=65535*
%FSLAX25Y25*%
%MOIN*%
G70*
G01*
G75*
%ADD17C,0.01000*%
%ADD34C,0.00394*%
%ADD35C,0.02362*%
%ADD36C,0.00984*%
%ADD37C,0.00787*%
%ADD38C,0.00500*%
%ADD39C,0.00330*%
%ADD40C,0.00800*%
D17*
X497500Y178123D02*
G03*
X497500Y178123I-17500J0D01*
G01*
X339400Y197500D02*
X383000D01*
X339400D02*
Y218100D01*
X383200D01*
Y197500D02*
Y218100D01*
X538000Y148300D02*
X550000Y136300D01*
X562500D01*
X575000Y148800D01*
Y205800D01*
X538000D02*
X575000D01*
X538000Y148300D02*
Y205800D01*
X468000Y190623D02*
X492000D01*
X492500Y190123D01*
Y166123D02*
Y190123D01*
X464500Y170623D02*
X495000D01*
Y187123D01*
X471500Y163123D02*
X488500D01*
X468000Y165623D02*
X492000D01*
X466000Y168123D02*
X494000D01*
X463500Y173123D02*
X496500D01*
X463000Y175623D02*
X497000D01*
X471500Y193123D02*
X488500D01*
X466000Y188123D02*
X494000D01*
X464500Y185623D02*
X495500D01*
X463500Y183123D02*
X496500D01*
X463000Y180623D02*
X497000D01*
X462500Y178123D02*
X497500D01*
X465000Y169623D02*
Y186623D01*
X467500Y166123D02*
Y190123D01*
X470000Y164123D02*
Y192123D01*
X472500Y162623D02*
Y193623D01*
X475000Y161623D02*
Y194623D01*
X477500Y161123D02*
Y195123D01*
X490000Y164123D02*
Y192123D01*
X487500Y162623D02*
Y193623D01*
X485000Y161623D02*
Y194623D01*
X482500Y161123D02*
Y195123D01*
X480000Y160623D02*
Y195623D01*
X445000Y158123D02*
Y198123D01*
Y158123D02*
X460000Y143123D01*
X500000D01*
X445000Y198123D02*
X460000Y213123D01*
X500000D01*
X515000Y158123D02*
Y198123D01*
X500000Y213123D02*
X515000Y198123D01*
X500000Y143123D02*
X515000Y158123D01*
X538550Y209250D02*
Y215248D01*
X541549D01*
X542549Y214248D01*
Y212249D01*
X541549Y211249D01*
X538550D01*
X548547Y209250D02*
X544548D01*
X548547Y213249D01*
Y214248D01*
X547547Y215248D01*
X545548D01*
X544548Y214248D01*
X297500Y145623D02*
Y151621D01*
X300499D01*
X301499Y150621D01*
Y148622D01*
X300499Y147623D01*
X297500D01*
X303498Y145623D02*
X305497D01*
X304498D01*
Y151621D01*
X303498Y150621D01*
X414000Y124123D02*
Y130121D01*
X416999D01*
X417999Y129121D01*
Y127122D01*
X416999Y126122D01*
X414000D01*
X419998Y129121D02*
X420998Y130121D01*
X422997D01*
X423997Y129121D01*
Y128122D01*
X422997Y127122D01*
X421997D01*
X422997D01*
X423997Y126122D01*
Y125123D01*
X422997Y124123D01*
X420998D01*
X419998Y125123D01*
X394700Y211400D02*
Y217398D01*
X397699D01*
X398699Y216398D01*
Y214399D01*
X397699Y213399D01*
X394700D01*
X403697Y211400D02*
Y217398D01*
X400698Y214399D01*
X404697D01*
X359700Y155698D02*
Y154698D01*
X361699Y152699D01*
X363699Y154698D01*
Y155698D01*
X361699Y152699D02*
Y149700D01*
X365698D02*
X367697D01*
X366698D01*
Y155698D01*
X365698Y154698D01*
X350000Y210798D02*
Y206799D01*
X351999Y204800D01*
X353999Y206799D01*
Y210798D01*
X355998Y204800D02*
X357997D01*
X356998D01*
Y210798D01*
X355998Y209798D01*
X360996Y204800D02*
Y205800D01*
X361996D01*
Y204800D01*
X360996D01*
X365995Y209798D02*
X366995Y210798D01*
X368994D01*
X369993Y209798D01*
Y205800D01*
X368994Y204800D01*
X366995D01*
X365995Y205800D01*
Y209798D01*
D34*
X522325Y136079D02*
G03*
X521654Y139874I-22889J-2091D01*
G01*
D02*
G03*
X521531Y140320I-21922J-5812D01*
G01*
X512223Y133065D02*
X518232Y127056D01*
X526731D01*
X532741Y133065D01*
Y141565D01*
X526731Y147574D02*
X532741Y141565D01*
X518232Y147574D02*
X526731D01*
X512223Y141565D02*
X518232Y147574D01*
X512223Y133065D02*
Y141565D01*
X518811Y134012D02*
X518811Y134012D01*
X518811Y134012D02*
X518811Y132170D01*
X518810Y132110D02*
X518811Y132170D01*
X518803Y132052D02*
X518810Y132110D01*
X518792Y131995D02*
X518803Y132052D01*
X518774Y131939D02*
X518792Y131995D01*
X518752Y131885D02*
X518774Y131939D01*
X518726Y131835D02*
X518752Y131885D01*
X518694Y131788D02*
X518726Y131835D01*
X518659Y131744D02*
X518694Y131788D01*
X518620Y131703D02*
X518659Y131744D01*
X518576Y131667D02*
X518620Y131703D01*
X518530Y131634D02*
X518576Y131667D01*
X518479Y131606D02*
X518530Y131634D01*
X518427Y131582D02*
X518479Y131606D01*
X518372Y131563D02*
X518427Y131582D01*
X518315Y131550D02*
X518372Y131563D01*
X518255Y131542D02*
X518315Y131550D01*
X518195Y131539D02*
X518255Y131542D01*
X518137Y131543D02*
X518195Y131539D01*
X518080Y131552D02*
X518137Y131543D01*
X518024Y131568D02*
X518080Y131552D01*
X517970Y131588D02*
X518024Y131568D01*
X517919Y131613D02*
X517970Y131588D01*
X517871Y131642D02*
X517919Y131613D01*
X517826Y131675D02*
X517871Y131642D01*
X517783Y131712D02*
X517826Y131675D01*
X517745Y131754D02*
X517783Y131712D01*
X517710Y131799D02*
X517745Y131754D01*
X517679Y131847D02*
X517710Y131799D01*
X517652Y131899D02*
X517679Y131847D01*
X517632Y131954D02*
X517652Y131899D01*
X517616Y132011D02*
X517632Y131954D01*
X517607Y132070D02*
X517616Y132011D01*
X526788Y134009D02*
X526788Y131515D01*
X526788Y132191D02*
X527882Y133281D01*
X514869Y136762D02*
X514888Y136761D01*
X514898Y136760D01*
X514908Y136759D01*
X514918Y136758D01*
X514928Y136758D01*
X514938Y136757D01*
X514947Y136756D01*
X514957Y136755D01*
X514967Y136754D01*
X514977Y136754D01*
X514987Y136753D01*
X514996Y136752D01*
X515006Y136751D01*
X515016Y136750D01*
X515026Y136750D01*
X515036Y136749D01*
X515045Y136748D01*
X515055Y136747D01*
X515065Y136746D01*
X515075Y136746D01*
X515085Y136745D01*
X515095Y136744D01*
X515104Y136743D01*
X515114Y136742D01*
X515124Y136741D01*
X515134Y136741D01*
X515144Y136740D01*
X515153Y136739D01*
X515163Y136738D01*
X515173Y136737D01*
X515183Y136737D01*
X515193Y136736D01*
X515202Y136735D01*
X515212Y136734D01*
X515222Y136733D01*
X515232Y136732D01*
X515242Y136732D01*
X515251Y136731D01*
X515261Y136730D01*
X515271Y136729D01*
X515281Y136728D01*
X515290Y136727D01*
X515300Y136726D01*
X515310Y136725D01*
X515320Y136725D01*
X515330Y136724D01*
X515340Y136723D01*
X515349Y136722D01*
X515359Y136721D01*
X515369Y136720D01*
X515379Y136720D01*
X515388Y136719D01*
X515398Y136718D01*
X515408Y136717D01*
X515418Y136716D01*
X515427Y136715D01*
X515437Y136714D01*
X515447Y136713D01*
X515457Y136712D01*
X515467Y136711D01*
X515476Y136711D01*
X515486Y136710D01*
X515496Y136709D01*
X515506Y136708D01*
X515515Y136707D01*
X515525Y136706D01*
X515535Y136705D01*
X515545Y136704D01*
X515555Y136703D01*
X515564Y136702D01*
X515574Y136701D01*
X515584Y136700D01*
X515593Y136699D01*
X515603Y136698D01*
X515613Y136697D01*
X515623Y136696D01*
X515632Y136695D01*
X515642Y136694D01*
X515652Y136693D01*
X515662Y136692D01*
X515671Y136691D01*
X515681Y136690D01*
X515691Y136689D01*
X515701Y136688D01*
X515710Y136687D01*
X515720Y136686D01*
X515730Y136685D01*
X515740Y136684D01*
X515749Y136683D01*
X515759Y136682D01*
X515769Y136681D01*
X515778Y136680D01*
X515788Y136679D01*
X515798Y136678D01*
X515808Y136677D01*
X515817Y136676D01*
X515827Y136675D01*
X515837Y136674D01*
X515846Y136673D01*
X515856Y136671D01*
X515866Y136670D01*
X515875Y136669D01*
X515885Y136668D01*
X515895Y136667D01*
X515905Y136666D01*
X515924Y136664D01*
X515943Y136661D01*
X515963Y136659D01*
X515982Y136657D01*
X516001Y136654D01*
X516021Y136652D01*
X516040Y136649D01*
X516059Y136647D01*
X516078Y136644D01*
X516098Y136642D01*
X516117Y136639D01*
X516136Y136637D01*
X516155Y136634D01*
X516175Y136631D01*
X516194Y136629D01*
X516213Y136626D01*
X516232Y136623D01*
X516251Y136620D01*
X516271Y136618D01*
X516290Y136615D01*
X516309Y136612D01*
X516328Y136609D01*
X516347Y136606D01*
X516366Y136603D01*
X516385Y136600D01*
X516404Y136597D01*
X516423Y136594D01*
X516442Y136591D01*
X516461Y136588D01*
X516480Y136584D01*
X516499Y136581D01*
X516518Y136578D01*
X516537Y136574D01*
X516556Y136571D01*
X516575Y136568D01*
X516594Y136564D01*
X516613Y136561D01*
X516632Y136557D01*
X516651Y136554D01*
X516670Y136550D01*
X516688Y136546D01*
X516707Y136542D01*
X516726Y136539D01*
X516745Y136535D01*
X516763Y136531D01*
X516782Y136527D01*
X516801Y136523D01*
X516820Y136519D01*
X516838Y136515D01*
X516857Y136511D01*
X516876Y136507D01*
X516894Y136503D01*
X516913Y136498D01*
X516931Y136494D01*
X516950Y136490D01*
X516969Y136485D01*
X516987Y136481D01*
X517006Y136476D01*
X517024Y136472D01*
X517043Y136467D01*
X517070Y136460D01*
X517098Y136453D01*
X517126Y136446D01*
X517153Y136438D01*
X517180Y136431D01*
X517208Y136423D01*
X517235Y136415D01*
X517263Y136407D01*
X517290Y136399D01*
X517317Y136391D01*
X517344Y136383D01*
X517371Y136374D01*
X517398Y136366D01*
X517425Y136357D01*
X517452Y136348D01*
X517479Y136339D01*
X517506Y136330D01*
X517533Y136321D01*
X517560Y136311D01*
X517586Y136302D01*
X517613Y136292D01*
X517639Y136282D01*
X517666Y136272D01*
X517692Y136261D01*
X517727Y136248D01*
X517762Y136233D01*
X517797Y136219D01*
X517858Y136193D01*
X517893Y136178D01*
X517927Y136162D01*
X517962Y136146D01*
X517996Y136130D01*
X518030Y136114D01*
X518064Y136097D01*
X518098Y136080D01*
X518132Y136063D01*
X518165Y136045D01*
X518199Y136027D01*
X518233Y136009D01*
X518266Y135991D01*
X518299Y135972D01*
X518332Y135953D01*
X518365Y135934D01*
X518398Y135915D01*
X518431Y135896D01*
X518464Y135876D01*
X518496Y135856D01*
X518529Y135835D01*
X518561Y135815D01*
X518594Y135794D01*
X518626Y135773D01*
X518658Y135752D01*
X518690Y135731D01*
X518714Y135714D01*
X518737Y135698D01*
X518761Y135682D01*
X518785Y135665D01*
X518809Y135649D01*
X518832Y135632D01*
X518856Y135615D01*
X518879Y135598D01*
X518902Y135581D01*
X518926Y135563D01*
X518949Y135546D01*
X518972Y135529D01*
X518996Y135511D01*
X519019Y135493D01*
X519042Y135476D01*
X519065Y135458D01*
X519088Y135440D01*
X519110Y135422D01*
X519133Y135404D01*
X519156Y135385D01*
X519179Y135367D01*
X519201Y135348D01*
X519224Y135330D01*
X519246Y135311D01*
X519269Y135293D01*
X519291Y135274D01*
X519314Y135255D01*
X519336Y135236D01*
X519358Y135217D01*
X519381Y135198D01*
X519403Y135178D01*
X519425Y135159D01*
X519447Y135140D01*
X519469Y135120D01*
X519490Y135101D01*
X519512Y135081D01*
X519534Y135061D01*
X519556Y135041D01*
X519577Y135022D01*
X519599Y135002D01*
X519621Y134982D01*
X519642Y134961D01*
X519663Y134941D01*
X519685Y134921D01*
X519706Y134901D01*
X519728Y134880D01*
X519749Y134860D01*
X519770Y134840D01*
X519791Y134819D01*
X519812Y134799D01*
X519833Y134778D01*
X519854Y134757D01*
X519875Y134736D01*
X519896Y134716D01*
X519916Y134695D01*
X519937Y134674D01*
X519958Y134653D01*
X519978Y134632D01*
X519999Y134611D01*
X520019Y134590D01*
X520040Y134568D01*
X520060Y134547D01*
X520080Y134526D01*
X520101Y134505D01*
X520121Y134483D01*
X520141Y134462D01*
X520161Y134441D01*
X520181Y134419D01*
X520201Y134398D01*
X520221Y134376D01*
X520241Y134355D01*
X520261Y134333D01*
X520287Y134304D01*
X520320Y134268D01*
X520353Y134232D01*
X520385Y134196D01*
X520418Y134159D01*
X520450Y134123D01*
X520476Y134094D01*
X520501Y134065D01*
X520527Y134035D01*
X520552Y134006D01*
X520578Y133977D01*
X520603Y133947D01*
X520628Y133918D01*
X520653Y133888D01*
X520678Y133859D01*
X520703Y133829D01*
X520728Y133799D01*
X520753Y133770D01*
X520778Y133740D01*
X520802Y133710D01*
X520827Y133680D01*
X520852Y133651D01*
X520870Y133628D01*
X520888Y133606D01*
X520906Y133583D01*
X520925Y133561D01*
X520943Y133538D01*
X520961Y133516D01*
X520979Y133493D01*
X520997Y133471D01*
X521015Y133448D01*
X521033Y133426D01*
X521051Y133403D01*
X521069Y133380D01*
X521087Y133358D01*
X521105Y133335D01*
X521123Y133312D01*
X521140Y133290D01*
X521158Y133267D01*
X521176Y133244D01*
X521194Y133221D01*
X521211Y133199D01*
X521229Y133176D01*
X521246Y133153D01*
X521264Y133130D01*
X521281Y133107D01*
X521299Y133084D01*
X521316Y133062D01*
X521334Y133039D01*
X521346Y133023D01*
X521357Y133008D01*
X521369Y132993D01*
X521380Y132977D01*
X521392Y132962D01*
X521404Y132947D01*
X521415Y132932D01*
X521427Y132916D01*
X521438Y132901D01*
X521450Y132886D01*
X521461Y132870D01*
X521473Y132855D01*
X521484Y132840D01*
X521496Y132824D01*
X521507Y132809D01*
X521519Y132793D01*
X521530Y132778D01*
X521541Y132763D01*
X521553Y132747D01*
X521564Y132732D01*
X521576Y132717D01*
X521587Y132701D01*
X521598Y132686D01*
X521610Y132670D01*
X521621Y132655D01*
X521632Y132639D01*
X521644Y132624D01*
X521655Y132608D01*
X521666Y132593D01*
X521678Y132578D01*
X521689Y132562D01*
X521700Y132547D01*
X521712Y132531D01*
X521723Y132516D01*
X521734Y132500D01*
X521745Y132485D01*
X521757Y132469D01*
X521768Y132454D01*
X521779Y132438D01*
X521790Y132423D01*
X521802Y132407D01*
X521813Y132392D01*
X521824Y132377D01*
X521835Y132361D01*
X521846Y132345D01*
X521858Y132330D01*
X521869Y132314D01*
X521874Y132307D01*
X521880Y132299D01*
X521886Y132291D01*
X521891Y132283D01*
X521897Y132276D01*
X521902Y132268D01*
X521908Y132260D01*
X521913Y132252D01*
X521919Y132245D01*
X521925Y132237D01*
X521930Y132229D01*
X521936Y132221D01*
X521941Y132213D01*
X521947Y132206D01*
X521952Y132198D01*
X521958Y132190D01*
X521964Y132182D01*
X521969Y132175D01*
X521975Y132167D01*
X521980Y132159D01*
X521986Y132151D01*
X521991Y132143D01*
X521997Y132136D01*
X522003Y132128D01*
X522008Y132120D01*
X522014Y132112D01*
X522019Y132105D01*
X522025Y132097D01*
X522030Y132089D01*
X522036Y132081D01*
X522041Y132073D01*
X522047Y132066D01*
X522052Y132058D01*
X522058Y132050D01*
X522064Y132042D01*
X522069Y132035D01*
X522075Y132027D01*
X522080Y132019D01*
X522086Y132011D01*
X522091Y132003D01*
X522097Y131996D01*
X522102Y131988D01*
X522108Y131980D01*
X522113Y131972D01*
X522119Y131965D01*
X522124Y131957D01*
X522130Y131949D01*
X522136Y131941D01*
X522141Y131933D01*
X522147Y131925D01*
X522152Y131918D01*
X522158Y131910D01*
X522163Y131902D01*
X522169Y131894D01*
X522174Y131886D01*
X522180Y131879D01*
X522185Y131871D01*
X522191Y131863D01*
X522196Y131855D01*
X522202Y131848D01*
X522207Y131840D01*
X522213Y131832D01*
X522219Y131824D01*
X522224Y131816D01*
X522229Y131809D01*
X522235Y131801D01*
X522240Y131793D01*
X522246Y131785D01*
X522252Y131777D01*
X522257Y131770D01*
X522263Y131762D01*
X522268Y131754D01*
X522274Y131746D01*
X522279Y131738D01*
X522285Y131731D01*
X522290Y131723D01*
X522296Y131715D01*
X522301Y131707D01*
X522307Y131699D01*
X522312Y131692D01*
X522318Y131684D01*
X522323Y131676D01*
X522329Y131668D01*
X522334Y131660D01*
X522340Y131652D01*
X522345Y131645D01*
X522351Y131637D01*
X522356Y131629D01*
X522362Y131621D01*
X522367Y131614D01*
X522373Y131606D01*
X522378Y131598D01*
X522384Y131590D01*
X522389Y131582D01*
X522395Y131574D01*
X522400Y131567D01*
X522406Y131559D01*
X522411Y131551D01*
X522417Y131543D01*
X516230Y140124D02*
X516249Y140112D01*
X516258Y140106D01*
X516268Y140101D01*
X516277Y140095D01*
X516286Y140089D01*
X516296Y140083D01*
X516305Y140077D01*
X516315Y140072D01*
X516324Y140066D01*
X516333Y140060D01*
X516342Y140054D01*
X516352Y140048D01*
X516361Y140042D01*
X516371Y140037D01*
X516380Y140031D01*
X516389Y140025D01*
X516399Y140019D01*
X516408Y140014D01*
X516417Y140008D01*
X516427Y140002D01*
X516436Y139996D01*
X516445Y139990D01*
X516455Y139984D01*
X516464Y139979D01*
X516474Y139973D01*
X516483Y139967D01*
X516492Y139961D01*
X516502Y139955D01*
X516511Y139950D01*
X516520Y139944D01*
X516530Y139938D01*
X516539Y139932D01*
X516548Y139926D01*
X516558Y139920D01*
X516567Y139915D01*
X516576Y139909D01*
X516586Y139903D01*
X516595Y139897D01*
X516605Y139891D01*
X516614Y139885D01*
X516623Y139880D01*
X516633Y139874D01*
X516642Y139868D01*
X516651Y139862D01*
X516660Y139856D01*
X516670Y139850D01*
X516679Y139845D01*
X516688Y139839D01*
X516698Y139833D01*
X516707Y139827D01*
X516716Y139821D01*
X516726Y139815D01*
X516735Y139810D01*
X516744Y139804D01*
X516754Y139798D01*
X516763Y139792D01*
X516772Y139786D01*
X516782Y139780D01*
X516791Y139774D01*
X516800Y139769D01*
X516810Y139763D01*
X516819Y139757D01*
X516828Y139751D01*
X516838Y139745D01*
X516847Y139739D01*
X516856Y139733D01*
X516865Y139727D01*
X516875Y139722D01*
X516884Y139716D01*
X516893Y139710D01*
X516903Y139704D01*
X516912Y139698D01*
X516921Y139692D01*
X516930Y139686D01*
X516940Y139680D01*
X516949Y139674D01*
X516958Y139669D01*
X516968Y139663D01*
X516977Y139657D01*
X516986Y139651D01*
X516995Y139645D01*
X517005Y139639D01*
X517014Y139633D01*
X517023Y139627D01*
X517032Y139621D01*
X517042Y139615D01*
X517051Y139609D01*
X517060Y139603D01*
X517069Y139597D01*
X517079Y139592D01*
X517088Y139586D01*
X517097Y139580D01*
X517106Y139574D01*
X517116Y139568D01*
X517125Y139562D01*
X517134Y139556D01*
X517143Y139550D01*
X517153Y139544D01*
X517162Y139538D01*
X517171Y139532D01*
X517180Y139526D01*
X517189Y139520D01*
X517208Y139508D01*
X517226Y139496D01*
X517244Y139484D01*
X517263Y139472D01*
X517281Y139460D01*
X517300Y139448D01*
X517318Y139436D01*
X517336Y139424D01*
X517354Y139412D01*
X517373Y139400D01*
X517391Y139388D01*
X517409Y139376D01*
X517427Y139363D01*
X517446Y139351D01*
X517464Y139339D01*
X517482Y139327D01*
X517500Y139315D01*
X517518Y139302D01*
X517536Y139290D01*
X517555Y139278D01*
X517573Y139266D01*
X517591Y139253D01*
X517609Y139241D01*
X517627Y139229D01*
X517645Y139216D01*
X517663Y139204D01*
X517681Y139191D01*
X517699Y139179D01*
X517717Y139167D01*
X517735Y139154D01*
X517753Y139142D01*
X517771Y139129D01*
X517789Y139117D01*
X517806Y139104D01*
X517824Y139092D01*
X517842Y139079D01*
X517860Y139066D01*
X517878Y139054D01*
X517895Y139041D01*
X517913Y139028D01*
X517931Y139016D01*
X517948Y139003D01*
X517966Y138990D01*
X517984Y138977D01*
X518001Y138964D01*
X518019Y138952D01*
X518037Y138939D01*
X518054Y138926D01*
X518072Y138913D01*
X518089Y138900D01*
X518107Y138887D01*
X518124Y138874D01*
X518141Y138861D01*
X518159Y138848D01*
X518176Y138835D01*
X518202Y138815D01*
X518228Y138795D01*
X518254Y138776D01*
X518280Y138756D01*
X518306Y138736D01*
X518331Y138716D01*
X518357Y138696D01*
X518383Y138676D01*
X518408Y138655D01*
X518433Y138635D01*
X518459Y138615D01*
X518484Y138594D01*
X518509Y138574D01*
X518535Y138553D01*
X518560Y138533D01*
X518585Y138512D01*
X518610Y138491D01*
X518635Y138470D01*
X518659Y138449D01*
X518684Y138428D01*
X518709Y138407D01*
X518733Y138386D01*
X518758Y138365D01*
X518782Y138343D01*
X518807Y138322D01*
X518831Y138300D01*
X518855Y138279D01*
X518879Y138257D01*
X518903Y138235D01*
X518927Y138213D01*
X518959Y138184D01*
X518991Y138154D01*
X519022Y138125D01*
X519054Y138095D01*
X519085Y138065D01*
X519116Y138035D01*
X519147Y138005D01*
X519177Y137974D01*
X519208Y137943D01*
X519261Y137889D01*
X519306Y137843D01*
X519351Y137795D01*
X519395Y137748D01*
X519439Y137700D01*
X519483Y137652D01*
X519526Y137603D01*
X519569Y137554D01*
X519612Y137505D01*
X519654Y137455D01*
X519696Y137405D01*
X519737Y137354D01*
X519779Y137304D01*
X519819Y137252D01*
X519860Y137201D01*
X519900Y137149D01*
X519940Y137097D01*
X519979Y137045D01*
X520018Y136992D01*
X520057Y136940D01*
X520095Y136886D01*
X520133Y136833D01*
X520171Y136779D01*
X520209Y136725D01*
X520246Y136671D01*
X520282Y136616D01*
X520319Y136561D01*
X520355Y136506D01*
X520390Y136451D01*
X520426Y136396D01*
X520461Y136340D01*
X520496Y136284D01*
X520530Y136228D01*
X520564Y136171D01*
X520598Y136115D01*
X520631Y136058D01*
X520665Y136001D01*
X520697Y135943D01*
X520730Y135886D01*
X520762Y135828D01*
X520794Y135771D01*
X520826Y135713D01*
X520857Y135655D01*
X520888Y135597D01*
X520919Y135538D01*
X520949Y135479D01*
X520979Y135421D01*
X521009Y135362D01*
X521038Y135303D01*
X521067Y135244D01*
X521096Y135185D01*
X521125Y135126D01*
X521153Y135066D01*
X521181Y135007D01*
X521200Y134967D01*
X521218Y134927D01*
X521236Y134887D01*
X521255Y134847D01*
X521273Y134808D01*
X521290Y134768D01*
X521308Y134728D01*
X521326Y134688D01*
X521344Y134648D01*
X521361Y134608D01*
X521378Y134567D01*
X521395Y134527D01*
X521413Y134487D01*
X521425Y134457D01*
X521438Y134427D01*
X521451Y134397D01*
X521463Y134366D01*
X521476Y134336D01*
X521488Y134306D01*
X521500Y134276D01*
X521513Y134245D01*
X521525Y134215D01*
X521537Y134185D01*
X521550Y134154D01*
X521562Y134124D01*
X521574Y134093D01*
X521586Y134063D01*
X521598Y134033D01*
X521610Y134002D01*
X521622Y133972D01*
X521633Y133941D01*
X521645Y133911D01*
X521657Y133880D01*
X521668Y133850D01*
X521680Y133819D01*
X521692Y133789D01*
X521703Y133758D01*
X521715Y133728D01*
X521726Y133697D01*
X521737Y133666D01*
X521749Y133636D01*
X521760Y133605D01*
X521768Y133585D01*
X521775Y133564D01*
X521783Y133544D01*
X521790Y133523D01*
X521798Y133503D01*
X521805Y133482D01*
X521812Y133462D01*
X521820Y133441D01*
X521827Y133421D01*
X521835Y133400D01*
X521842Y133380D01*
X521849Y133359D01*
X521856Y133339D01*
X521864Y133318D01*
X521871Y133298D01*
X521878Y133277D01*
X521885Y133257D01*
X521893Y133236D01*
X521900Y133216D01*
X521907Y133195D01*
X521914Y133175D01*
X521921Y133154D01*
X521929Y133134D01*
X521936Y133113D01*
X521943Y133092D01*
X521950Y133072D01*
X521957Y133051D01*
X521964Y133031D01*
X521971Y133010D01*
X521978Y132990D01*
X521985Y132969D01*
X521992Y132948D01*
X521999Y132928D01*
X522006Y132907D01*
X522013Y132887D01*
X522020Y132866D01*
X522027Y132845D01*
X522034Y132825D01*
X522041Y132804D01*
X522048Y132783D01*
X522055Y132763D01*
X522062Y132742D01*
X522069Y132721D01*
X522076Y132701D01*
X522083Y132680D01*
X522089Y132659D01*
X522096Y132639D01*
X522103Y132618D01*
X522110Y132598D01*
X522113Y132587D01*
X522117Y132577D01*
X522120Y132567D01*
X522124Y132556D01*
X522127Y132546D01*
X522130Y132536D01*
X522134Y132525D01*
X522137Y132515D01*
X522141Y132505D01*
X522144Y132494D01*
X522148Y132484D01*
X522151Y132474D01*
X522154Y132463D01*
X522158Y132453D01*
X522161Y132442D01*
X522164Y132432D01*
X522168Y132422D01*
X522171Y132412D01*
X522175Y132401D01*
X522178Y132391D01*
X522181Y132380D01*
X522185Y132370D01*
X522188Y132360D01*
X522191Y132349D01*
X522195Y132339D01*
X522198Y132329D01*
X522201Y132318D01*
X522205Y132308D01*
X522208Y132298D01*
X522212Y132287D01*
X522215Y132277D01*
X522218Y132267D01*
X522222Y132256D01*
X522225Y132246D01*
X522228Y132236D01*
X522232Y132225D01*
X522235Y132215D01*
X522238Y132204D01*
X522242Y132194D01*
X522245Y132184D01*
X522248Y132173D01*
X522252Y132163D01*
X522255Y132153D01*
X522258Y132142D01*
X522262Y132132D01*
X522265Y132122D01*
X522268Y132111D01*
X522272Y132101D01*
X522275Y132091D01*
X522278Y132080D01*
X522282Y132070D01*
X522285Y132060D01*
X522288Y132049D01*
X522292Y132039D01*
X522295Y132028D01*
X522298Y132018D01*
X522302Y132008D01*
X522305Y131997D01*
X522308Y131987D01*
X522312Y131977D01*
X522315Y131966D01*
X522318Y131956D01*
X522322Y131946D01*
X522325Y131935D01*
X522328Y131925D01*
X522331Y131914D01*
X522335Y131904D01*
X522338Y131894D01*
X522341Y131883D01*
X522345Y131873D01*
X522348Y131863D01*
X522351Y131852D01*
X522355Y131842D01*
X522358Y131831D01*
X522361Y131821D01*
X522365Y131811D01*
X522368Y131800D01*
X522371Y131790D01*
X522374Y131780D01*
X522378Y131769D01*
X522381Y131759D01*
X522384Y131748D01*
X522388Y131738D01*
X522391Y131728D01*
X522394Y131717D01*
X522398Y131707D01*
X522401Y131697D01*
X522404Y131686D01*
X522407Y131676D01*
X522411Y131666D01*
X522414Y131655D01*
X522417Y131645D01*
X522421Y131634D01*
X522424Y131624D01*
X522427Y131614D01*
X522431Y131603D01*
X522434Y131593D01*
X522437Y131583D01*
X522440Y131572D01*
X522441Y131598D01*
X522441Y131611D01*
X522441Y131624D01*
X522441Y131637D01*
X522441Y131649D01*
X522441Y131662D01*
X522441Y131675D01*
X522441Y131688D01*
X522441Y131701D01*
X522441Y131714D01*
X522442Y131727D01*
X522442Y131739D01*
X522442Y131752D01*
X522442Y131765D01*
X522442Y131778D01*
X522442Y131791D01*
X522442Y131804D01*
X522442Y131817D01*
X522442Y131829D01*
X522442Y131842D01*
X522442Y131855D01*
X522443Y131868D01*
X522443Y131881D01*
X522443Y131894D01*
X522443Y131907D01*
X522443Y131920D01*
X522443Y131932D01*
X522443Y131945D01*
X522443Y131958D01*
X522443Y131971D01*
X522443Y131984D01*
X522443Y131997D01*
X522443Y132009D01*
X522443Y132022D01*
X522444Y132035D01*
X522444Y132048D01*
X522444Y132061D01*
X522444Y132074D01*
X522444Y132087D01*
X522444Y132099D01*
X522444Y132112D01*
X522444Y132125D01*
X522444Y132138D01*
X522444Y132151D01*
X522444Y132164D01*
X522444Y132177D01*
X522444Y132190D01*
X522445Y132202D01*
X522445Y132215D01*
X522445Y132228D01*
X522445Y132241D01*
X522445Y132254D01*
X522445Y132267D01*
X522445Y132280D01*
X522445Y132292D01*
X522445Y132305D01*
X522445Y132318D01*
X522445Y132331D01*
X522445Y132344D01*
X522445Y132357D01*
X522445Y132370D01*
X522445Y132382D01*
X522445Y132395D01*
X522445Y132408D01*
X522446Y132421D01*
X522446Y132434D01*
X522446Y132447D01*
X522446Y132460D01*
X522446Y132473D01*
X522446Y132485D01*
X522446Y132498D01*
X522446Y132511D01*
X522446Y132524D01*
X522446Y132537D01*
X522446Y132550D01*
X522446Y132562D01*
X522446Y132575D01*
X522446Y132588D01*
X522446Y132601D01*
X522446Y132614D01*
X522446Y132627D01*
X522446Y132640D01*
X522446Y132652D01*
X522446Y132665D01*
X522446Y132678D01*
X522446Y132691D01*
X522446Y132704D01*
X522446Y132717D01*
X522446Y132730D01*
X522446Y132743D01*
X522446Y132755D01*
Y132768D01*
Y132781D01*
Y132794D01*
Y132807D01*
Y132820D01*
X522446Y132832D02*
X522446Y132820D01*
X522446Y132832D02*
Y132845D01*
X522446Y132858D02*
X522446Y132845D01*
X522446Y132871D02*
X522446Y132858D01*
X522446Y132897D02*
X522446Y132871D01*
X522446Y132922D02*
X522446Y132897D01*
X522446Y132948D02*
X522446Y132922D01*
X522446Y132974D02*
X522446Y132948D01*
X522446Y133000D02*
X522446Y132974D01*
X522446Y133025D02*
X522446Y133000D01*
X522446Y133051D02*
X522446Y133025D01*
X522446Y133077D02*
X522446Y133051D01*
X522446Y133102D02*
X522446Y133077D01*
X522446Y133128D02*
X522446Y133102D01*
X522445Y133154D02*
X522446Y133128D01*
X522445Y133179D02*
X522445Y133154D01*
X522445Y133205D02*
X522445Y133179D01*
X522445Y133231D02*
X522445Y133205D01*
X522445Y133257D02*
X522445Y133231D01*
X522445Y133282D02*
X522445Y133257D01*
X522444Y133308D02*
X522445Y133282D01*
X522444Y133334D02*
X522444Y133308D01*
X522444Y133359D02*
X522444Y133334D01*
X522444Y133385D02*
X522444Y133359D01*
X522444Y133411D02*
X522444Y133385D01*
X522443Y133437D02*
X522444Y133411D01*
X522443Y133462D02*
X522443Y133437D01*
X522443Y133488D02*
X522443Y133462D01*
X522443Y133514D02*
X522443Y133488D01*
X522442Y133539D02*
X522443Y133514D01*
X522442Y133565D02*
X522442Y133539D01*
X522442Y133591D02*
X522442Y133565D01*
X522441Y133616D02*
X522442Y133591D01*
X522441Y133642D02*
X522441Y133616D01*
X522441Y133668D02*
X522441Y133642D01*
X522440Y133694D02*
X522441Y133668D01*
X522440Y133719D02*
X522440Y133694D01*
X522440Y133745D02*
X522440Y133719D01*
X522439Y133771D02*
X522440Y133745D01*
X522439Y133796D02*
X522439Y133771D01*
X522438Y133822D02*
X522439Y133796D01*
X522438Y133848D02*
X522438Y133822D01*
X522437Y133873D02*
X522438Y133848D01*
X522437Y133899D02*
X522437Y133873D01*
X522436Y133925D02*
X522437Y133899D01*
X522436Y133950D02*
X522436Y133925D01*
X522435Y133976D02*
X522436Y133950D01*
X522435Y134002D02*
X522435Y133976D01*
X522434Y134027D02*
X522435Y134002D01*
X522434Y134053D02*
X522434Y134027D01*
X522433Y134079D02*
X522434Y134053D01*
X522433Y134105D02*
X522433Y134079D01*
X522432Y134130D02*
X522433Y134105D01*
X522431Y134156D02*
X522432Y134130D01*
X522431Y134181D02*
X522431Y134156D01*
X522430Y134220D02*
X522431Y134181D01*
X522429Y134258D02*
X522430Y134220D01*
X522428Y134297D02*
X522429Y134258D01*
X522426Y134335D02*
X522428Y134297D01*
X522425Y134374D02*
X522426Y134335D01*
X522424Y134413D02*
X522425Y134374D01*
X522423Y134451D02*
X522424Y134413D01*
X522422Y134490D02*
X522423Y134451D01*
X522420Y134528D02*
X522422Y134490D01*
X522419Y134566D02*
X522420Y134528D01*
X522417Y134605D02*
X522419Y134566D01*
X522416Y134643D02*
X522417Y134605D01*
X522414Y134682D02*
X522416Y134643D01*
X522413Y134721D02*
X522414Y134682D01*
X522411Y134759D02*
X522413Y134721D01*
X522410Y134798D02*
X522411Y134759D01*
X522408Y134836D02*
X522410Y134798D01*
X522406Y134874D02*
X522408Y134836D01*
X522404Y134913D02*
X522406Y134874D01*
X522403Y134951D02*
X522404Y134913D01*
X522401Y134990D02*
X522403Y134951D01*
X522399Y135028D02*
X522401Y134990D01*
X522397Y135067D02*
X522399Y135028D01*
X522395Y135105D02*
X522397Y135067D01*
X522393Y135144D02*
X522395Y135105D01*
X522391Y135182D02*
X522393Y135144D01*
X522389Y135221D02*
X522391Y135182D01*
X522386Y135259D02*
X522389Y135221D01*
X522384Y135298D02*
X522386Y135259D01*
X522382Y135336D02*
X522384Y135298D01*
X522379Y135374D02*
X522382Y135336D01*
X522377Y135413D02*
X522379Y135374D01*
X522373Y135464D02*
X522377Y135413D01*
X522370Y135515D02*
X522373Y135464D01*
X522367Y135566D02*
X522370Y135515D01*
X522363Y135618D02*
X522367Y135566D01*
X522359Y135669D02*
X522363Y135618D01*
X522355Y135720D02*
X522359Y135669D01*
X522351Y135771D02*
X522355Y135720D01*
X522347Y135823D02*
X522351Y135771D01*
X522343Y135874D02*
X522347Y135823D01*
X522339Y135925D02*
X522343Y135874D01*
X522334Y135976D02*
X522339Y135925D01*
X522330Y136027D02*
X522334Y135976D01*
X522325Y136079D02*
X522330Y136027D01*
X521517Y140369D02*
X521531Y140320D01*
X521503Y140418D02*
X521517Y140369D01*
X521488Y140468D02*
X521503Y140418D01*
X521474Y140517D02*
X521488Y140468D01*
X521459Y140566D02*
X521474Y140517D01*
X521448Y140603D02*
X521459Y140566D01*
X521437Y140640D02*
X521448Y140603D01*
X521426Y140677D02*
X521437Y140640D01*
X521414Y140714D02*
X521426Y140677D01*
X521403Y140750D02*
X521414Y140714D01*
X521392Y140787D02*
X521403Y140750D01*
X521380Y140824D02*
X521392Y140787D01*
X521369Y140861D02*
X521380Y140824D01*
X521357Y140898D02*
X521369Y140861D01*
X521346Y140934D02*
X521357Y140898D01*
X521334Y140971D02*
X521346Y140934D01*
X521323Y141008D02*
X521334Y140971D01*
X521311Y141044D02*
X521323Y141008D01*
X521299Y141081D02*
X521311Y141044D01*
X521287Y141118D02*
X521299Y141081D01*
X521276Y141154D02*
X521287Y141118D01*
X521264Y141191D02*
X521276Y141154D01*
X521252Y141228D02*
X521264Y141191D01*
X521240Y141264D02*
X521252Y141228D01*
X521228Y141301D02*
X521240Y141264D01*
X521215Y141337D02*
X521228Y141301D01*
X521203Y141374D02*
X521215Y141337D01*
X521191Y141410D02*
X521203Y141374D01*
X521179Y141447D02*
X521191Y141410D01*
X521167Y141483D02*
X521179Y141447D01*
X521154Y141520D02*
X521167Y141483D01*
X521142Y141556D02*
X521154Y141520D01*
X521130Y141593D02*
X521142Y141556D01*
X521117Y141629D02*
X521130Y141593D01*
X521105Y141666D02*
X521117Y141629D01*
X521092Y141702D02*
X521105Y141666D01*
X521084Y141727D02*
X521092Y141702D01*
X521075Y141751D02*
X521084Y141727D01*
X521067Y141775D02*
X521075Y141751D01*
X521059Y141799D02*
X521067Y141775D01*
X521050Y141824D02*
X521059Y141799D01*
X521042Y141848D02*
X521050Y141824D01*
X521033Y141872D02*
X521042Y141848D01*
X521025Y141896D02*
X521033Y141872D01*
X521016Y141921D02*
X521025Y141896D01*
X521008Y141945D02*
X521016Y141921D01*
X520999Y141969D02*
X521008Y141945D01*
X520991Y141993D02*
X520999Y141969D01*
X520982Y142017D02*
X520991Y141993D01*
X520974Y142042D02*
X520982Y142017D01*
X520965Y142066D02*
X520974Y142042D01*
X520956Y142090D02*
X520965Y142066D01*
X520948Y142114D02*
X520956Y142090D01*
X520939Y142139D02*
X520948Y142114D01*
X520930Y142163D02*
X520939Y142139D01*
X520922Y142187D02*
X520930Y142163D01*
X520913Y142211D02*
X520922Y142187D01*
X520904Y142235D02*
X520913Y142211D01*
X520896Y142259D02*
X520904Y142235D01*
X520887Y142284D02*
X520896Y142259D01*
X520878Y142308D02*
X520887Y142284D01*
X520870Y142332D02*
X520878Y142308D01*
X520861Y142356D02*
X520870Y142332D01*
X520852Y142380D02*
X520861Y142356D01*
X520843Y142404D02*
X520852Y142380D01*
X520834Y142429D02*
X520843Y142404D01*
X520826Y142453D02*
X520834Y142429D01*
X520817Y142477D02*
X520826Y142453D01*
X520808Y142501D02*
X520817Y142477D01*
X520799Y142525D02*
X520808Y142501D01*
X520790Y142549D02*
X520799Y142525D01*
X520782Y142573D02*
X520790Y142549D01*
X520773Y142597D02*
X520782Y142573D01*
X520764Y142622D02*
X520773Y142597D01*
X520755Y142646D02*
X520764Y142622D01*
X520746Y142670D02*
X520755Y142646D01*
X520737Y142694D02*
X520746Y142670D01*
X520728Y142718D02*
X520737Y142694D01*
X520719Y142742D02*
X520728Y142718D01*
X520710Y142766D02*
X520719Y142742D01*
X520701Y142790D02*
X520710Y142766D01*
X520692Y142814D02*
X520701Y142790D01*
X520683Y142838D02*
X520692Y142814D01*
X520674Y142862D02*
X520683Y142838D01*
X520665Y142886D02*
X520674Y142862D01*
X520656Y142911D02*
X520665Y142886D01*
X520652Y142923D02*
X520656Y142911D01*
X520647Y142935D02*
X520652Y142923D01*
X520643Y142947D02*
X520647Y142935D01*
X520638Y142959D02*
X520643Y142947D01*
X520634Y142971D02*
X520638Y142959D01*
X520629Y142983D02*
X520634Y142971D01*
X520625Y142995D02*
X520629Y142983D01*
X520620Y143007D02*
X520625Y142995D01*
X520616Y143019D02*
X520620Y143007D01*
X520611Y143031D02*
X520616Y143019D01*
X520607Y143043D02*
X520611Y143031D01*
X520602Y143055D02*
X520607Y143043D01*
X520598Y143067D02*
X520602Y143055D01*
X520593Y143079D02*
X520598Y143067D01*
X520588Y143091D02*
X520593Y143079D01*
X520584Y143103D02*
X520588Y143091D01*
X520579Y143115D02*
X520584Y143103D01*
X520575Y143127D02*
X520579Y143115D01*
X520570Y143139D02*
X520575Y143127D01*
X520566Y143151D02*
X520570Y143139D01*
X520561Y143163D02*
X520566Y143151D01*
X520557Y143175D02*
X520561Y143163D01*
X520552Y143187D02*
X520557Y143175D01*
X520547Y143199D02*
X520552Y143187D01*
X520543Y143211D02*
X520547Y143199D01*
X520538Y143223D02*
X520543Y143211D01*
X520534Y143235D02*
X520538Y143223D01*
X520529Y143247D02*
X520534Y143235D01*
X520525Y143259D02*
X520529Y143247D01*
X520520Y143271D02*
X520525Y143259D01*
X520516Y143283D02*
X520520Y143271D01*
X520511Y143295D02*
X520516Y143283D01*
X520506Y143307D02*
X520511Y143295D01*
X520502Y143319D02*
X520506Y143307D01*
X520497Y143332D02*
X520502Y143319D01*
X520493Y143343D02*
X520497Y143332D01*
X520488Y143356D02*
X520493Y143343D01*
X520484Y143368D02*
X520488Y143356D01*
X520479Y143380D02*
X520484Y143368D01*
X520474Y143392D02*
X520479Y143380D01*
X520470Y143404D02*
X520474Y143392D01*
X520465Y143416D02*
X520470Y143404D01*
X520461Y143428D02*
X520465Y143416D01*
X520456Y143440D02*
X520461Y143428D01*
X520452Y143452D02*
X520456Y143440D01*
X520447Y143464D02*
X520452Y143452D01*
X520442Y143476D02*
X520447Y143464D01*
X520438Y143488D02*
X520442Y143476D01*
X520433Y143500D02*
X520438Y143488D01*
X520429Y143512D02*
X520433Y143500D01*
X520424Y143524D02*
X520429Y143512D01*
X520420Y143536D02*
X520424Y143524D01*
X520415Y143548D02*
X520420Y143536D01*
X520410Y143560D02*
X520415Y143548D01*
X520406Y143572D02*
X520410Y143560D01*
X520401Y143584D02*
X520406Y143572D01*
X520397Y143596D02*
X520401Y143584D01*
X520392Y143608D02*
X520397Y143596D01*
X520387Y143620D02*
X520392Y143608D01*
X520383Y143632D02*
X520387Y143620D01*
X520378Y143644D02*
X520383Y143632D01*
X520374Y143656D02*
X520378Y143644D01*
X520369Y143668D02*
X520374Y143656D01*
X520364Y143680D02*
X520369Y143668D01*
X520360Y143692D02*
X520364Y143680D01*
X520355Y143704D02*
X520360Y143692D01*
X520351Y143716D02*
X520355Y143704D01*
X520346Y143728D02*
X520351Y143716D01*
X520341Y143740D02*
X520346Y143728D01*
X520337Y143752D02*
X520341Y143740D01*
X520332Y143764D02*
X520337Y143752D01*
X520328Y143776D02*
X520332Y143764D01*
X520323Y143788D02*
X520328Y143776D01*
X520318Y143800D02*
X520323Y143788D01*
X520314Y143812D02*
X520318Y143800D01*
X520309Y143824D02*
X520314Y143812D01*
X520304Y143836D02*
X520309Y143824D01*
X520300Y143848D02*
X520304Y143836D01*
X520295Y143860D02*
X520300Y143848D01*
X520291Y143872D02*
X520295Y143860D01*
X520286Y143884D02*
X520291Y143872D01*
X520282Y143896D02*
X520286Y143884D01*
X520277Y143908D02*
X520282Y143896D01*
X520272Y143920D02*
X520277Y143908D01*
X520268Y143932D02*
X520272Y143920D01*
X520263Y143944D02*
X520268Y143932D01*
X520258Y143956D02*
X520263Y143944D01*
X520254Y143968D02*
X520258Y143956D01*
X520249Y143980D02*
X520254Y143968D01*
X520245Y143992D02*
X520249Y143980D01*
X520240Y144004D02*
X520245Y143992D01*
X520235Y144016D02*
X520240Y144004D01*
X520231Y144028D02*
X520235Y144016D01*
X520226Y144040D02*
X520231Y144028D01*
X520222Y144052D02*
X520226Y144040D01*
X520217Y144064D02*
X520222Y144052D01*
X520212Y144076D02*
X520217Y144064D01*
X520208Y144088D02*
X520212Y144076D01*
X520203Y144100D02*
X520208Y144088D01*
X520198Y144112D02*
X520203Y144100D01*
X526629Y141206D02*
X526642Y141223D01*
X526623Y141198D02*
X526629Y141206D01*
X526616Y141189D02*
X526623Y141198D01*
X526609Y141181D02*
X526616Y141189D01*
X526603Y141172D02*
X526609Y141181D01*
X526596Y141164D02*
X526603Y141172D01*
X526589Y141156D02*
X526596Y141164D01*
X526583Y141147D02*
X526589Y141156D01*
X526576Y141139D02*
X526583Y141147D01*
X526570Y141130D02*
X526576Y141139D01*
X526563Y141122D02*
X526570Y141130D01*
X526556Y141113D02*
X526563Y141122D01*
X526550Y141105D02*
X526556Y141113D01*
X526543Y141096D02*
X526550Y141105D01*
X526537Y141088D02*
X526543Y141096D01*
X526530Y141079D02*
X526537Y141088D01*
X526523Y141071D02*
X526530Y141079D01*
X526517Y141062D02*
X526523Y141071D01*
X526510Y141054D02*
X526517Y141062D01*
X526504Y141046D02*
X526510Y141054D01*
X526497Y141037D02*
X526504Y141046D01*
X526490Y141029D02*
X526497Y141037D01*
X526484Y141020D02*
X526490Y141029D01*
X526477Y141012D02*
X526484Y141020D01*
X526471Y141003D02*
X526477Y141012D01*
X526464Y140995D02*
X526471Y141003D01*
X526457Y140986D02*
X526464Y140995D01*
X526451Y140978D02*
X526457Y140986D01*
X526444Y140970D02*
X526451Y140978D01*
X526438Y140961D02*
X526444Y140970D01*
X526431Y140953D02*
X526438Y140961D01*
X526424Y140944D02*
X526431Y140953D01*
X526418Y140936D02*
X526424Y140944D01*
X526411Y140927D02*
X526418Y140936D01*
X526404Y140919D02*
X526411Y140927D01*
X526398Y140910D02*
X526404Y140919D01*
X526391Y140902D02*
X526398Y140910D01*
X526385Y140893D02*
X526391Y140902D01*
X526378Y140885D02*
X526385Y140893D01*
X526371Y140876D02*
X526378Y140885D01*
X526365Y140868D02*
X526371Y140876D01*
X526358Y140859D02*
X526365Y140868D01*
X526352Y140851D02*
X526358Y140859D01*
X526345Y140842D02*
X526352Y140851D01*
X526339Y140834D02*
X526345Y140842D01*
X526332Y140826D02*
X526339Y140834D01*
X526325Y140817D02*
X526332Y140826D01*
X526319Y140809D02*
X526325Y140817D01*
X526312Y140800D02*
X526319Y140809D01*
X526306Y140792D02*
X526312Y140800D01*
X526299Y140783D02*
X526306Y140792D01*
X526293Y140775D02*
X526299Y140783D01*
X526286Y140766D02*
X526293Y140775D01*
X526279Y140758D02*
X526286Y140766D01*
X526273Y140749D02*
X526279Y140758D01*
X526266Y140741D02*
X526273Y140749D01*
X526260Y140732D02*
X526266Y140741D01*
X526253Y140724D02*
X526260Y140732D01*
X526247Y140716D02*
X526253Y140724D01*
X526240Y140707D02*
X526247Y140716D01*
X526233Y140699D02*
X526240Y140707D01*
X526227Y140690D02*
X526233Y140699D01*
X526220Y140682D02*
X526227Y140690D01*
X526214Y140673D02*
X526220Y140682D01*
X526207Y140665D02*
X526214Y140673D01*
X526200Y140656D02*
X526207Y140665D01*
X526194Y140648D02*
X526200Y140656D01*
X526187Y140639D02*
X526194Y140648D01*
X526181Y140631D02*
X526187Y140639D01*
X526174Y140622D02*
X526181Y140631D01*
X526168Y140614D02*
X526174Y140622D01*
X526161Y140605D02*
X526168Y140614D01*
X526155Y140597D02*
X526161Y140605D01*
X526148Y140588D02*
X526155Y140597D01*
X526142Y140580D02*
X526148Y140588D01*
X526135Y140571D02*
X526142Y140580D01*
X526128Y140563D02*
X526135Y140571D01*
X526122Y140554D02*
X526128Y140563D01*
X526115Y140546D02*
X526122Y140554D01*
X526109Y140537D02*
X526115Y140546D01*
X526102Y140529D02*
X526109Y140537D01*
X526096Y140520D02*
X526102Y140529D01*
X526089Y140512D02*
X526096Y140520D01*
X526083Y140503D02*
X526089Y140512D01*
X526076Y140495D02*
X526083Y140503D01*
X526070Y140486D02*
X526076Y140495D01*
X526063Y140478D02*
X526070Y140486D01*
X526057Y140469D02*
X526063Y140478D01*
X526050Y140461D02*
X526057Y140469D01*
X526044Y140452D02*
X526050Y140461D01*
X526037Y140444D02*
X526044Y140452D01*
X526031Y140435D02*
X526037Y140444D01*
X526024Y140427D02*
X526031Y140435D01*
X526018Y140418D02*
X526024Y140427D01*
X526011Y140410D02*
X526018Y140418D01*
X526005Y140401D02*
X526011Y140410D01*
X525998Y140392D02*
X526005Y140401D01*
X525992Y140384D02*
X525998Y140392D01*
X525985Y140375D02*
X525992Y140384D01*
X525979Y140367D02*
X525985Y140375D01*
X525972Y140358D02*
X525979Y140367D01*
X525959Y140341D02*
X525972Y140358D01*
X525946Y140324D02*
X525959Y140341D01*
X525933Y140307D02*
X525946Y140324D01*
X525920Y140290D02*
X525933Y140307D01*
X525908Y140273D02*
X525920Y140290D01*
X525895Y140256D02*
X525908Y140273D01*
X525882Y140239D02*
X525895Y140256D01*
X525869Y140222D02*
X525882Y140239D01*
X525856Y140205D02*
X525869Y140222D01*
X525843Y140188D02*
X525856Y140205D01*
X525830Y140171D02*
X525843Y140188D01*
X525817Y140153D02*
X525830Y140171D01*
X525805Y140136D02*
X525817Y140153D01*
X525792Y140119D02*
X525805Y140136D01*
X525779Y140102D02*
X525792Y140119D01*
X525766Y140085D02*
X525779Y140102D01*
X525753Y140068D02*
X525766Y140085D01*
X525741Y140050D02*
X525753Y140068D01*
X525728Y140033D02*
X525741Y140050D01*
X525715Y140016D02*
X525728Y140033D01*
X525702Y139999D02*
X525715Y140016D01*
X525690Y139982D02*
X525702Y139999D01*
X525677Y139964D02*
X525690Y139982D01*
X525665Y139947D02*
X525677Y139964D01*
X525652Y139930D02*
X525665Y139947D01*
X525639Y139913D02*
X525652Y139930D01*
X525627Y139895D02*
X525639Y139913D01*
X525614Y139878D02*
X525627Y139895D01*
X525601Y139861D02*
X525614Y139878D01*
X525589Y139844D02*
X525601Y139861D01*
X525576Y139826D02*
X525589Y139844D01*
X525564Y139809D02*
X525576Y139826D01*
X525551Y139792D02*
X525564Y139809D01*
X525539Y139775D02*
X525551Y139792D01*
X525526Y139757D02*
X525539Y139775D01*
X525514Y139740D02*
X525526Y139757D01*
X525501Y139723D02*
X525514Y139740D01*
X525489Y139705D02*
X525501Y139723D01*
X525476Y139688D02*
X525489Y139705D01*
X525464Y139671D02*
X525476Y139688D01*
X525452Y139653D02*
X525464Y139671D01*
X525439Y139636D02*
X525452Y139653D01*
X525427Y139618D02*
X525439Y139636D01*
X525415Y139601D02*
X525427Y139618D01*
X525402Y139583D02*
X525415Y139601D01*
X525390Y139566D02*
X525402Y139583D01*
X525378Y139549D02*
X525390Y139566D01*
X525365Y139531D02*
X525378Y139549D01*
X525353Y139514D02*
X525365Y139531D01*
X525341Y139496D02*
X525353Y139514D01*
X525329Y139479D02*
X525341Y139496D01*
X525317Y139461D02*
X525329Y139479D01*
X525305Y139444D02*
X525317Y139461D01*
X525286Y139417D02*
X525305Y139444D01*
X525268Y139391D02*
X525286Y139417D01*
X525250Y139365D02*
X525268Y139391D01*
X525232Y139338D02*
X525250Y139365D01*
X525214Y139312D02*
X525232Y139338D01*
X525196Y139286D02*
X525214Y139312D01*
X525178Y139259D02*
X525196Y139286D01*
X525161Y139233D02*
X525178Y139259D01*
X525143Y139206D02*
X525161Y139233D01*
X525125Y139179D02*
X525143Y139206D01*
X525107Y139153D02*
X525125Y139179D01*
X525090Y139126D02*
X525107Y139153D01*
X525072Y139100D02*
X525090Y139126D01*
X525055Y139073D02*
X525072Y139100D01*
X525037Y139046D02*
X525055Y139073D01*
X525020Y139020D02*
X525037Y139046D01*
X525002Y138993D02*
X525020Y139020D01*
X524985Y138966D02*
X525002Y138993D01*
X524968Y138939D02*
X524985Y138966D01*
X524951Y138912D02*
X524968Y138939D01*
X524934Y138885D02*
X524951Y138912D01*
X524917Y138858D02*
X524934Y138885D01*
X524900Y138831D02*
X524917Y138858D01*
X524883Y138804D02*
X524900Y138831D01*
X524866Y138777D02*
X524883Y138804D01*
X524849Y138750D02*
X524866Y138777D01*
X524833Y138723D02*
X524849Y138750D01*
X524816Y138696D02*
X524833Y138723D01*
X524799Y138669D02*
X524816Y138696D01*
X524783Y138641D02*
X524799Y138669D01*
X524766Y138614D02*
X524783Y138641D01*
X524750Y138587D02*
X524766Y138614D01*
X524734Y138559D02*
X524750Y138587D01*
X524712Y138523D02*
X524734Y138559D01*
X524691Y138486D02*
X524712Y138523D01*
X524669Y138450D02*
X524691Y138486D01*
X524648Y138413D02*
X524669Y138450D01*
X524627Y138376D02*
X524648Y138413D01*
X524606Y138339D02*
X524627Y138376D01*
X524585Y138302D02*
X524606Y138339D01*
X524564Y138265D02*
X524585Y138302D01*
X524544Y138228D02*
X524564Y138265D01*
X524523Y138191D02*
X524544Y138228D01*
X524503Y138154D02*
X524523Y138191D01*
X524483Y138116D02*
X524503Y138154D01*
X524463Y138079D02*
X524483Y138116D01*
X524443Y138041D02*
X524463Y138079D01*
X524404Y137966D02*
X524443Y138041D01*
X524374Y137909D02*
X524404Y137966D01*
X524346Y137852D02*
X524374Y137909D01*
X524317Y137795D02*
X524346Y137852D01*
X524289Y137738D02*
X524317Y137795D01*
X524261Y137681D02*
X524289Y137738D01*
X524238Y137633D02*
X524261Y137681D01*
X524216Y137585D02*
X524238Y137633D01*
X524193Y137537D02*
X524216Y137585D01*
X524171Y137488D02*
X524193Y137537D01*
X524149Y137440D02*
X524171Y137488D01*
X524127Y137391D02*
X524149Y137440D01*
X524105Y137343D02*
X524127Y137391D01*
X524084Y137294D02*
X524105Y137343D01*
X524062Y137245D02*
X524084Y137294D01*
X524042Y137196D02*
X524062Y137245D01*
X524021Y137147D02*
X524042Y137196D01*
X524000Y137098D02*
X524021Y137147D01*
X523980Y137049D02*
X524000Y137098D01*
X523959Y136999D02*
X523980Y137049D01*
X523939Y136950D02*
X523959Y136999D01*
X523919Y136901D02*
X523939Y136950D01*
X523900Y136851D02*
X523919Y136901D01*
X523880Y136801D02*
X523900Y136851D01*
X523861Y136752D02*
X523880Y136801D01*
X523841Y136702D02*
X523861Y136752D01*
X523822Y136652D02*
X523841Y136702D01*
X523804Y136602D02*
X523822Y136652D01*
X523785Y136552D02*
X523804Y136602D01*
X523767Y136502D02*
X523785Y136552D01*
X523748Y136451D02*
X523767Y136502D01*
X523730Y136401D02*
X523748Y136451D01*
X523712Y136351D02*
X523730Y136401D01*
X523698Y136310D02*
X523712Y136351D01*
X523684Y136270D02*
X523698Y136310D01*
X523670Y136229D02*
X523684Y136270D01*
X523656Y136189D02*
X523670Y136229D01*
X523643Y136148D02*
X523656Y136189D01*
X523629Y136108D02*
X523643Y136148D01*
X523615Y136067D02*
X523629Y136108D01*
X523602Y136027D02*
X523615Y136067D01*
X523589Y135986D02*
X523602Y136027D01*
X523575Y135945D02*
X523589Y135986D01*
X523562Y135904D02*
X523575Y135945D01*
X523549Y135864D02*
X523562Y135904D01*
X523536Y135823D02*
X523549Y135864D01*
X523523Y135782D02*
X523536Y135823D01*
X523510Y135741D02*
X523523Y135782D01*
X523498Y135700D02*
X523510Y135741D01*
X523485Y135659D02*
X523498Y135700D01*
X523473Y135618D02*
X523485Y135659D01*
X523460Y135577D02*
X523473Y135618D01*
X523448Y135536D02*
X523460Y135577D01*
X523436Y135495D02*
X523448Y135536D01*
X523424Y135454D02*
X523436Y135495D01*
X523412Y135413D02*
X523424Y135454D01*
X523400Y135372D02*
X523412Y135413D01*
X523388Y135330D02*
X523400Y135372D01*
X523376Y135289D02*
X523388Y135330D01*
X523364Y135248D02*
X523376Y135289D01*
X523353Y135207D02*
X523364Y135248D01*
X523341Y135166D02*
X523353Y135207D01*
X523330Y135124D02*
X523341Y135166D01*
X523318Y135083D02*
X523330Y135124D01*
X523307Y135042D02*
X523318Y135083D01*
X523296Y135000D02*
X523307Y135042D01*
X523285Y134959D02*
X523296Y135000D01*
X523274Y134918D02*
X523285Y134959D01*
X523263Y134876D02*
X523274Y134918D01*
X523255Y134845D02*
X523263Y134876D01*
X523247Y134814D02*
X523255Y134845D01*
X523236Y134773D02*
X523247Y134814D01*
X523225Y134731D02*
X523236Y134773D01*
X523215Y134690D02*
X523225Y134731D01*
X523204Y134649D02*
X523215Y134690D01*
X523194Y134607D02*
X523204Y134649D01*
X523183Y134566D02*
X523194Y134607D01*
X523175Y134535D02*
X523183Y134566D01*
X523168Y134503D02*
X523175Y134535D01*
X523160Y134472D02*
X523168Y134503D01*
X523152Y134441D02*
X523160Y134472D01*
X523145Y134410D02*
X523152Y134441D01*
X523137Y134379D02*
X523145Y134410D01*
X523130Y134348D02*
X523137Y134379D01*
X523122Y134317D02*
X523130Y134348D01*
X523115Y134285D02*
X523122Y134317D01*
X523107Y134254D02*
X523115Y134285D01*
X523100Y134223D02*
X523107Y134254D01*
X523093Y134192D02*
X523100Y134223D01*
X523085Y134161D02*
X523093Y134192D01*
X523078Y134130D02*
X523085Y134161D01*
X523071Y134098D02*
X523078Y134130D01*
X523064Y134067D02*
X523071Y134098D01*
X523057Y134036D02*
X523064Y134067D01*
X523049Y134005D02*
X523057Y134036D01*
X523042Y133974D02*
X523049Y134005D01*
X523035Y133942D02*
X523042Y133974D01*
X523028Y133911D02*
X523035Y133942D01*
X523021Y133880D02*
X523028Y133911D01*
X523014Y133849D02*
X523021Y133880D01*
X523007Y133818D02*
X523014Y133849D01*
X523000Y133786D02*
X523007Y133818D01*
X522994Y133755D02*
X523000Y133786D01*
X522987Y133724D02*
X522994Y133755D01*
X522980Y133693D02*
X522987Y133724D01*
X522973Y133661D02*
X522980Y133693D01*
X522966Y133630D02*
X522973Y133661D01*
X522959Y133599D02*
X522966Y133630D01*
X522955Y133578D02*
X522959Y133599D01*
X522951Y133557D02*
X522955Y133578D01*
X522946Y133536D02*
X522951Y133557D01*
X522941Y133516D02*
X522946Y133536D01*
X522937Y133495D02*
X522941Y133516D01*
X522933Y133474D02*
X522937Y133495D01*
X522928Y133453D02*
X522933Y133474D01*
X522924Y133432D02*
X522928Y133453D01*
X522919Y133411D02*
X522924Y133432D01*
X522915Y133390D02*
X522919Y133411D01*
X522911Y133370D02*
X522915Y133390D01*
X522906Y133349D02*
X522911Y133370D01*
X522902Y133328D02*
X522906Y133349D01*
X522898Y133307D02*
X522902Y133328D01*
X522893Y133286D02*
X522898Y133307D01*
X522889Y133265D02*
X522893Y133286D01*
X522885Y133244D02*
X522889Y133265D01*
X522880Y133223D02*
X522885Y133244D01*
X522876Y133203D02*
X522880Y133223D01*
X522872Y133182D02*
X522876Y133203D01*
X522867Y133161D02*
X522872Y133182D01*
X522863Y133140D02*
X522867Y133161D01*
X522859Y133119D02*
X522863Y133140D01*
X522855Y133098D02*
X522859Y133119D01*
X522850Y133077D02*
X522855Y133098D01*
X522846Y133056D02*
X522850Y133077D01*
X522842Y133036D02*
X522846Y133056D01*
X522838Y133015D02*
X522842Y133036D01*
X522834Y132994D02*
X522838Y133015D01*
X522829Y132973D02*
X522834Y132994D01*
X522825Y132952D02*
X522829Y132973D01*
X522821Y132931D02*
X522825Y132952D01*
X522817Y132910D02*
X522821Y132931D01*
X522813Y132889D02*
X522817Y132910D01*
X522809Y132869D02*
X522813Y132889D01*
X522804Y132848D02*
X522809Y132869D01*
X522800Y132827D02*
X522804Y132848D01*
X522796Y132806D02*
X522800Y132827D01*
X522792Y132785D02*
X522796Y132806D01*
X522788Y132764D02*
X522792Y132785D01*
X522784Y132743D02*
X522788Y132764D01*
X522780Y132722D02*
X522784Y132743D01*
X522776Y132701D02*
X522780Y132722D01*
X522771Y132680D02*
X522776Y132701D01*
X522767Y132660D02*
X522771Y132680D01*
X522763Y132639D02*
X522767Y132660D01*
X522759Y132618D02*
X522763Y132639D01*
X522755Y132597D02*
X522759Y132618D01*
X522751Y132576D02*
X522755Y132597D01*
X522749Y132566D02*
X522751Y132576D01*
X522747Y132555D02*
X522749Y132566D01*
X522745Y132545D02*
X522747Y132555D01*
X522743Y132534D02*
X522745Y132545D01*
X522741Y132524D02*
X522743Y132534D01*
X522739Y132513D02*
X522741Y132524D01*
X522737Y132503D02*
X522739Y132513D01*
X522735Y132492D02*
X522737Y132503D01*
X522733Y132482D02*
X522735Y132492D01*
X522731Y132472D02*
X522733Y132482D01*
X522729Y132461D02*
X522731Y132472D01*
X522727Y132451D02*
X522729Y132461D01*
X522725Y132440D02*
X522727Y132451D01*
X522723Y132430D02*
X522725Y132440D01*
X522721Y132419D02*
X522723Y132430D01*
X522719Y132409D02*
X522721Y132419D01*
X522717Y132398D02*
X522719Y132409D01*
X522715Y132388D02*
X522717Y132398D01*
X522713Y132377D02*
X522715Y132388D01*
X522711Y132367D02*
X522713Y132377D01*
X522709Y132357D02*
X522711Y132367D01*
X522707Y132346D02*
X522709Y132357D01*
X522705Y132336D02*
X522707Y132346D01*
X522703Y132325D02*
X522705Y132336D01*
X522701Y132315D02*
X522703Y132325D01*
X522699Y132304D02*
X522701Y132315D01*
X522697Y132294D02*
X522699Y132304D01*
X522695Y132283D02*
X522697Y132294D01*
X522693Y132273D02*
X522695Y132283D01*
X522691Y132262D02*
X522693Y132273D01*
X522689Y132252D02*
X522691Y132262D01*
X522687Y132241D02*
X522689Y132252D01*
X522685Y132231D02*
X522687Y132241D01*
X522683Y132221D02*
X522685Y132231D01*
X522681Y132210D02*
X522683Y132221D01*
X522679Y132200D02*
X522681Y132210D01*
X522677Y132189D02*
X522679Y132200D01*
X522675Y132179D02*
X522677Y132189D01*
X522673Y132168D02*
X522675Y132179D01*
X522671Y132158D02*
X522673Y132168D01*
X522669Y132147D02*
X522671Y132158D01*
X522667Y132137D02*
X522669Y132147D01*
X522665Y132126D02*
X522667Y132137D01*
X522663Y132116D02*
X522665Y132126D01*
X522661Y132106D02*
X522663Y132116D01*
X522659Y132095D02*
X522661Y132106D01*
X522657Y132085D02*
X522659Y132095D01*
X522655Y132074D02*
X522657Y132085D01*
X522653Y132064D02*
X522655Y132074D01*
X522651Y132053D02*
X522653Y132064D01*
X522649Y132043D02*
X522651Y132053D01*
X522647Y132032D02*
X522649Y132043D01*
X522645Y132022D02*
X522647Y132032D01*
X522643Y132011D02*
X522645Y132022D01*
X522641Y132001D02*
X522643Y132011D01*
X522639Y131990D02*
X522641Y132001D01*
X522637Y131980D02*
X522639Y131990D01*
X522635Y131969D02*
X522637Y131980D01*
X522634Y131959D02*
X522635Y131969D01*
X522632Y131949D02*
X522634Y131959D01*
X522629Y131938D02*
X522632Y131949D01*
X522628Y131928D02*
X522629Y131938D01*
X522626Y131917D02*
X522628Y131928D01*
X522624Y131907D02*
X522626Y131917D01*
X522622Y131896D02*
X522624Y131907D01*
X522620Y131886D02*
X522622Y131896D01*
X522618Y131875D02*
X522620Y131886D01*
X522616Y131865D02*
X522618Y131875D01*
X522614Y131854D02*
X522616Y131865D01*
X522612Y131844D02*
X522614Y131854D01*
X522610Y131834D02*
X522612Y131844D01*
X522608Y131823D02*
X522610Y131834D01*
X522606Y131813D02*
X522608Y131823D01*
X522604Y131802D02*
X522606Y131813D01*
X522602Y131792D02*
X522604Y131802D01*
X522600Y131781D02*
X522602Y131792D01*
X522598Y131771D02*
X522600Y131781D01*
X522596Y131760D02*
X522598Y131771D01*
X522594Y131750D02*
X522596Y131760D01*
X522592Y131739D02*
X522594Y131750D01*
X522590Y131729D02*
X522592Y131739D01*
X522588Y131718D02*
X522590Y131729D01*
X522586Y131708D02*
X522588Y131718D01*
X522584Y131697D02*
X522586Y131708D01*
X522582Y131687D02*
X522584Y131697D01*
X522580Y131677D02*
X522582Y131687D01*
X522579Y131666D02*
X522580Y131677D01*
X522577Y131656D02*
X522579Y131666D01*
X522575Y131645D02*
X522577Y131656D01*
X522573Y131635D02*
X522575Y131645D01*
X522571Y131624D02*
X522573Y131635D01*
X522569Y131614D02*
X522571Y131624D01*
X522567Y131603D02*
X522569Y131614D01*
X522565Y131593D02*
X522567Y131603D01*
X522563Y131582D02*
X522565Y131593D01*
X522561Y131572D02*
X522563Y131582D01*
X522559Y131562D02*
X522561Y131572D01*
X522557Y131551D02*
X522559Y131562D01*
X522555Y131541D02*
X522557Y131551D01*
X530080Y136866D02*
X530099Y136870D01*
X530070Y136864D02*
X530080Y136866D01*
X530060Y136863D02*
X530070Y136864D01*
X530051Y136861D02*
X530060Y136863D01*
X530041Y136859D02*
X530051Y136861D01*
X530031Y136857D02*
X530041Y136859D01*
X530021Y136856D02*
X530031Y136857D01*
X530012Y136854D02*
X530021Y136856D01*
X530002Y136852D02*
X530012Y136854D01*
X529992Y136850D02*
X530002Y136852D01*
X529982Y136848D02*
X529992Y136850D01*
X529973Y136847D02*
X529982Y136848D01*
X529963Y136845D02*
X529973Y136847D01*
X529953Y136843D02*
X529963Y136845D01*
X529943Y136841D02*
X529953Y136843D01*
X529934Y136839D02*
X529943Y136841D01*
X529924Y136838D02*
X529934Y136839D01*
X529914Y136836D02*
X529924Y136838D01*
X529904Y136834D02*
X529914Y136836D01*
X529894Y136832D02*
X529904Y136834D01*
X529885Y136831D02*
X529894Y136832D01*
X529875Y136829D02*
X529885Y136831D01*
X529865Y136827D02*
X529875Y136829D01*
X529855Y136825D02*
X529865Y136827D01*
X529846Y136823D02*
X529855Y136825D01*
X529836Y136822D02*
X529846Y136823D01*
X529826Y136820D02*
X529836Y136822D01*
X529816Y136818D02*
X529826Y136820D01*
X529807Y136816D02*
X529816Y136818D01*
X529797Y136814D02*
X529807Y136816D01*
X529787Y136813D02*
X529797Y136814D01*
X529778Y136811D02*
X529787Y136813D01*
X529768Y136809D02*
X529778Y136811D01*
X529758Y136807D02*
X529768Y136809D01*
X529748Y136805D02*
X529758Y136807D01*
X529739Y136804D02*
X529748Y136805D01*
X529729Y136802D02*
X529739Y136804D01*
X529719Y136800D02*
X529729Y136802D01*
X529709Y136798D02*
X529719Y136800D01*
X529700Y136796D02*
X529709Y136798D01*
X529690Y136795D02*
X529700Y136796D01*
X529680Y136793D02*
X529690Y136795D01*
X529670Y136791D02*
X529680Y136793D01*
X529661Y136789D02*
X529670Y136791D01*
X529651Y136787D02*
X529661Y136789D01*
X529641Y136786D02*
X529651Y136787D01*
X529632Y136784D02*
X529641Y136786D01*
X529622Y136782D02*
X529632Y136784D01*
X529612Y136780D02*
X529622Y136782D01*
X529602Y136778D02*
X529612Y136780D01*
X529593Y136776D02*
X529602Y136778D01*
X529583Y136775D02*
X529593Y136776D01*
X529573Y136773D02*
X529583Y136775D01*
X529564Y136771D02*
X529573Y136773D01*
X529554Y136769D02*
X529564Y136771D01*
X529544Y136767D02*
X529554Y136769D01*
X529534Y136766D02*
X529544Y136767D01*
X529525Y136764D02*
X529534Y136766D01*
X529515Y136762D02*
X529525Y136764D01*
X529505Y136760D02*
X529515Y136762D01*
X529495Y136758D02*
X529505Y136760D01*
X529486Y136756D02*
X529495Y136758D01*
X529476Y136754D02*
X529486Y136756D01*
X529466Y136753D02*
X529476Y136754D01*
X529457Y136751D02*
X529466Y136753D01*
X529447Y136749D02*
X529457Y136751D01*
X529437Y136747D02*
X529447Y136749D01*
X529427Y136745D02*
X529437Y136747D01*
X529418Y136743D02*
X529427Y136745D01*
X529408Y136741D02*
X529418Y136743D01*
X529398Y136740D02*
X529408Y136741D01*
X529389Y136738D02*
X529398Y136740D01*
X529379Y136736D02*
X529389Y136738D01*
X529369Y136734D02*
X529379Y136736D01*
X529359Y136732D02*
X529369Y136734D01*
X529350Y136730D02*
X529359Y136732D01*
X529340Y136728D02*
X529350Y136730D01*
X529330Y136726D02*
X529340Y136728D01*
X529321Y136725D02*
X529330Y136726D01*
X529311Y136723D02*
X529321Y136725D01*
X529301Y136721D02*
X529311Y136723D01*
X529292Y136719D02*
X529301Y136721D01*
X529282Y136717D02*
X529292Y136719D01*
X529272Y136715D02*
X529282Y136717D01*
X529262Y136713D02*
X529272Y136715D01*
X529253Y136711D02*
X529262Y136713D01*
X529243Y136709D02*
X529253Y136711D01*
X529233Y136707D02*
X529243Y136709D01*
X529224Y136706D02*
X529233Y136707D01*
X529214Y136704D02*
X529224Y136706D01*
X529204Y136702D02*
X529214Y136704D01*
X529195Y136700D02*
X529204Y136702D01*
X529185Y136698D02*
X529195Y136700D01*
X529175Y136696D02*
X529185Y136698D01*
X529166Y136694D02*
X529175Y136696D01*
X529156Y136692D02*
X529166Y136694D01*
X529146Y136690D02*
X529156Y136692D01*
X529137Y136688D02*
X529146Y136690D01*
X529127Y136686D02*
X529137Y136688D01*
X529117Y136684D02*
X529127Y136686D01*
X529108Y136682D02*
X529117Y136684D01*
X529098Y136680D02*
X529108Y136682D01*
X529088Y136679D02*
X529098Y136680D01*
X529069Y136675D02*
X529088Y136679D01*
X529050Y136671D02*
X529069Y136675D01*
X529030Y136667D02*
X529050Y136671D01*
X529011Y136663D02*
X529030Y136667D01*
X528992Y136659D02*
X529011Y136663D01*
X528972Y136655D02*
X528992Y136659D01*
X528953Y136651D02*
X528972Y136655D01*
X528934Y136647D02*
X528953Y136651D01*
X528915Y136643D02*
X528934Y136647D01*
X528896Y136639D02*
X528915Y136643D01*
X528876Y136635D02*
X528896Y136639D01*
X528857Y136630D02*
X528876Y136635D01*
X528838Y136626D02*
X528857Y136630D01*
X528819Y136622D02*
X528838Y136626D01*
X528799Y136618D02*
X528819Y136622D01*
X528780Y136614D02*
X528799Y136618D01*
X528761Y136610D02*
X528780Y136614D01*
X528742Y136606D02*
X528761Y136610D01*
X528723Y136601D02*
X528742Y136606D01*
X528703Y136597D02*
X528723Y136601D01*
X528684Y136593D02*
X528703Y136597D01*
X528665Y136589D02*
X528684Y136593D01*
X528646Y136584D02*
X528665Y136589D01*
X528627Y136580D02*
X528646Y136584D01*
X528608Y136576D02*
X528627Y136580D01*
X528589Y136571D02*
X528608Y136576D01*
X528570Y136567D02*
X528589Y136571D01*
X528550Y136563D02*
X528570Y136567D01*
X528531Y136558D02*
X528550Y136563D01*
X528512Y136554D02*
X528531Y136558D01*
X528493Y136549D02*
X528512Y136554D01*
X528474Y136545D02*
X528493Y136549D01*
X528455Y136540D02*
X528474Y136545D01*
X528436Y136536D02*
X528455Y136540D01*
X528417Y136531D02*
X528436Y136536D01*
X528398Y136527D02*
X528417Y136531D01*
X528379Y136522D02*
X528398Y136527D01*
X528360Y136517D02*
X528379Y136522D01*
X528341Y136513D02*
X528360Y136517D01*
X528322Y136508D02*
X528341Y136513D01*
X528303Y136503D02*
X528322Y136508D01*
X528285Y136499D02*
X528303Y136503D01*
X528266Y136494D02*
X528285Y136499D01*
X528247Y136489D02*
X528266Y136494D01*
X528228Y136484D02*
X528247Y136489D01*
X528209Y136480D02*
X528228Y136484D01*
X528190Y136475D02*
X528209Y136480D01*
X528171Y136470D02*
X528190Y136475D01*
X528152Y136465D02*
X528171Y136470D01*
X528133Y136460D02*
X528152Y136465D01*
X528115Y136455D02*
X528133Y136460D01*
X528096Y136450D02*
X528115Y136455D01*
X528077Y136445D02*
X528096Y136450D01*
X528058Y136440D02*
X528077Y136445D01*
X528040Y136435D02*
X528058Y136440D01*
X528021Y136430D02*
X528040Y136435D01*
X528002Y136425D02*
X528021Y136430D01*
X527983Y136420D02*
X528002Y136425D01*
X527965Y136415D02*
X527983Y136420D01*
X527937Y136407D02*
X527965Y136415D01*
X527909Y136399D02*
X527937Y136407D01*
X527881Y136391D02*
X527909Y136399D01*
X527853Y136383D02*
X527881Y136391D01*
X527825Y136375D02*
X527853Y136383D01*
X527797Y136367D02*
X527825Y136375D01*
X527769Y136359D02*
X527797Y136367D01*
X527741Y136350D02*
X527769Y136359D01*
X527714Y136342D02*
X527741Y136350D01*
X527686Y136334D02*
X527714Y136342D01*
X527658Y136325D02*
X527686Y136334D01*
X527631Y136316D02*
X527658Y136325D01*
X527603Y136308D02*
X527631Y136316D01*
X527576Y136299D02*
X527603Y136308D01*
X527548Y136290D02*
X527576Y136299D01*
X527521Y136281D02*
X527548Y136290D01*
X527493Y136272D02*
X527521Y136281D01*
X527466Y136263D02*
X527493Y136272D01*
X527438Y136254D02*
X527466Y136263D01*
X527411Y136245D02*
X527438Y136254D01*
X527384Y136236D02*
X527411Y136245D01*
X527357Y136226D02*
X527384Y136236D01*
X527329Y136217D02*
X527357Y136226D01*
X527302Y136207D02*
X527329Y136217D01*
X527275Y136197D02*
X527302Y136207D01*
X527248Y136188D02*
X527275Y136197D01*
X527221Y136178D02*
X527248Y136188D01*
X527194Y136168D02*
X527221Y136178D01*
X527167Y136158D02*
X527194Y136168D01*
X527140Y136148D02*
X527167Y136158D01*
X527113Y136138D02*
X527140Y136148D01*
X527087Y136127D02*
X527113Y136138D01*
X527060Y136117D02*
X527087Y136127D01*
X527033Y136107D02*
X527060Y136117D01*
X527007Y136096D02*
X527033Y136107D01*
X526980Y136085D02*
X527007Y136096D01*
X526945Y136071D02*
X526980Y136085D01*
X526909Y136056D02*
X526945Y136071D01*
X526874Y136042D02*
X526909Y136056D01*
X526839Y136027D02*
X526874Y136042D01*
X526804Y136012D02*
X526839Y136027D01*
X526769Y135997D02*
X526804Y136012D01*
X526734Y135981D02*
X526769Y135997D01*
X526699Y135966D02*
X526734Y135981D01*
X526665Y135950D02*
X526699Y135966D01*
X526630Y135934D02*
X526665Y135950D01*
X526596Y135917D02*
X526630Y135934D01*
X526561Y135901D02*
X526596Y135917D01*
X526527Y135884D02*
X526561Y135901D01*
X526493Y135868D02*
X526527Y135884D01*
X526459Y135851D02*
X526493Y135868D01*
X526425Y135833D02*
X526459Y135851D01*
X526383Y135811D02*
X526425Y135833D01*
X526341Y135789D02*
X526383Y135811D01*
X526299Y135767D02*
X526341Y135789D01*
X526257Y135744D02*
X526299Y135767D01*
X526215Y135721D02*
X526257Y135744D01*
X526174Y135697D02*
X526215Y135721D01*
X526132Y135674D02*
X526174Y135697D01*
X526083Y135644D02*
X526132Y135674D01*
X526034Y135615D02*
X526083Y135644D01*
X525993Y135590D02*
X526034Y135615D01*
X525953Y135564D02*
X525993Y135590D01*
X525913Y135539D02*
X525953Y135564D01*
X525872Y135513D02*
X525913Y135539D01*
X525832Y135486D02*
X525872Y135513D01*
X525793Y135459D02*
X525832Y135486D01*
X525753Y135432D02*
X525793Y135459D01*
X525713Y135405D02*
X525753Y135432D01*
X525674Y135377D02*
X525713Y135405D01*
X525635Y135349D02*
X525674Y135377D01*
X525596Y135321D02*
X525635Y135349D01*
X525558Y135292D02*
X525596Y135321D01*
X525519Y135263D02*
X525558Y135292D01*
X525481Y135234D02*
X525519Y135263D01*
X525443Y135205D02*
X525481Y135234D01*
X525405Y135175D02*
X525443Y135205D01*
X525367Y135145D02*
X525405Y135175D01*
X525329Y135114D02*
X525367Y135145D01*
X525292Y135083D02*
X525329Y135114D01*
X525254Y135053D02*
X525292Y135083D01*
X525217Y135021D02*
X525254Y135053D01*
X525180Y134990D02*
X525217Y135021D01*
X525144Y134958D02*
X525180Y134990D01*
X525107Y134926D02*
X525144Y134958D01*
X525071Y134894D02*
X525107Y134926D01*
X525035Y134861D02*
X525071Y134894D01*
X524999Y134829D02*
X525035Y134861D01*
X524963Y134796D02*
X524999Y134829D01*
X524927Y134762D02*
X524963Y134796D01*
X524892Y134729D02*
X524927Y134762D01*
X524857Y134695D02*
X524892Y134729D01*
X524822Y134661D02*
X524857Y134695D01*
X524787Y134627D02*
X524822Y134661D01*
X524752Y134593D02*
X524787Y134627D01*
X524718Y134558D02*
X524752Y134593D01*
X524683Y134524D02*
X524718Y134558D01*
X524649Y134489D02*
X524683Y134524D01*
X524615Y134453D02*
X524649Y134489D01*
X524581Y134418D02*
X524615Y134453D01*
X524548Y134383D02*
X524581Y134418D01*
X524514Y134347D02*
X524548Y134383D01*
X524481Y134311D02*
X524514Y134347D01*
X524448Y134275D02*
X524481Y134311D01*
X524415Y134239D02*
X524448Y134275D01*
X524383Y134202D02*
X524415Y134239D01*
X524350Y134166D02*
X524383Y134202D01*
X524318Y134129D02*
X524350Y134166D01*
X524286Y134092D02*
X524318Y134129D01*
X524254Y134055D02*
X524286Y134092D01*
X524222Y134018D02*
X524254Y134055D01*
X524185Y133973D02*
X524222Y134018D01*
X524147Y133928D02*
X524185Y133973D01*
X524110Y133883D02*
X524147Y133928D01*
X524073Y133838D02*
X524110Y133883D01*
X524036Y133792D02*
X524073Y133838D01*
X524000Y133746D02*
X524036Y133792D01*
X523970Y133708D02*
X524000Y133746D01*
X523951Y133685D02*
X523970Y133708D01*
X523934Y133662D02*
X523951Y133685D01*
X523916Y133639D02*
X523934Y133662D01*
X523898Y133616D02*
X523916Y133639D01*
X523880Y133593D02*
X523898Y133616D01*
X523863Y133570D02*
X523880Y133593D01*
X523845Y133546D02*
X523863Y133570D01*
X523827Y133523D02*
X523845Y133546D01*
X523810Y133500D02*
X523827Y133523D01*
X523792Y133476D02*
X523810Y133500D01*
X523775Y133453D02*
X523792Y133476D01*
X523758Y133430D02*
X523775Y133453D01*
X523740Y133406D02*
X523758Y133430D01*
X523723Y133383D02*
X523740Y133406D01*
X523706Y133359D02*
X523723Y133383D01*
X523689Y133336D02*
X523706Y133359D01*
X523672Y133312D02*
X523689Y133336D01*
X523655Y133289D02*
X523672Y133312D01*
X523638Y133265D02*
X523655Y133289D01*
X523621Y133241D02*
X523638Y133265D01*
X523605Y133218D02*
X523621Y133241D01*
X523588Y133194D02*
X523605Y133218D01*
X523571Y133170D02*
X523588Y133194D01*
X523555Y133147D02*
X523571Y133170D01*
X523538Y133123D02*
X523555Y133147D01*
X523527Y133107D02*
X523538Y133123D01*
X523516Y133091D02*
X523527Y133107D01*
X523505Y133075D02*
X523516Y133091D01*
X523494Y133059D02*
X523505Y133075D01*
X523483Y133043D02*
X523494Y133059D01*
X523472Y133027D02*
X523483Y133043D01*
X523461Y133011D02*
X523472Y133027D01*
X523450Y132995D02*
X523461Y133011D01*
X523439Y132979D02*
X523450Y132995D01*
X523429Y132964D02*
X523439Y132979D01*
X523418Y132948D02*
X523429Y132964D01*
X523407Y132931D02*
X523418Y132948D01*
X523396Y132915D02*
X523407Y132931D01*
X523385Y132899D02*
X523396Y132915D01*
X523375Y132883D02*
X523385Y132899D01*
X523364Y132867D02*
X523375Y132883D01*
X523353Y132851D02*
X523364Y132867D01*
X523343Y132835D02*
X523353Y132851D01*
X523332Y132819D02*
X523343Y132835D01*
X523321Y132803D02*
X523332Y132819D01*
X523311Y132787D02*
X523321Y132803D01*
X523300Y132771D02*
X523311Y132787D01*
X523289Y132755D02*
X523300Y132771D01*
X523279Y132739D02*
X523289Y132755D01*
X523268Y132722D02*
X523279Y132739D01*
X523257Y132706D02*
X523268Y132722D01*
X523247Y132690D02*
X523257Y132706D01*
X523236Y132674D02*
X523247Y132690D01*
X523226Y132658D02*
X523236Y132674D01*
X523215Y132642D02*
X523226Y132658D01*
X523205Y132625D02*
X523215Y132642D01*
X523194Y132609D02*
X523205Y132625D01*
X523184Y132593D02*
X523194Y132609D01*
X523174Y132577D02*
X523184Y132593D01*
X523163Y132561D02*
X523174Y132577D01*
X523153Y132544D02*
X523163Y132561D01*
X523142Y132528D02*
X523153Y132544D01*
X523132Y132512D02*
X523142Y132528D01*
X523122Y132496D02*
X523132Y132512D01*
X523111Y132479D02*
X523122Y132496D01*
X523101Y132463D02*
X523111Y132479D01*
X523091Y132447D02*
X523101Y132463D01*
X523080Y132431D02*
X523091Y132447D01*
X523070Y132414D02*
X523080Y132431D01*
X523060Y132398D02*
X523070Y132414D01*
X523049Y132382D02*
X523060Y132398D01*
X523039Y132365D02*
X523049Y132382D01*
X523034Y132357D02*
X523039Y132365D01*
X523029Y132349D02*
X523034Y132357D01*
X523024Y132341D02*
X523029Y132349D01*
X523019Y132333D02*
X523024Y132341D01*
X523013Y132325D02*
X523019Y132333D01*
X523008Y132316D02*
X523013Y132325D01*
X523003Y132308D02*
X523008Y132316D01*
X522998Y132300D02*
X523003Y132308D01*
X522993Y132292D02*
X522998Y132300D01*
X522988Y132284D02*
X522993Y132292D01*
X522983Y132275D02*
X522988Y132284D01*
X522977Y132267D02*
X522983Y132275D01*
X522972Y132259D02*
X522977Y132267D01*
X522967Y132251D02*
X522972Y132259D01*
X522962Y132243D02*
X522967Y132251D01*
X522957Y132235D02*
X522962Y132243D01*
X522952Y132226D02*
X522957Y132235D01*
X522947Y132218D02*
X522952Y132226D01*
X522942Y132210D02*
X522947Y132218D01*
X522937Y132202D02*
X522942Y132210D01*
X522932Y132194D02*
X522937Y132202D01*
X522927Y132185D02*
X522932Y132194D01*
X522922Y132177D02*
X522927Y132185D01*
X522917Y132169D02*
X522922Y132177D01*
X522911Y132161D02*
X522917Y132169D01*
X522906Y132153D02*
X522911Y132161D01*
X522901Y132144D02*
X522906Y132153D01*
X522896Y132136D02*
X522901Y132144D01*
X522891Y132128D02*
X522896Y132136D01*
X522886Y132120D02*
X522891Y132128D01*
X522881Y132112D02*
X522886Y132120D01*
X522876Y132104D02*
X522881Y132112D01*
X522871Y132095D02*
X522876Y132104D01*
X522866Y132087D02*
X522871Y132095D01*
X522861Y132079D02*
X522866Y132087D01*
X522856Y132071D02*
X522861Y132079D01*
X522851Y132062D02*
X522856Y132071D01*
X522846Y132054D02*
X522851Y132062D01*
X522840Y132046D02*
X522846Y132054D01*
X522835Y132038D02*
X522840Y132046D01*
X522830Y132030D02*
X522835Y132038D01*
X522825Y132021D02*
X522830Y132030D01*
X522820Y132013D02*
X522825Y132021D01*
X522815Y132005D02*
X522820Y132013D01*
X522810Y131997D02*
X522815Y132005D01*
X522805Y131989D02*
X522810Y131997D01*
X522800Y131980D02*
X522805Y131989D01*
X522795Y131972D02*
X522800Y131980D01*
X522790Y131964D02*
X522795Y131972D01*
X522785Y131956D02*
X522790Y131964D01*
X522780Y131948D02*
X522785Y131956D01*
X522775Y131939D02*
X522780Y131948D01*
X522770Y131931D02*
X522775Y131939D01*
X522765Y131923D02*
X522770Y131931D01*
X522760Y131915D02*
X522765Y131923D01*
X522755Y131906D02*
X522760Y131915D01*
X522750Y131898D02*
X522755Y131906D01*
X522745Y131890D02*
X522750Y131898D01*
X522740Y131882D02*
X522745Y131890D01*
X522735Y131874D02*
X522740Y131882D01*
X522730Y131865D02*
X522735Y131874D01*
X522725Y131857D02*
X522730Y131865D01*
X522720Y131849D02*
X522725Y131857D01*
X522715Y131841D02*
X522720Y131849D01*
X522710Y131832D02*
X522715Y131841D01*
X522705Y131824D02*
X522710Y131832D01*
X522700Y131816D02*
X522705Y131824D01*
X522695Y131808D02*
X522700Y131816D01*
X522690Y131799D02*
X522695Y131808D01*
X522685Y131791D02*
X522690Y131799D01*
X522680Y131783D02*
X522685Y131791D01*
X522675Y131775D02*
X522680Y131783D01*
X522670Y131766D02*
X522675Y131775D01*
X522665Y131758D02*
X522670Y131766D01*
X522660Y131750D02*
X522665Y131758D01*
X522655Y131742D02*
X522660Y131750D01*
X522650Y131734D02*
X522655Y131742D01*
X522645Y131725D02*
X522650Y131734D01*
X522640Y131717D02*
X522645Y131725D01*
X522635Y131709D02*
X522640Y131717D01*
X522630Y131701D02*
X522635Y131709D01*
X522625Y131692D02*
X522630Y131701D01*
X522620Y131684D02*
X522625Y131692D01*
X522615Y131676D02*
X522620Y131684D01*
X522610Y131668D02*
X522615Y131676D01*
X522605Y131659D02*
X522610Y131668D01*
X522600Y131651D02*
X522605Y131659D01*
X522595Y131643D02*
X522600Y131651D01*
X522590Y131635D02*
X522595Y131643D01*
X522585Y131626D02*
X522590Y131635D01*
X522580Y131618D02*
X522585Y131626D01*
X522575Y131610D02*
X522580Y131618D01*
X522570Y131602D02*
X522575Y131610D01*
X522565Y131594D02*
X522570Y131602D01*
X522560Y131585D02*
X522565Y131594D01*
X522555Y131577D02*
X522560Y131585D01*
X522550Y131569D02*
X522555Y131577D01*
X522545Y131561D02*
X522550Y131569D01*
X522540Y131552D02*
X522545Y131561D01*
X527219Y132619D02*
X527988Y131515D01*
D35*
X415504Y184800D02*
G03*
X415504Y184800I-1181J0D01*
G01*
D36*
X405957Y191395D02*
G03*
X405957Y191395I-492J0D01*
G01*
D37*
X342953Y143048D02*
Y146198D01*
X337047Y143048D02*
Y146198D01*
X322925Y152670D02*
X326075D01*
X322925Y158576D02*
X326075D01*
X358213Y140501D02*
X359787D01*
X358213Y137745D02*
X359787D01*
X324213Y166001D02*
X325787D01*
X324213Y163245D02*
X325787D01*
X324213Y171501D02*
X325787D01*
X324213Y168745D02*
X325787D01*
X324213Y178501D02*
X325787D01*
X324213Y175745D02*
X325787D01*
X322925Y184670D02*
X326075D01*
X322925Y190576D02*
X326075D01*
X322925Y193170D02*
X326075D01*
X322925Y199076D02*
X326075D01*
X372378Y184336D02*
Y185910D01*
X369622Y184336D02*
Y185910D01*
X346547Y143048D02*
Y146198D01*
X352453Y143048D02*
Y146198D01*
X389547Y175048D02*
Y178198D01*
X395453Y175048D02*
Y178198D01*
X406500Y209123D02*
X426500D01*
Y219123D01*
X406500D02*
X426500D01*
X406500Y209123D02*
Y219123D01*
X423333Y132623D02*
X442500D01*
X412500D02*
X442500D01*
X412500Y152623D02*
X442500D01*
X412500Y132623D02*
Y152623D01*
X442500Y132623D02*
Y152623D01*
X369500Y145623D02*
X404500D01*
Y160623D01*
X369500D02*
X404500D01*
X369500Y145623D02*
Y160623D01*
X452213Y136245D02*
X453787D01*
X452213Y139001D02*
X453787D01*
X297500Y153623D02*
X307500D01*
X297500D02*
Y193623D01*
X307500Y153623D02*
Y193623D01*
X297500D02*
X307500D01*
X410386Y165509D02*
X433614D01*
X410386Y188737D02*
X433614D01*
Y165509D02*
Y188737D01*
X410386Y165509D02*
Y188737D01*
D38*
X349499Y135122D02*
X349000Y135622D01*
X348000D01*
X347500Y135122D01*
Y133123D01*
X348000Y132623D01*
X349000D01*
X349499Y133123D01*
X350499Y132623D02*
X351499D01*
X350999D01*
Y135622D01*
X350499Y135122D01*
X312499Y188622D02*
X312000Y189122D01*
X311000D01*
X310500Y188622D01*
Y186623D01*
X311000Y186123D01*
X312000D01*
X312499Y186623D01*
X313499Y188622D02*
X313999Y189122D01*
X314999D01*
X315498Y188622D01*
Y188122D01*
X314999Y187623D01*
X314499D01*
X314999D01*
X315498Y187123D01*
Y186623D01*
X314999Y186123D01*
X313999D01*
X313499Y186623D01*
X312499Y156622D02*
X312000Y157122D01*
X311000D01*
X310500Y156622D01*
Y154623D01*
X311000Y154123D01*
X312000D01*
X312499Y154623D01*
X315498Y157122D02*
X313499D01*
Y155623D01*
X314499Y156123D01*
X314999D01*
X315498Y155623D01*
Y154623D01*
X314999Y154123D01*
X313999D01*
X313499Y154623D01*
X339399Y135099D02*
X338899Y135599D01*
X337900D01*
X337400Y135099D01*
Y133100D01*
X337900Y132600D01*
X338899D01*
X339399Y133100D01*
X342398Y135599D02*
X341399Y135099D01*
X340399Y134099D01*
Y133100D01*
X340899Y132600D01*
X341898D01*
X342398Y133100D01*
Y133600D01*
X341898Y134099D01*
X340399D01*
X312499Y197122D02*
X312000Y197622D01*
X311000D01*
X310500Y197122D01*
Y195123D01*
X311000Y194623D01*
X312000D01*
X312499Y195123D01*
X313499Y197622D02*
X315498D01*
Y197122D01*
X313499Y195123D01*
Y194623D01*
X396599Y130399D02*
X396099Y130899D01*
X395100D01*
X394600Y130399D01*
Y128400D01*
X395100Y127900D01*
X396099D01*
X396599Y128400D01*
X397599Y130399D02*
X398099Y130899D01*
X399098D01*
X399598Y130399D01*
Y129899D01*
X399098Y129400D01*
X399598Y128900D01*
Y128400D01*
X399098Y127900D01*
X398099D01*
X397599Y128400D01*
Y128900D01*
X398099Y129400D01*
X397599Y129899D01*
Y130399D01*
X398099Y129400D02*
X399098D01*
X376299Y130399D02*
X375799Y130899D01*
X374800D01*
X374300Y130399D01*
Y128400D01*
X374800Y127900D01*
X375799D01*
X376299Y128400D01*
X377299D02*
X377799Y127900D01*
X378799D01*
X379298Y128400D01*
Y130399D01*
X378799Y130899D01*
X377799D01*
X377299Y130399D01*
Y129899D01*
X377799Y129400D01*
X379298D01*
X390999Y187499D02*
X390499Y187999D01*
X389500D01*
X389000Y187499D01*
Y185500D01*
X389500Y185000D01*
X390499D01*
X390999Y185500D01*
X391999Y185000D02*
X392999D01*
X392499D01*
Y187999D01*
X391999Y187499D01*
X394498D02*
X394998Y187999D01*
X395998D01*
X396498Y187499D01*
Y185500D01*
X395998Y185000D01*
X394998D01*
X394498Y185500D01*
Y187499D01*
X369500Y190623D02*
Y193622D01*
X371000D01*
X371499Y193122D01*
Y192123D01*
X371000Y191623D01*
X369500D01*
X370500D02*
X371499Y190623D01*
X372499D02*
X373499D01*
X372999D01*
Y193622D01*
X372499Y193122D01*
X458700Y136100D02*
Y139099D01*
X460199D01*
X460699Y138599D01*
Y137600D01*
X460199Y137100D01*
X458700D01*
X459700D02*
X460699Y136100D01*
X461699Y138599D02*
X462199Y139099D01*
X463199D01*
X463698Y138599D01*
Y138099D01*
X463199Y137600D01*
X462699D01*
X463199D01*
X463698Y137100D01*
Y136600D01*
X463199Y136100D01*
X462199D01*
X461699Y136600D01*
X314500Y175123D02*
Y178122D01*
X316000D01*
X316499Y177622D01*
Y176623D01*
X316000Y176123D01*
X314500D01*
X315500D02*
X316499Y175123D01*
X318999D02*
Y178122D01*
X317499Y176623D01*
X319498D01*
X314547Y168623D02*
Y171622D01*
X316047D01*
X316547Y171122D01*
Y170123D01*
X316047Y169623D01*
X314547D01*
X315547D02*
X316547Y168623D01*
X319546Y171622D02*
X317546D01*
Y170123D01*
X318546Y170623D01*
X319046D01*
X319546Y170123D01*
Y169123D01*
X319046Y168623D01*
X318046D01*
X317546Y169123D01*
X314500Y163123D02*
Y166122D01*
X316000D01*
X316499Y165622D01*
Y164623D01*
X316000Y164123D01*
X314500D01*
X315500D02*
X316499Y163123D01*
X319498Y166122D02*
X318499Y165622D01*
X317499Y164623D01*
Y163623D01*
X317999Y163123D01*
X318999D01*
X319498Y163623D01*
Y164123D01*
X318999Y164623D01*
X317499D01*
X356400Y132900D02*
Y135899D01*
X357899D01*
X358399Y135399D01*
Y134399D01*
X357899Y133900D01*
X356400D01*
X357400D02*
X358399Y132900D01*
X359399Y135899D02*
X361398D01*
Y135399D01*
X359399Y133400D01*
Y132900D01*
X436000Y162199D02*
Y159700D01*
X436500Y159200D01*
X437500D01*
X437999Y159700D01*
Y162199D01*
X440998Y159200D02*
X438999D01*
X440998Y161199D01*
Y161699D01*
X440498Y162199D01*
X439499D01*
X438999Y161699D01*
X461200Y214600D02*
Y217599D01*
X462700D01*
X463199Y217099D01*
Y216100D01*
X462700Y215600D01*
X461200D01*
X466198Y217599D02*
X464199D01*
Y216100D01*
X465199Y216599D01*
X465698D01*
X466198Y216100D01*
Y215100D01*
X465698Y214600D01*
X464699D01*
X464199Y215100D01*
X344499Y215799D02*
X344000Y216299D01*
X343000D01*
X342500Y215799D01*
Y215299D01*
X343000Y214799D01*
X344000D01*
X344499Y214300D01*
Y213800D01*
X344000Y213300D01*
X343000D01*
X342500Y213800D01*
X345999Y215799D02*
Y215299D01*
X345499D01*
X346499D01*
X345999D01*
Y213800D01*
X346499Y213300D01*
X349498D02*
X348498D01*
X347998Y213800D01*
Y214799D01*
X348498Y215299D01*
X349498D01*
X349998Y214799D01*
Y214300D01*
X347998D01*
X350997Y212300D02*
Y215299D01*
X352497D01*
X352997Y214799D01*
Y213800D01*
X352497Y213300D01*
X350997D01*
X353996Y212300D02*
Y215299D01*
X355496D01*
X355996Y214799D01*
Y213800D01*
X355496Y213300D01*
X353996D01*
X358495D02*
X357495D01*
X356995Y213800D01*
Y214799D01*
X357495Y215299D01*
X358495D01*
X358995Y214799D01*
Y214300D01*
X356995D01*
X359994Y215299D02*
Y213300D01*
Y214300D01*
X360494Y214799D01*
X360994Y215299D01*
X361494D01*
X365992Y216299D02*
Y213300D01*
X367492D01*
X367992Y213800D01*
Y214300D01*
X367492Y214799D01*
X365992D01*
X367492D01*
X367992Y215299D01*
Y215799D01*
X367492Y216299D01*
X365992D01*
X369491Y213300D02*
X370491D01*
X370991Y213800D01*
Y214799D01*
X370491Y215299D01*
X369491D01*
X368991Y214799D01*
Y213800D01*
X369491Y213300D01*
X372490Y215299D02*
X373490D01*
X373990Y214799D01*
Y213300D01*
X372490D01*
X371990Y213800D01*
X372490Y214300D01*
X373990D01*
X374990Y215299D02*
Y213300D01*
Y214300D01*
X375489Y214799D01*
X375989Y215299D01*
X376489D01*
X379988Y216299D02*
Y213300D01*
X378488D01*
X377989Y213800D01*
Y214799D01*
X378488Y215299D01*
X379988D01*
X419100Y205100D02*
Y208099D01*
X420600D01*
X421099Y207599D01*
Y206599D01*
X420600Y206100D01*
X419100D01*
X420100D02*
X421099Y205100D01*
X422099Y208099D02*
X424098Y205100D01*
Y208099D02*
X422099Y205100D01*
X408900Y208099D02*
X410899D01*
X409900D01*
Y205100D01*
X411899Y208099D02*
X413898Y205100D01*
Y208099D02*
X411899Y205100D01*
D39*
X351333Y202999D02*
X350666D01*
X351000D01*
Y201333D01*
X350666Y201000D01*
X350333D01*
X350000Y201333D01*
X352333Y202333D02*
X352999D01*
X353332Y202000D01*
Y201000D01*
X352333D01*
X351999Y201333D01*
X352333Y201666D01*
X353332D01*
X353999Y201000D02*
Y202999D01*
Y201666D02*
X354998Y202333D01*
X353999Y201666D02*
X354998Y201000D01*
X356998D02*
X356331D01*
X355998Y201333D01*
Y202000D01*
X356331Y202333D01*
X356998D01*
X357331Y202000D01*
Y201666D01*
X355998D01*
X359997Y202999D02*
Y201000D01*
Y201666D01*
X361330Y202999D01*
X360330Y202000D01*
X361330Y201000D01*
X362996D02*
X362329D01*
X361996Y201333D01*
Y202000D01*
X362329Y202333D01*
X362996D01*
X363329Y202000D01*
Y201666D01*
X361996D01*
X364329Y202666D02*
Y202333D01*
X363995D01*
X364662D01*
X364329D01*
Y201333D01*
X364662Y201000D01*
X366995Y202333D02*
X365995D01*
X365662Y202000D01*
Y201333D01*
X365995Y201000D01*
X366995D01*
X367661Y202999D02*
Y201000D01*
Y202000D01*
X367994Y202333D01*
X368661D01*
X368994Y202000D01*
Y201000D01*
X369660Y202333D02*
Y201333D01*
X369993Y201000D01*
X370993D01*
Y202333D01*
X371660Y201000D02*
Y202333D01*
X371993D01*
X372326Y202000D01*
Y201000D01*
Y202000D01*
X372659Y202333D01*
X372992Y202000D01*
Y201000D01*
D40*
X409500Y135623D02*
X411166D01*
X410333D01*
Y140621D01*
X409500Y139788D01*
X410832Y145623D02*
X407500D01*
X410832Y148955D01*
Y149788D01*
X409999Y150621D01*
X408333D01*
X407500Y149788D01*
X446832Y140621D02*
X443500D01*
Y138122D01*
X445166Y138955D01*
X445999D01*
X446832Y138122D01*
Y136456D01*
X445999Y135623D01*
X444333D01*
X443500Y136456D01*
X446832Y150621D02*
X445166Y149788D01*
X443500Y148122D01*
Y146456D01*
X444333Y145623D01*
X445999D01*
X446832Y146456D01*
Y147289D01*
X445999Y148122D01*
X443500D01*
M02*
