G04 Layer_Color=8421504*
%FSLAX25Y25*%
%MOIN*%
G70*
G01*
G75*
%ADD10R,0.06693X0.04331*%
%ADD11R,0.04331X0.06693*%
%ADD12R,0.02756X0.03543*%
%ADD13R,0.03543X0.02756*%
%ADD14R,0.05512X0.04331*%
%ADD15O,0.02165X0.06496*%
%ADD16O,0.06496X0.02165*%
D10*
X340000Y149938D02*
D03*
Y139308D02*
D03*
X349500D02*
D03*
Y149938D02*
D03*
X392500Y171308D02*
D03*
Y181938D02*
D03*
D11*
X329815Y155623D02*
D03*
X319185D02*
D03*
X329815Y187623D02*
D03*
X319185D02*
D03*
X329815Y196123D02*
D03*
X319185D02*
D03*
D12*
X356047Y139123D02*
D03*
X361953D02*
D03*
X322047Y164623D02*
D03*
X327953D02*
D03*
X322047Y170123D02*
D03*
X327953D02*
D03*
X322047Y177123D02*
D03*
X327953D02*
D03*
X455953Y137623D02*
D03*
X450047D02*
D03*
D13*
X371000Y188076D02*
D03*
Y182170D02*
D03*
D14*
X397000Y134670D02*
D03*
Y140576D02*
D03*
X377000Y134670D02*
D03*
Y140576D02*
D03*
D15*
X410976Y193659D02*
D03*
X414126D02*
D03*
X417276D02*
D03*
X420425D02*
D03*
X423575D02*
D03*
X426724D02*
D03*
X429874D02*
D03*
X433024D02*
D03*
Y160588D02*
D03*
X429874D02*
D03*
X426724D02*
D03*
X423575D02*
D03*
X420425D02*
D03*
X417276D02*
D03*
X414126D02*
D03*
X410976D02*
D03*
D16*
X438535Y188147D02*
D03*
Y184997D02*
D03*
Y181848D02*
D03*
Y178698D02*
D03*
Y175548D02*
D03*
Y172399D02*
D03*
Y169249D02*
D03*
Y166100D02*
D03*
X405465D02*
D03*
Y169249D02*
D03*
Y172399D02*
D03*
Y175548D02*
D03*
Y178698D02*
D03*
Y181848D02*
D03*
Y184997D02*
D03*
Y188147D02*
D03*
M02*
